<svg version="1" xmlns="http://www.w3.org/2000/svg" width="682.667" height="682.667" viewBox="0 0 512 512"><path d="M264.9 13c0 5.8-.2 11.4-.4 12.5-.2 1.1-.6 4.6-.9 7.8-2.3 23-10 50.3-18.7 66.7-4.9 9.1-6.5 11.1-11.4 14.4-4.6 3.1-7.4 3.3-10.9.5-6.8-5.4-13.7-25.7-15.6-45.9-.1-.8-1.6 3.9-3.4 10.5-7 25.7-12.9 36.6-34.6 63.5-18.1 22.5-20.7 26.3-27.2 39.4-2.7 5.3-7.4 16.8-8.4 20.6-4.5 16.5-5.6 23.4-5.9 37.5-.4 16.3.5 23 5.1 37.5 3.5 11.1 13.2 30.2 19.6 38.5 12.3 15.9 15.2 19.5 15.9 19.5.4 0 .4-1.2 0-2.8-.5-1.5-.8-6.9-.8-12-.1-21.1 6.2-36.6 29.5-72.7 12.6-19.4 19.7-37.2 21.6-53.9.5-4.4 1.6-7.7 1.6-4.8 0 .6.6 1.7 1.3 2.4 2.3 2.4 13.3 18.1 20.9 29.8 16.1 25 23.9 47 23.9 67.4-.1 5-.3 10.2-.6 11.6-.3 1.4-.8 4.1-1.1 6l-.7 3.5 4.1-4.9c7.3-8.8 14.5-25.4 17.2-39.6 2.5-13.1 3.3-38.3 1.8-55-1.5-15.7-6.3-39-11-53.4-1.6-4.8-2.7-9.1-2.4-9.4 1.1-1.1 14 8.4 19.2 14.1 4.6 5.2 12 18 15.5 27.2 2 5.1 6.2 21.9 7.3 29 2.1 12.9 4 27.6 5.1 39 3 29.2 9.2 50.9 17.7 61.8 3.1 3.9 9.8 9 13.4 10.1 1.9.6 2.1.2 2.1-6.2.1-8.4 2.6-15.7 10.8-32.7 15.5-31.7 19.4-45.2 20-68.5.6-24.8-5.6-47.9-21.6-80.5-6.5-13.2-15.8-30.6-16.8-31.5-.3-.3-1.5-2.1-2.5-4-8-14.7-37.3-56.2-52.1-73.9-5.3-6.4-18.3-21.1-22.2-25.1L265 2.5l-.1 10.5zM75.3 356.1c-14.4 3.6-26.6 12.1-29.3 20.5-1.9 5.5-.6 12.8 2.9 17.6C54.7 402 62 406 81.5 411.9c18 5.4 75.7 22.9 88 26.6 14.7 4.5 22.2 6.8 34.5 10.5 5.2 1.6 12.4 3.7 16 4.8 26.8 8.2 53.6 16.3 77.5 23.6 15.4 4.6 31.6 9.6 36 10.9 4.4 1.4 8.9 2.7 10 3 1.1.3 13.9 4.2 28.5 8.7 27.6 8.5 27.7 8.5 35 10 6.7 1.3 23.6.5 30.9-1.4 16.1-4.3 27.4-13.8 28.8-24.2 1.2-8.6-6.1-19.1-17-24.3-3.4-1.7-13.6-5.3-22.7-8s-21.9-6.6-28.5-8.6c-17.4-5.3-36.6-11.1-39.5-12-.8-.2-12.7-3.8-26.5-8-22.3-6.8-81.1-24.7-97-29.5-3.3-1-18.1-5.5-33-10-37.6-11.4-36.9-11.2-38-11.5-.5-.1-1.7-.5-2.5-.8-.8-.3-8.5-2.7-17-5.2-8.5-2.6-20.7-6.3-27-8.2-9.9-3-13.2-3.5-23.5-3.8-9.1-.2-13.7.2-19.2 1.6zm329.2-.5c-5 1-40.5 11.7-88.5 26.4-5.2 1.6-12.8 3.8-16.8 5-4 1.2-7.2 2.4-7 2.5.2.2 10 3.2 21.8 6.8 11.8 3.6 31.4 9.6 43.5 13.2 12.1 3.7 26.2 8 31.3 9.5l9.4 2.8 12.1-3.8c6.7-2.1 17.6-5.4 24.2-7.5 14.2-4.4 21-8 26.3-14.1 13.5-15.2 2.7-33.4-23.9-40.2-8.8-2.2-23.7-2.5-32.4-.6zm-302 91c-33.8 10.6-39.5 12.6-44 15.5-9.8 6.2-14 13-13.3 21.5.8 9.8 8.8 18 22.3 22.9 9.1 3.2 11.1 3.6 23 4 13.1.5 13.4.5 52.5-11.5 6.9-2.1 15.7-4.7 19.5-5.9 14-4.1 57-17.3 57.3-17.5.1-.2-3.7-1.5-8.5-2.8-12.1-3.6-42.3-12.7-45.3-13.8-1.4-.4-6.3-2-11-3.4-4.7-1.3-15.2-4.5-23.5-7.1-8.2-2.5-15.7-4.7-16.5-4.9-.8-.2-6.4 1.1-12.5 3z"/></svg>