<svg width="24" height="24" viewBox="0 0 24 24" fill="none" xmlns="http://www.w3.org/2000/svg">
<path d="M7 0C7.82969 0 8.5 0.670312 8.5 1.5V3H14.5V1.5C14.5 0.670312 15.1703 0 16 0C16.8297 0 17.5 0.670312 17.5 1.5V3H19.75C20.9922 3 22 4.00781 22 5.25V7.5H1V5.25C1 4.00781 2.00781 3 3.25 3H5.5V1.5C5.5 0.670312 6.17031 0 7 0ZM1 9H22V21.75C22 22.9922 20.9922 24 19.75 24H3.25C2.00781 24 1 22.9922 1 21.75V9ZM4 12.75V14.25C4 14.6625 4.3375 15 4.75 15H6.25C6.6625 15 7 14.6625 7 14.25V12.75C7 12.3375 6.6625 12 6.25 12H4.75C4.3375 12 4 12.3375 4 12.75ZM10 12.75V14.25C10 14.6625 10.3375 15 10.75 15H12.25C12.6625 15 13 14.6625 13 14.25V12.75C13 12.3375 12.6625 12 12.25 12H10.75C10.3375 12 10 12.3375 10 12.75ZM16.75 12C16.3375 12 16 12.3375 16 12.75V14.25C16 14.6625 16.3375 15 16.75 15H18.25C18.6625 15 19 14.6625 19 14.25V12.75C19 12.3375 18.6625 12 18.25 12H16.75ZM4 18.75V20.25C4 20.6625 4.3375 21 4.75 21H6.25C6.6625 21 7 20.6625 7 20.25V18.75C7 18.3375 6.6625 18 6.25 18H4.75C4.3375 18 4 18.3375 4 18.75ZM10.75 18C10.3375 18 10 18.3375 10 18.75V20.25C10 20.6625 10.3375 21 10.75 21H12.25C12.6625 21 13 20.6625 13 20.25V18.75C13 18.3375 12.6625 18 12.25 18H10.75ZM16 18.75V20.25C16 20.6625 16.3375 21 16.75 21H18.25C18.6625 21 19 20.6625 19 20.25V18.75C19 18.3375 18.6625 18 18.25 18H16.75C16.3375 18 16 18.3375 16 18.75Z" fill="#000000"/>
</svg>
