<svg width="24" height="24" viewBox="0 0 24 24" fill="none" xmlns="http://www.w3.org/2000/svg">
<path d="M13.1109 23.4607C15.5156 20.4435 21 13.1309 21 9.02335C21 4.04171 16.9688 0 12 0C7.03125 0 3 4.04171 3 9.02335C3 13.1309 8.48438 20.4435 10.8891 23.4607C11.4656 24.1798 12.5344 24.1798 13.1109 23.4607V23.4607ZM12 12.0311C10.3453 12.0311 9 10.6823 9 9.02335C9 7.36437 10.3453 6.01557 12 6.01557C13.6547 6.01557 15 7.36437 15 9.02335C15 10.6823 13.6547 12.0311 12 12.0311Z" fill="#000000"/>
</svg>
