<svg width="28" height="28" viewBox="0 0 28 28" fill="none" xmlns="http://www.w3.org/2000/svg">
<path d="M8.23002 21.0419C15.3053 21.0419 21.0403 15.306 21.0403 8.23066C21.0403 5.09554 19.9107 2.22759 18.0415 0.000640869C23.8169 1.85464 27.9991 7.26422 27.9991 13.6555C27.9991 21.578 21.5774 27.9997 13.6548 27.9997C7.26358 27.9997 1.854 23.8175 0 18.0421C2.22695 19.9123 5.0958 21.0419 8.23002 21.0419Z" fill="#FFD93B"/>
<path d="M22.5205 2.39685C24.439 4.83448 25.5919 7.90325 25.5919 11.2473C25.5919 19.1698 19.1702 25.5915 11.2477 25.5915C7.90368 25.5915 4.83491 24.4386 2.39728 22.5201C5.02228 25.8524 9.08439 27.9996 13.6557 27.9996C21.5782 27.9996 28 21.5778 28 13.6553C28 9.08397 25.8528 5.02275 22.5205 2.39685Z" fill="#F4C534"/>
<path d="M7.17931 5.6001L8.65677 8.59536L11.9613 9.075L9.57032 11.4059L10.1342 14.697L7.17931 13.1434L4.22349 14.697L4.7874 11.4059L2.39639 9.075L5.70095 8.59536L7.17931 5.6001Z" fill="#FFD83B"/>
<path d="M15.5133 4.64172L16.2789 6.19449L17.9922 6.44283L16.7523 7.65133L17.0455 9.3565L15.5133 8.55143L13.9812 9.3565L14.2743 7.65133L13.0345 6.44283L14.7477 6.19449L15.5133 4.64172Z" fill="#FFD83B"/>
</svg>
