<svg width="28" height="28" viewBox="0 0 28 28" fill="none" xmlns="http://www.w3.org/2000/svg">
<path d="M16.9709 2.38L19.3586 1.06545L20.117 3.68297C20.1828 3.91019 20.3268 4.10685 20.5235 4.23814C20.7202 4.36971 20.957 4.42751 21.1921 4.40131L23.9004 4.10055L23.5997 6.80883C23.5735 7.04397 23.6313 7.28081 23.7628 7.47745C23.8941 7.67421 24.0908 7.8182 24.318 7.88393L26.9346 8.64138L25.62 11.0291C25.5057 11.2363 25.4684 11.4773 25.5148 11.7093C25.5611 11.9413 25.6878 12.1495 25.8725 12.2973L28 14L25.8725 15.7022C25.6878 15.85 25.5611 16.0582 25.5148 16.2902C25.4684 16.5223 25.5057 16.7632 25.62 16.9704L26.9346 19.3586L24.317 20.117C24.0898 20.1828 23.8932 20.3268 23.7619 20.5235C23.6303 20.7202 23.5725 20.957 23.5987 21.1921L23.8994 23.9004L21.1912 23.5997C20.956 23.5735 20.7192 23.6313 20.5226 23.7628C20.3258 23.8941 20.1818 24.0908 20.1161 24.318L19.3586 26.9346L16.9709 25.62C16.7637 25.5057 16.5227 25.4684 16.2907 25.5148C16.0587 25.5611 15.8505 25.6878 15.7027 25.8725L14 28L12.2978 25.8725C12.15 25.6878 11.9418 25.5611 11.7098 25.5148C11.4777 25.4684 11.2368 25.5057 11.0296 25.62L8.64138 26.9346L7.88297 24.317C7.81723 24.0898 7.67325 23.8932 7.47648 23.7619C7.27984 23.6303 7.04301 23.5725 6.80786 23.5987L4.09959 23.8994L4.40034 21.1912C4.42654 20.956 4.36875 20.7192 4.23717 20.5226C4.10588 20.3258 3.90923 20.1818 3.682 20.1161L1.06545 19.3586L2.38 16.9709C2.49432 16.7637 2.5316 16.5227 2.48524 16.2907C2.43891 16.0587 2.31224 15.8505 2.12752 15.7027L0 14L2.12752 12.2978C2.31224 12.15 2.43891 11.9418 2.48524 11.7098C2.5316 11.4777 2.49432 11.2368 2.38 11.0296L1.06545 8.64138L3.68297 7.88297C3.91019 7.81723 4.10685 7.67325 4.23814 7.47648C4.36971 7.27984 4.42751 7.04301 4.40131 6.80786L4.10055 4.09959L6.80883 4.40034C7.04397 4.42654 7.28081 4.36875 7.47745 4.23717C7.67421 4.10588 7.8182 3.90923 7.88393 3.682L8.64138 1.06545L11.0291 2.38C11.2363 2.49432 11.4773 2.5316 11.7093 2.48524C11.9413 2.43891 12.1495 2.31224 12.2973 2.12752L14 0L15.7022 2.12752C15.85 2.31224 16.0582 2.43891 16.2902 2.48524C16.5224 2.53172 16.7636 2.49444 16.9709 2.38V2.38Z" fill="#F29C1F"/>
<path d="M14 24.6207C19.8656 24.6207 24.6207 19.8656 24.6207 14C24.6207 8.13435 19.8656 3.3793 14 3.3793C8.13435 3.3793 3.3793 8.13435 3.3793 14C3.3793 19.8656 8.13435 24.6207 14 24.6207Z" fill="#E57E25"/>
<path d="M14 23.6552C19.3324 23.6552 23.6552 19.3324 23.6552 14C23.6552 8.66759 19.3324 4.34482 14 4.34482C8.66759 4.34482 4.34482 8.66759 4.34482 14C4.34482 19.3324 8.66759 23.6552 14 23.6552Z" fill="#F0C419"/>
<path d="M15.3967 14.9715C17.8795 12.0352 18.0693 8.11356 15.8207 6.21224C13.5721 4.31092 9.73649 5.14994 7.2537 8.08624C4.77091 11.0225 4.58108 14.9442 6.8297 16.8455C9.07832 18.7469 12.9139 17.9078 15.3967 14.9715Z" fill="#F3D55B"/>
<path d="M13.0345 6.81847C12.78 6.81766 12.5699 6.61945 12.5542 6.36547C12.5385 6.11148 12.7227 5.88893 12.9751 5.85682C13.3151 5.81426 13.6574 5.79298 14 5.79309C14.2666 5.79309 14.4828 6.00923 14.4828 6.27585C14.4828 6.54247 14.2666 6.75861 14 6.75861C13.6972 6.75857 13.3948 6.77728 13.0943 6.81461C13.0745 6.8173 13.0545 6.81859 13.0345 6.81847Z" fill="#F9EAB0"/>
<path d="M6.27585 14.4828C6.00923 14.4828 5.79309 14.2666 5.79309 14C5.78365 10.6524 7.81589 7.63723 10.9224 6.38979C11.1691 6.29196 11.4484 6.41152 11.5479 6.6575C11.6474 6.90348 11.5298 7.18365 11.2845 7.28483C8.54337 8.38559 6.75023 11.0461 6.75861 14C6.75861 14.128 6.70775 14.2508 6.61721 14.3414C6.52668 14.4319 6.40389 14.4828 6.27585 14.4828Z" fill="#F9EAB0"/>
</svg>
