<svg width="40" height="40" viewBox="0 0 40 40" fill="none" xmlns="http://www.w3.org/2000/svg">
<path d="M0 9.10721H9.35156V11.8572H0V9.10721ZM0 4H9.35156V6.74997H0V4ZM16.7781 14.175H0V16.925H16.1494C17.9175 16.925 22.0431 16.9642 23.5756 19.4393V17.9072C22.8291 15.4714 20.6287 14.175 16.778 14.175H16.7781ZM16.8172 19.2821H0V22.0321H16.1494C20.0786 22.0321 22.5541 22.1892 23.5756 22.7393V21.5214C22.7897 19.5964 19.4892 19.2821 16.8173 19.2821H16.8172ZM16.7781 32.2463H0V29.4963H16.1494C17.9175 29.4963 22.0431 29.4571 23.5756 26.9821V28.5142C22.8291 30.95 20.6287 32.2463 16.778 32.2463H16.7781ZM16.8172 27.1393H0V24.3893H16.1494C20.0786 24.3893 22.5541 24.2321 23.5756 23.6821V24.9C22.7897 26.825 19.4892 27.1393 16.8173 27.1393H16.8172ZM27.662 37H40V35.3106H28.0156C26.9547 35.3106 24.4402 35.2714 23.5364 33.8178V34.7607C23.9686 36.2142 25.3045 37 27.662 37ZM27.6228 33.8963H39.9608V32.2071H28.0156C25.6187 32.2071 24.1256 32.1285 23.5363 31.775V32.5214C24.0077 33.7 26.0116 33.8963 27.6227 33.8963H27.6228Z" fill="white"/>
</svg>
