<svg width="40" height="40" viewBox="0 0 40 40" fill="none" xmlns="http://www.w3.org/2000/svg">
<path d="M1.29813 2.00011C1.11107 1.99769 0.925757 2.03625 0.755193 2.11309C0.584629 2.18993 0.432954 2.30317 0.31082 2.44488C0.188687 2.58658 0.0990556 2.75331 0.0482221 2.93335C-0.00261149 3.11339 -0.013415 3.30237 0.0165703 3.48703L5.45702 36.5152C5.52479 36.9193 5.73281 37.2867 6.04453 37.5528C6.35625 37.8188 6.75175 37.9665 7.16155 37.9699H33.2615C33.5686 37.9738 33.867 37.8673 34.1022 37.6697C34.3374 37.4721 34.4938 37.1965 34.5429 36.8933L39.9835 3.49344C40.0134 3.30879 40.0026 3.11983 39.9517 2.93981C39.9008 2.7598 39.8112 2.59311 39.689 2.45144C39.5669 2.30977 39.4152 2.19655 39.2447 2.11974C39.0741 2.04293 38.8888 2.00439 38.7018 2.00683L1.29813 2.00011ZM24.2068 25.8709H15.8764L13.6207 14.0861H26.2254L24.2068 25.8709Z" fill="#2684FF"/>
<path d="M38.2202 14.0696H26.2021L24.1851 25.845H15.8613L6.03294 37.5115C6.34446 37.7808 6.74161 37.9306 7.1534 37.934H33.2389C33.5459 37.9379 33.844 37.8315 34.0791 37.6341C34.3141 37.4366 34.4705 37.1613 34.5196 36.8583L38.2202 14.0696Z" fill="url(#paint0_linear_1_398)"/>
<defs>
<linearGradient id="paint0_linear_1_398" x1="40.9989" y1="17.3672" x2="27.1154" y2="37.0794" gradientUnits="userSpaceOnUse">
<stop offset="0.18" stop-color="#0052CC"/>
<stop offset="1" stop-color="#2684FF"/>
</linearGradient>
</defs>
</svg>
