<svg width="40" height="40" viewBox="0 0 40 40" fill="none" xmlns="http://www.w3.org/2000/svg">
<path fill-rule="evenodd" clip-rule="evenodd" d="M33.9612 40H6.03882C2.70309 40 0 37.2714 0 33.9042V6.09579C0 2.72859 2.70309 0 6.03882 0H33.9612C37.2682 0 40 2.72859 40 6.09579V33.9042C40 37.2424 37.2682 40 33.9612 40Z" fill="#6F5499"/>
<path fill-rule="evenodd" clip-rule="evenodd" d="M21.7973 7.54716C22.9188 7.54716 23.9252 7.63425 24.8454 7.83744C25.7656 8.04063 26.5708 8.35994 27.2035 8.82438C27.8936 9.28882 28.4112 9.86937 28.7563 10.6241C29.1301 11.3788 29.3027 12.3077 29.3027 13.4107C29.3027 14.6009 29.0439 15.6168 28.4975 16.4006C27.9511 17.1843 27.1747 17.852 26.1107 18.3745C27.5485 18.8099 28.6413 19.5356 29.3602 20.5805C30.0791 21.6255 30.4242 22.9028 30.4242 24.3832C30.4242 25.5733 30.1941 26.6183 29.734 27.4891C29.2739 28.3599 28.6413 29.0856 27.8648 29.6372C27.0884 30.1887 26.197 30.5951 25.1905 30.8563C24.184 31.1176 23.1776 31.2627 22.1136 31.2627H10.7549V7.54716H21.7973ZM21.1359 17.1553C22.0561 17.1553 22.8037 16.9231 23.4076 16.4877C24.0115 16.0522 24.2991 15.3266 24.2991 14.3396C24.2991 13.7881 24.2128 13.3237 24.0115 12.9753C23.8102 12.627 23.5514 12.3367 23.2351 12.1335C22.9188 11.9303 22.5162 11.7852 22.1136 11.7271C21.6822 11.6401 21.2509 11.611 20.7908 11.611H15.9022V17.1553H21.1359ZM21.4522 27.2279C21.9698 27.2279 22.4299 27.1698 22.89 27.0827C23.3501 26.9956 23.7527 26.8215 24.0978 26.5893C24.4428 26.357 24.7304 26.0377 24.9317 25.6313C25.133 25.225 25.248 24.7315 25.248 24.0929C25.248 22.8737 24.9029 22.0029 24.2416 21.4804C23.5514 20.9579 22.66 20.6967 21.5385 20.6967H15.9022V27.1988H21.4522V27.2279Z" fill="white"/>
</svg>
