<svg width="40" height="40" viewBox="0 0 40 40" fill="none" xmlns="http://www.w3.org/2000/svg">
<g clip-path="url(#clip0_1_378)">
<path d="M1.41713 30.5416C1.00453 31.2413 0.537231 32.0615 0.168392 32.7108C0.0871219 32.8556 0.0355469 33.0167 0.0121038 33.1827C-0.0101496 33.3494 -0.00166254 33.5189 0.0371098 33.6823C0.0746189 33.8467 0.143385 33.9996 0.237158 34.1363C0.330931 34.273 0.449709 34.3902 0.58568 34.4813L8.87362 39.801C9.01584 39.8938 9.17682 39.9556 9.34404 39.9833C9.50971 40.011 9.68163 40.0045 9.84573 39.9621C10.0098 39.9198 10.1646 39.845 10.3005 39.7408C10.4365 39.6367 10.5506 39.5049 10.6365 39.3535C10.971 38.7742 11.3945 38.024 11.8493 37.2234C15.1345 31.614 18.4634 32.3007 24.4102 35.2445L32.6309 39.3031C32.7848 39.38 32.952 39.4237 33.1225 39.4319C33.293 39.44 33.4634 39.4122 33.6233 39.3503C33.7828 39.2884 33.9297 39.1941 34.0531 39.072C34.1782 38.95 34.2766 38.8035 34.3454 38.6408L38.2917 29.3764C38.3589 29.2202 38.3964 29.0526 38.4011 28.8817C38.4073 28.7125 38.3807 28.5416 38.3245 28.3821C38.2682 28.2226 38.1838 28.0745 38.0744 27.9476C37.965 27.8207 37.8337 27.7182 37.6853 27.6417C35.952 26.7922 32.5028 25.121 29.4114 23.5457C18.1665 17.8973 8.67826 18.2699 1.41713 30.5416Z" fill="url(#paint0_linear_1_378)"/>
<path d="M38.5777 9.48237C38.9949 8.78262 39.4622 7.96408 39.8264 7.31477C39.9092 7.16669 39.9639 7.00233 39.9874 6.83146C40.0108 6.66222 40.0014 6.48809 39.9608 6.32211C39.9193 6.15571 39.8471 5.9993 39.7482 5.86157C39.6496 5.72343 39.5259 5.60677 39.3841 5.51821L31.1087 0.198486C30.9649 0.105729 30.8055 0.0438902 30.6382 0.0162257C30.471 -0.0114388 30.3007 -0.00330221 30.1366 0.0373809C29.9725 0.0796913 29.8177 0.154548 29.6818 0.258697C29.5458 0.362846 29.4317 0.494659 29.3442 0.646C29.0175 1.22533 28.5862 1.97552 28.1314 2.77617C24.8337 8.41159 21.536 7.72486 15.583 4.78103L7.37012 0.720857C7.21696 0.644373 7.05129 0.598808 6.8825 0.589044C6.71371 0.577653 6.54335 0.60369 6.38394 0.662273C6.22453 0.720857 6.07762 0.811987 5.95259 0.930782C5.82599 1.04958 5.72597 1.19278 5.65408 1.35226L1.70781 10.6427C1.57219 10.9578 1.5593 11.3154 1.67187 11.6402C1.72813 11.8013 1.81409 11.9494 1.92349 12.0763C2.03289 12.2033 2.16574 12.3074 2.31421 12.3823C4.05369 13.2334 7.50296 14.903 10.5881 16.4799C21.8033 22.1267 31.3212 21.7556 38.5777 9.48237Z" fill="url(#paint1_linear_1_378)"/>
</g>
<defs>
<linearGradient id="paint0_linear_1_378" x1="38.026" y1="42.5558" x2="12.4964" y2="28.4648" gradientUnits="userSpaceOnUse">
<stop stop-color="#0052CC"/>
<stop offset="0.92" stop-color="#2380FB"/>
<stop offset="1" stop-color="#2684FF"/>
</linearGradient>
<linearGradient id="paint1_linear_1_378" x1="1.96772" y1="-2.53705" x2="27.5033" y2="11.5539" gradientUnits="userSpaceOnUse">
<stop stop-color="#0052CC"/>
<stop offset="0.92" stop-color="#2380FB"/>
<stop offset="1" stop-color="#2684FF"/>
</linearGradient>
</defs>
</svg>
