<svg viewBox="0 0 40 40" fill="none" xmlns="http://www.w3.org/2000/svg">
<path d="M36.532 17.99C36.532 15.9512 34.1323 14.1433 30.4424 13.0396C31.3301 9.29049 30.9424 6.3078 29.1759 5.29877C28.7428 5.0582 28.254 4.93574 27.7585 4.94369C26.1104 4.94369 24.0272 6.09475 21.9234 8.08616C19.8195 6.10954 17.7423 4.9644 16.0971 4.9644C15.594 4.95329 15.0972 5.07799 14.659 5.3254C12.9013 6.33739 12.5374 9.30232 13.4132 13.0336C9.74109 14.1314 7.35316 15.9246 7.34724 17.9545C7.34132 19.9844 9.74996 21.8012 13.4399 22.902C12.5522 26.654 12.9368 29.6337 14.7063 30.6428C15.1379 30.8847 15.6261 31.0072 16.1207 30.9978C17.7719 30.9978 19.855 29.8468 21.9589 27.8554C24.0598 29.832 26.137 30.9771 27.7852 30.9771C28.2881 30.9864 28.7844 30.8618 29.2233 30.6161C30.9809 29.6041 31.3419 26.6392 30.469 22.9227C34.1411 21.8101 36.5291 20.0169 36.532 17.99ZM23.2786 8.7549C25.702 6.58594 27.217 6.35218 27.7556 6.35218C28.0053 6.34416 28.2527 6.40343 28.4717 6.5238C29.3179 7.00612 29.6553 8.70756 29.386 10.9623C29.317 11.5381 29.2183 12.11 29.0901 12.6756C27.8639 12.3906 26.6205 12.186 25.3677 12.0631C24.6216 11.0162 23.8071 10.0197 22.9294 9.08039C23.0389 8.97091 23.1573 8.86143 23.2786 8.7549ZM15.9432 19.6678C16.174 20.1116 16.4196 20.5555 16.6741 21.0023C16.9285 21.4491 17.1949 21.9018 17.4908 22.3486C16.6889 22.2332 15.9106 22.0882 15.1709 21.9166C15.378 21.165 15.6414 20.4253 15.9432 19.6678ZM15.1235 14.0338C15.8722 13.8592 16.6563 13.7142 17.47 13.6018C17.1741 14.0397 16.9197 14.4895 16.6533 14.96C16.387 15.4304 16.1533 15.8477 15.9254 16.2974C15.6236 15.5281 15.3563 14.7735 15.1235 14.0338ZM16.6652 17.9811C17.0321 17.2059 17.4355 16.4306 17.8754 15.6553C18.3193 14.8801 18.7957 14.1255 19.2869 13.4035C20.1479 13.3384 21.0357 13.3029 21.95 13.3059C22.8643 13.3088 23.7254 13.3414 24.5806 13.4094C25.0718 14.1255 25.5422 14.8889 25.9861 15.6435C26.4299 16.398 26.8383 17.1881 27.2052 17.9604C26.8412 18.7357 26.4359 19.5139 25.9979 20.2832C25.56 21.0526 25.0777 21.816 24.5865 22.538C23.7254 22.6061 22.8377 22.6386 21.9234 22.6386C21.009 22.6386 20.1479 22.6001 19.2928 22.5321C18.8016 21.816 18.3282 21.0703 17.8843 20.298C17.4404 19.5257 17.0469 18.7534 16.677 17.9811H16.6652ZM26.3885 13.6107C27.1934 13.7231 27.9716 13.8681 28.7084 14.0397C28.4894 14.7706 28.229 15.5192 27.9272 16.2738C27.6934 15.8299 27.4508 15.3861 27.1934 14.9392C26.9359 14.4924 26.6637 14.0427 26.4004 13.6107H26.3885ZM27.2052 20.9845C27.4597 20.5367 27.7023 20.0899 27.9331 19.6441C28.229 20.4134 28.5249 21.1709 28.7321 21.9107C27.9864 22.0853 27.2022 22.2273 26.3885 22.3398C26.6746 21.9018 26.9507 21.4501 27.217 20.9845H27.2052ZM21.9293 10.0865C22.4619 10.6546 22.9856 11.2701 23.4976 11.9299C22.9916 11.9092 22.4737 11.8944 21.95 11.8944C21.4262 11.8944 20.8907 11.8944 20.3728 11.9299C20.8788 11.273 21.3967 10.6546 21.9293 10.0865ZM15.3662 6.53564C15.5907 6.41624 15.843 6.35903 16.0971 6.36993C16.6302 6.39215 17.153 6.52411 17.6328 6.75757C18.7172 7.26883 19.7155 7.94566 20.5918 8.76378L20.938 9.08039C20.0693 10.0129 19.2627 11.0013 18.5234 12.0394C17.2639 12.1614 16.0135 12.3651 14.7803 12.649C14.6501 12.0749 14.5436 11.5127 14.4844 10.9712C14.1767 8.73715 14.5317 7.03275 15.3632 6.54748L15.3662 6.53564ZM13.8009 21.5379C13.2449 21.3681 12.6978 21.1706 12.1616 20.9461C10.0607 20.0584 8.75869 18.9191 8.75869 17.9456C8.75869 16.9721 10.0666 15.8388 12.1645 14.9659C12.6912 14.7477 13.2284 14.5562 13.7742 14.3918C14.1441 15.6177 14.5949 16.8178 15.1235 17.9841C14.6061 19.1388 14.1643 20.3259 13.8009 21.5379ZM20.6066 27.1896C18.1832 29.3585 16.6681 29.5893 16.1266 29.5893C15.8769 29.5977 15.6294 29.5384 15.4106 29.4177C14.5643 28.9354 14.227 27.234 14.4962 24.9792C14.565 24.4043 14.6637 23.8334 14.7921 23.2689C16.0186 23.5514 17.262 23.755 18.5146 23.8784C19.2597 24.9261 20.0743 25.9225 20.9528 26.8611L20.6066 27.1896ZM21.9589 25.8551C21.4262 25.2869 20.9025 24.6715 20.3876 24.0116C20.8966 24.0353 21.4144 24.0471 21.9382 24.0471C22.4619 24.0471 22.9975 24.0471 23.5153 24.0146C23.0034 24.6715 22.4826 25.2869 21.9559 25.8551H21.9589ZM28.522 29.4059C28.2975 29.5289 28.044 29.5892 27.7881 29.5805C27.2496 29.5805 25.7168 29.3437 23.3023 27.1837L22.9561 26.867C23.8238 25.9345 24.6294 24.946 25.3677 23.908C26.6284 23.7877 27.8799 23.5841 29.1138 23.2985C29.244 23.8725 29.3475 24.4347 29.4097 24.9762C29.7026 27.2073 29.3623 28.9117 28.519 29.394L28.522 29.4059ZM31.7177 20.9904C31.2117 21.1976 30.6761 21.3899 30.108 21.5615C29.7366 20.3357 29.2849 19.1357 28.7557 17.9693C29.2755 16.8159 29.7193 15.6298 30.0843 14.4185C30.6403 14.5882 31.1874 14.7857 31.7236 15.0103C33.8216 15.898 35.1265 17.0372 35.1235 18.0107C35.1206 18.9842 33.8157 20.1057 31.7147 20.9786L31.7177 20.9904ZM21.9293 20.6886C22.4665 20.6892 22.9919 20.5305 23.4389 20.2325C23.8859 19.9345 24.2346 19.5106 24.4407 19.0145C24.6468 18.5184 24.7012 17.9722 24.597 17.4452C24.4928 16.9182 24.2346 16.4339 23.8551 16.0536C23.4756 15.6733 22.9919 15.414 22.4651 15.3086C21.9383 15.2033 21.392 15.2565 20.8955 15.4615C20.3989 15.6666 19.9743 16.0143 19.6753 16.4606C19.3763 16.907 19.2164 17.432 19.2159 17.9693C19.2151 18.3261 19.2847 18.6796 19.4207 19.0095C19.5567 19.3394 19.7565 19.6392 20.0085 19.8918C20.2605 20.1444 20.5599 20.3448 20.8895 20.4815C21.2191 20.6182 21.5724 20.6886 21.9293 20.6886V20.6886ZM3.87927 1.6V34.3415H40V1.6H3.87927ZM38.5885 32.933H5.29368V3.01145H38.5885V32.933ZM13.4369 22.902C12.5492 26.654 12.9339 29.6337 14.7034 30.6428C15.1349 30.8847 15.6231 31.0072 16.1178 30.9978C17.7689 30.9978 19.852 29.8468 21.9559 27.8554C24.0568 29.832 26.134 30.9771 27.7822 30.9771C28.2851 30.9864 28.7814 30.8618 29.2203 30.6161C30.978 29.6041 31.339 26.6392 30.466 22.9227C34.1382 21.8219 36.5261 20.0288 36.5291 18.0018C36.532 15.9749 34.1293 14.1551 30.4394 13.0514C31.3271 9.30232 30.9395 6.31963 29.173 5.31061C28.7398 5.07003 28.251 4.94758 27.7556 4.95552C26.1074 4.95552 24.0243 6.10658 21.9204 8.098C19.8165 6.12138 17.7393 4.97624 16.0941 4.97624C15.591 4.96512 15.0942 5.08983 14.656 5.33724C12.8984 6.34922 12.5344 9.31416 13.4103 13.0455C9.73813 14.1433 7.3502 15.9364 7.34428 17.9663C7.33836 19.9962 9.74996 21.7953 13.4399 22.902H13.4369ZM20.6007 27.1896C18.1772 29.3585 16.6622 29.5893 16.1207 29.5893C15.8709 29.5977 15.6235 29.5384 15.4046 29.4177C14.5584 28.9354 14.221 27.234 14.4903 24.9792C14.559 24.4043 14.6578 23.8334 14.7862 23.2689C16.0127 23.5514 17.2561 23.755 18.5087 23.8784C19.2538 24.9261 20.0684 25.9225 20.9469 26.8611L20.6007 27.1896ZM27.9361 16.2738C27.7023 15.8299 27.4597 15.3861 27.2022 14.9392C26.9448 14.4924 26.6696 14.0515 26.3974 13.6107C27.2022 13.7231 27.9805 13.8681 28.7173 14.0397C28.5013 14.7706 28.2409 15.5192 27.939 16.2738H27.9361ZM28.7409 21.8959C27.9953 22.0705 27.2111 22.2125 26.3974 22.325C26.6755 21.887 26.9478 21.4353 27.2141 20.9697C27.4804 20.5042 27.723 20.0574 27.942 19.6293C28.2527 20.4134 28.522 21.165 28.735 21.9107L28.7409 21.8959ZM27.1993 17.9456C26.8353 18.7209 26.4299 19.4991 25.992 20.2684C25.5541 21.0378 25.0718 21.8012 24.5806 22.5232C23.7195 22.5913 22.8318 22.6238 21.9174 22.6238C21.0031 22.6238 20.142 22.5854 19.2869 22.5173C18.7957 21.8012 18.3222 21.0555 17.8784 20.2832C17.4345 19.5109 17.0291 18.7386 16.6593 17.9663C17.0262 17.1911 17.4296 16.4158 17.8695 15.6405C18.3134 14.8653 18.7898 14.1107 19.281 13.3887C20.142 13.3236 21.0297 13.2881 21.9441 13.2911C22.8584 13.294 23.7195 13.3266 24.5746 13.3946C25.0658 14.1107 25.5363 14.8742 25.9802 15.6287C26.424 16.3833 26.8353 17.1881 27.2022 17.9604L27.1993 17.9456ZM17.4908 22.3486C16.6889 22.2332 15.9106 22.0882 15.1709 21.9166C15.3899 21.1887 15.6532 20.4371 15.955 19.6826C16.1858 20.1264 16.4314 20.5703 16.6859 21.0171C16.9404 21.4639 17.1949 21.9018 17.4908 22.3486ZM16.6652 14.9511C16.4078 15.3949 16.1651 15.8388 15.9373 16.2886C15.6276 15.5251 15.3563 14.7735 15.1235 14.0338C15.8722 13.8592 16.6563 13.7142 17.47 13.6018C17.1949 14.0397 16.9315 14.4924 16.6652 14.9511ZM21.9559 25.8551C21.4233 25.2869 20.8995 24.6715 20.3847 24.0116C20.8936 24.0353 21.4114 24.0471 21.9352 24.0471C22.4589 24.0471 22.9945 24.0471 23.5124 24.0146C23.0034 24.6715 22.4826 25.2869 21.9559 25.8551ZM28.519 29.4059C28.2945 29.5289 28.041 29.5892 27.7852 29.5805C27.2466 29.5805 25.7139 29.3437 23.2993 27.1837L22.9531 26.867C23.8208 25.9345 24.6264 24.946 25.3647 23.908C26.6255 23.7877 27.8769 23.5841 29.1108 23.2985C29.241 23.8725 29.3446 24.4347 29.4067 24.9762C29.7026 27.2073 29.3623 28.9117 28.519 29.394V29.4059ZM30.0814 14.4155C30.6374 14.5852 31.1845 14.7828 31.7207 15.0073C33.8186 15.895 35.1235 17.0342 35.1206 18.0078C35.1176 18.9813 33.8157 20.1264 31.7147 20.9993C31.2088 21.2064 30.6732 21.3988 30.105 21.5704C29.7337 20.3446 29.2819 19.1446 28.7528 17.9782C29.2735 16.8171 29.7173 15.623 30.0814 14.4037V14.4155ZM23.2756 8.76674C25.6991 6.59778 27.2141 6.36402 27.7526 6.36402C28.0024 6.35599 28.2497 6.41527 28.4687 6.53564C29.315 7.01796 29.6523 8.7194 29.383 10.9742C29.3141 11.55 29.2153 12.1218 29.0871 12.6874C27.861 12.4024 26.6175 12.1978 25.3647 12.0749C24.6186 11.028 23.8041 10.0316 22.9265 9.09223C23.0389 8.97091 23.1573 8.86143 23.2786 8.7549L23.2756 8.76674ZM21.9293 10.0865C22.4619 10.6546 22.9856 11.2701 23.4976 11.9299C22.9916 11.9092 22.4737 11.8944 21.95 11.8944C21.4262 11.8944 20.8907 11.8944 20.3728 11.9299C20.8788 11.273 21.3967 10.6546 21.9293 10.0865ZM15.3662 6.53564C15.5907 6.41624 15.843 6.35903 16.0971 6.36993C16.6302 6.39215 17.153 6.52411 17.6328 6.75757C18.7172 7.26883 19.7155 7.94566 20.5918 8.76378L20.938 9.08039C20.0693 10.0129 19.2627 11.0013 18.5234 12.0394C17.2639 12.1614 16.0135 12.3651 14.7803 12.649C14.6501 12.0749 14.5436 11.5127 14.4844 10.9712C14.1767 8.73715 14.5317 7.03275 15.3632 6.54748L15.3662 6.53564ZM12.1645 14.9659C12.6912 14.7477 13.2284 14.5562 13.7742 14.3918C14.1441 15.6177 14.5949 16.8178 15.1235 17.9841C14.6043 19.1377 14.1605 20.3238 13.7949 21.5349C13.239 21.3652 12.6918 21.1676 12.1556 20.9431C10.0547 20.0554 8.75277 18.9162 8.75277 17.9427C8.75277 16.9691 10.0666 15.8388 12.1645 14.9659ZM21.9293 15.2618C21.392 15.2612 20.8667 15.4199 20.4196 15.7179C19.9726 16.0159 19.624 16.4398 19.4178 16.9359C19.2117 17.432 19.1573 17.9782 19.2616 18.5052C19.3658 19.0322 19.624 19.5165 20.0035 19.8968C20.3829 20.2771 20.8667 20.5364 21.3935 20.6418C21.9203 20.7471 22.4665 20.694 22.9631 20.4889C23.4597 20.2838 23.8843 19.9361 24.1833 19.4898C24.4822 19.0434 24.6421 18.5184 24.6427 17.9811C24.6454 17.623 24.5773 17.268 24.4421 16.9364C24.307 16.6048 24.1076 16.3032 23.8553 16.049C23.6031 15.7949 23.303 15.5932 22.9725 15.4555C22.6419 15.3178 22.2874 15.247 21.9293 15.247V15.2618ZM21.9293 15.2618C21.392 15.2612 20.8667 15.4199 20.4196 15.7179C19.9726 16.0159 19.624 16.4398 19.4178 16.9359C19.2117 17.432 19.1573 17.9782 19.2616 18.5052C19.3658 19.0322 19.624 19.5165 20.0035 19.8968C20.3829 20.2771 20.8667 20.5364 21.3935 20.6418C21.9203 20.7471 22.4665 20.694 22.9631 20.4889C23.4597 20.2838 23.8843 19.9361 24.1833 19.4898C24.4822 19.0434 24.6421 18.5184 24.6427 17.9811C24.6454 17.623 24.5773 17.268 24.4421 16.9364C24.307 16.6048 24.1076 16.3032 23.8553 16.049C23.6031 15.7949 23.303 15.5932 22.9725 15.4555C22.6419 15.3178 22.2874 15.247 21.9293 15.247V15.2618ZM21.9293 15.2618C21.392 15.2612 20.8667 15.4199 20.4196 15.7179C19.9726 16.0159 19.624 16.4398 19.4178 16.9359C19.2117 17.432 19.1573 17.9782 19.2616 18.5052C19.3658 19.0322 19.624 19.5165 20.0035 19.8968C20.3829 20.2771 20.8667 20.5364 21.3935 20.6418C21.9203 20.7471 22.4665 20.694 22.9631 20.4889C23.4597 20.2838 23.8843 19.9361 24.1833 19.4898C24.4822 19.0434 24.6421 18.5184 24.6427 17.9811C24.6454 17.623 24.5773 17.268 24.4421 16.9364C24.307 16.6048 24.1076 16.3032 23.8553 16.049C23.6031 15.7949 23.303 15.5932 22.9725 15.4555C22.6419 15.3178 22.2874 15.247 21.9293 15.247V15.2618ZM36.532 17.9959C36.532 15.9572 34.1323 14.1492 30.4424 13.0455C31.3301 9.2964 30.9424 6.31371 29.1759 5.30469C28.7428 5.06412 28.254 4.94166 27.7585 4.94961C26.1104 4.94961 24.0272 6.10066 21.9234 8.09208C19.8195 6.11546 17.7423 4.97032 16.0971 4.97032C15.594 4.9592 15.0972 5.08391 14.659 5.33132C12.9013 6.3433 12.5374 9.30824 13.4132 13.0396C9.74109 14.1374 7.35316 15.9305 7.34724 17.9604C7.34132 19.9903 9.74996 21.8071 13.4399 22.9079C12.5522 26.6599 12.9368 29.6396 14.7063 30.6487C15.1379 30.8906 15.6261 31.0132 16.1207 31.0038C17.7719 31.0038 19.855 29.8527 21.9589 27.8613C24.0598 29.8379 26.137 30.983 27.7852 30.983C28.2881 30.9923 28.7844 30.8677 29.2233 30.622C30.9809 29.6101 31.3419 26.6451 30.469 22.9286C34.1411 21.8101 36.5291 20.0169 36.532 17.99V17.9959ZM23.2786 8.7549C25.702 6.58594 27.217 6.35218 27.7556 6.35218C28.0053 6.34416 28.2527 6.40343 28.4717 6.5238C29.3179 7.00612 29.6553 8.70756 29.386 10.9623C29.317 11.5381 29.2183 12.11 29.0901 12.6756C27.8639 12.3906 26.6205 12.186 25.3677 12.0631C24.6216 11.0162 23.8071 10.0197 22.9294 9.08039C23.0389 8.97091 23.1573 8.86143 23.2786 8.7549ZM15.9432 19.6678C16.174 20.1116 16.4196 20.5555 16.6741 21.0023C16.9285 21.4491 17.1949 21.9018 17.4908 22.3486C16.6889 22.2332 15.9106 22.0882 15.1709 21.9166C15.378 21.165 15.6414 20.4253 15.9432 19.6678ZM15.1235 14.0338C15.8722 13.8592 16.6563 13.7142 17.47 13.6018C17.1741 14.0397 16.9197 14.4895 16.6533 14.96C16.387 15.4304 16.1533 15.8477 15.9254 16.2974C15.6236 15.5281 15.3563 14.7735 15.1235 14.0338ZM16.6652 17.9811C17.0321 17.2059 17.4355 16.4306 17.8754 15.6553C18.3193 14.8801 18.7957 14.1255 19.2869 13.4035C20.1479 13.3384 21.0357 13.3029 21.95 13.3059C22.8643 13.3088 23.7254 13.3414 24.5806 13.4094C25.0718 14.1255 25.5422 14.8889 25.9861 15.6435C26.4299 16.398 26.8383 17.1881 27.2052 17.9604C26.8412 18.7357 26.4359 19.5139 25.9979 20.2832C25.56 21.0526 25.0777 21.816 24.5865 22.538C23.7254 22.6061 22.8377 22.6386 21.9234 22.6386C21.009 22.6386 20.1479 22.6001 19.2928 22.5321C18.8016 21.816 18.3282 21.0703 17.8843 20.298C17.4404 19.5257 17.0469 18.7534 16.677 17.9811H16.6652ZM26.3885 13.6107C27.1934 13.7231 27.9716 13.8681 28.7084 14.0397C28.4894 14.7706 28.229 15.5192 27.9272 16.2738C27.6934 15.8299 27.4508 15.3861 27.1934 14.9392C26.9359 14.4924 26.6637 14.0427 26.4004 13.6107H26.3885ZM27.2052 20.9845C27.4597 20.5367 27.7023 20.0899 27.9331 19.6441C28.229 20.4134 28.5249 21.1709 28.7321 21.9107C27.9864 22.0853 27.2022 22.2273 26.3885 22.3398C26.6746 21.9018 26.9507 21.4501 27.217 20.9845H27.2052ZM21.9293 10.0865C22.4619 10.6546 22.9856 11.2701 23.4976 11.9299C22.9916 11.9092 22.4737 11.8944 21.95 11.8944C21.4262 11.8944 20.8907 11.8944 20.3728 11.9299C20.8788 11.273 21.3967 10.6546 21.9293 10.0865ZM15.3662 6.53564C15.5907 6.41624 15.843 6.35903 16.0971 6.36993C16.6302 6.39215 17.153 6.52411 17.6328 6.75757C18.7172 7.26883 19.7155 7.94566 20.5918 8.76378L20.938 9.08039C20.0693 10.0129 19.2627 11.0013 18.5234 12.0394C17.2639 12.1614 16.0135 12.3651 14.7803 12.649C14.6501 12.0749 14.5436 11.5127 14.4844 10.9712C14.1767 8.73715 14.5317 7.03275 15.3632 6.54748L15.3662 6.53564ZM13.8009 21.5379C13.2449 21.3681 12.6978 21.1706 12.1616 20.9461C10.0607 20.0584 8.75869 18.9191 8.75869 17.9456C8.75869 16.9721 10.0666 15.8388 12.1645 14.9659C12.6912 14.7477 13.2284 14.5562 13.7742 14.3918C14.1441 15.6177 14.5949 16.8178 15.1235 17.9841C14.6061 19.1388 14.1643 20.3259 13.8009 21.5379ZM20.6066 27.1896C18.1832 29.3585 16.6681 29.5893 16.1266 29.5893C15.8769 29.5977 15.6294 29.5384 15.4106 29.4177C14.5643 28.9354 14.227 27.234 14.4962 24.9792C14.565 24.4043 14.6637 23.8334 14.7921 23.2689C16.0186 23.5514 17.262 23.755 18.5146 23.8784C19.2597 24.9261 20.0743 25.9225 20.9528 26.8611L20.6066 27.1896ZM21.9589 25.8551C21.4262 25.2869 20.9025 24.6715 20.3876 24.0116C20.8966 24.0353 21.4144 24.0471 21.9382 24.0471C22.4619 24.0471 22.9975 24.0471 23.5153 24.0146C23.0034 24.6715 22.4826 25.2869 21.9559 25.8551H21.9589ZM28.522 29.4059C28.2975 29.5289 28.044 29.5892 27.7881 29.5805C27.2496 29.5805 25.7168 29.3437 23.3023 27.1837L22.9561 26.867C23.8238 25.9345 24.6294 24.946 25.3677 23.908C26.6284 23.7877 27.8799 23.5841 29.1138 23.2985C29.244 23.8725 29.3475 24.4347 29.4097 24.9762C29.7026 27.2073 29.3623 28.9117 28.519 29.394L28.522 29.4059ZM31.7177 20.9904C31.2117 21.1976 30.6761 21.3899 30.108 21.5615C29.7366 20.3357 29.2849 19.1357 28.7557 17.9693C29.2755 16.8159 29.7193 15.6298 30.0843 14.4185C30.6403 14.5882 31.1874 14.7857 31.7236 15.0103C33.8216 15.898 35.1265 17.0372 35.1235 18.0107C35.1206 18.9842 33.8157 20.1057 31.7147 20.9786L31.7177 20.9904ZM21.9293 20.6886C22.4665 20.6892 22.9919 20.5305 23.4389 20.2325C23.8859 19.9345 24.2346 19.5106 24.4407 19.0145C24.6468 18.5184 24.7012 17.9722 24.597 17.4452C24.4928 16.9182 24.2346 16.4339 23.8551 16.0536C23.4756 15.6733 22.9919 15.414 22.4651 15.3086C21.9383 15.2033 21.392 15.2565 20.8955 15.4615C20.3989 15.6666 19.9743 16.0143 19.6753 16.4606C19.3763 16.907 19.2164 17.432 19.2159 17.9693C19.2151 18.3261 19.2847 18.6796 19.4207 19.0095C19.5567 19.3394 19.7565 19.6392 20.0085 19.8918C20.2605 20.1444 20.5599 20.3448 20.8895 20.4815C21.2191 20.6182 21.5724 20.6886 21.9293 20.6886V20.6886ZM1.41737 36.8153V4.0619L0 5.48223V38.2267H36.1148L37.5292 36.8153H1.41737Z" fill="#09D3AC"/>
</svg>
