<svg width="40" height="40" viewBox="0 0 40 40" fill="none" xmlns="http://www.w3.org/2000/svg">
<path fill-rule="evenodd" clip-rule="evenodd" d="M34.226 36.1107L19.7799 40L5.33365 36.1107L2 0H37.56L34.226 36.1107Z" fill="#2062AF"/>
<path fill-rule="evenodd" clip-rule="evenodd" d="M19.7797 2.92487V36.898L19.8125 36.9069L31.503 33.7594L34.2015 2.92487H19.7797Z" fill="#3C9CD7"/>
<path fill-rule="evenodd" clip-rule="evenodd" d="M19.767 11.9541L9.42735 16.2597L9.77023 20.5226L19.767 16.2489L30.4008 11.7029L30.8417 7.34222L19.767 11.9541Z" fill="white"/>
<path fill-rule="evenodd" clip-rule="evenodd" d="M9.42735 16.2596L9.77023 20.5225L19.7669 16.2488V11.954L9.42735 16.2596Z" fill="url(#paint0_linear_1_449)"/>
<path fill-rule="evenodd" clip-rule="evenodd" d="M30.8417 7.34235L19.767 11.9541V16.2489L30.4008 11.7029L30.8417 7.34235Z" fill="url(#paint1_linear_1_449)"/>
<path fill-rule="evenodd" clip-rule="evenodd" d="M9.44319 16.2596L9.78619 20.5225L25.1248 20.5714L24.7817 26.2552L19.7345 27.676L14.8825 26.451L14.5885 22.9231H10.0802L10.6683 29.7339L19.7834 32.4287L28.8491 29.7827L30.0252 16.2596H9.44319Z" fill="url(#paint2_linear_1_449)"/>
<path fill-rule="evenodd" clip-rule="evenodd" d="M19.767 16.2596H9.42747L9.77035 20.5225L19.767 20.5544V16.2596ZM19.767 27.6623L19.718 27.676L14.8668 26.451L14.5727 22.9231H10.0646L10.6526 29.7339L19.767 32.4287V27.6623Z" fill="black" fill-opacity="0.05098"/>
<path fill-rule="evenodd" clip-rule="evenodd" d="M8.49628 7.34235H30.8417L30.4008 11.703H9.03526L8.49628 7.34235Z" fill="url(#paint3_linear_1_449)"/>
<path fill-rule="evenodd" clip-rule="evenodd" d="M19.767 7.34235H8.49628L9.03526 11.703H19.767V7.34235Z" fill="black" fill-opacity="0.05098"/>
<defs>
<linearGradient id="paint0_linear_1_449" x1="14.5971" y1="11.954" x2="14.5971" y2="20.5225" gradientUnits="userSpaceOnUse">
<stop stop-color="#D1D3D4"/>
<stop offset="0.388" stop-color="#D1D3D4"/>
<stop offset="1" stop-color="#D1D3D4"/>
</linearGradient>
<linearGradient id="paint1_linear_1_449" x1="25.3043" y1="7.34232" x2="25.3043" y2="16.2489" gradientUnits="userSpaceOnUse">
<stop stop-color="#D1D3D4"/>
<stop offset="0.388" stop-color="#D1D3D4"/>
<stop offset="1" stop-color="#D1D3D4"/>
</linearGradient>
<linearGradient id="paint2_linear_1_449" x1="9.44323" y1="24.3442" x2="30.0252" y2="24.3442" gradientUnits="userSpaceOnUse">
<stop stop-color="#E8E7E5"/>
<stop offset="1" stop-color="white"/>
</linearGradient>
<linearGradient id="paint3_linear_1_449" x1="8.49624" y1="9.52269" x2="30.8417" y2="9.52269" gradientUnits="userSpaceOnUse">
<stop stop-color="#E8E7E5"/>
<stop offset="1" stop-color="white"/>
</linearGradient>
</defs>
</svg>
