<svg width="40" height="40" viewBox="0 0 40 40" fill="none" xmlns="http://www.w3.org/2000/svg">
<path d="M13.6675 40C17.348 40 20.335 37.0133 20.335 33.3333V26.6667H13.6675C9.98704 26.6667 7 29.6533 7 33.3333C7 37.0133 9.98704 40 13.6675 40Z" fill="#0ACF83"/>
<path d="M7 20C7 16.32 9.98704 13.3333 13.6675 13.3333H20.335V26.6667H13.6675C9.98704 26.6667 7 23.68 7 20Z" fill="#A259FF"/>
<path d="M7 6.66667C7 2.98667 9.98704 0 13.6675 0H20.335V13.3333H13.6675C9.98704 13.3333 7 10.3467 7 6.66667Z" fill="#F24E1E"/>
<path d="M20.335 0H27.0025C30.683 0 33.67 2.98667 33.67 6.66667C33.67 10.3467 30.683 13.3333 27.0025 13.3333H20.335V0Z" fill="#FF7262"/>
<path d="M33.67 20C33.67 23.68 30.683 26.6667 27.0025 26.6667C23.322 26.6667 20.335 23.68 20.335 20C20.335 16.32 23.322 13.3333 27.0025 13.3333C30.683 13.3333 33.67 16.32 33.67 20Z" fill="#1ABCFE"/>
</svg>
