<svg width="40" height="40" viewBox="0 0 40 40" fill="none" xmlns="http://www.w3.org/2000/svg">
<path d="M20.0001 1C8.95576 1 0 9.72178 0 20.481C0 29.0883 5.73062 36.3906 13.6773 38.9665C14.6768 39.1468 15.0439 38.5439 15.0439 38.0294C15.0439 37.5649 15.0252 36.0301 15.0167 34.4024C9.45253 35.5808 8.27845 32.1039 8.27845 32.1039C7.36868 29.8521 6.05783 29.2535 6.05783 29.2535C4.2433 28.0443 6.1946 28.0691 6.1946 28.0691C8.203 28.2066 9.26054 30.0767 9.26054 30.0767C11.0443 33.0549 13.9393 32.1938 15.0806 31.6962C15.26 30.437 15.7784 29.5777 16.3503 29.0912C11.9081 28.5985 7.23818 26.9281 7.23818 19.4636C7.23818 17.3368 8.01948 15.5988 9.29897 14.2346C9.09129 13.7439 8.40676 11.7625 9.49268 9.07917C9.49268 9.07917 11.1722 8.55557 14.9941 11.0761C16.5894 10.6443 18.3004 10.428 20.0001 10.4206C21.6998 10.428 23.412 10.6443 25.0104 11.0761C28.8278 8.55557 30.505 9.07917 30.505 9.07917C31.5936 11.7625 30.9087 13.7439 30.701 14.2346C31.9833 15.5988 32.7593 17.3366 32.7593 19.4636C32.7593 26.9458 28.0806 28.5934 23.6271 29.0756C24.3444 29.6802 24.9836 30.8658 24.9836 32.6832C24.9836 35.2897 24.9604 37.3876 24.9604 38.0294C24.9604 38.5478 25.3204 39.1552 26.3343 38.9639C34.2766 36.3851 40 29.0854 40 20.481C40 9.72178 31.0455 1 20.0001 1Z" fill="white"/>
<path d="M7.49071 28.7511C7.44679 28.8479 7.29024 28.8769 7.14797 28.8106C7.00288 28.747 6.92132 28.615 6.96837 28.5178C7.01151 28.4182 7.16805 28.3904 7.31283 28.4573C7.45824 28.5207 7.54106 28.654 7.49071 28.7511ZM8.47452 29.6061C8.37915 29.6923 8.19264 29.6523 8.06606 29.5161C7.93524 29.3803 7.91077 29.1988 8.00755 29.1113C8.1059 29.0252 8.28676 29.0654 8.41789 29.2014C8.54871 29.3388 8.57412 29.5192 8.47436 29.6063M9.14947 30.7001C9.02681 30.783 8.82635 30.7053 8.70259 30.532C8.58008 30.3589 8.58008 30.1511 8.70525 30.0679C8.82948 29.9846 9.02681 30.0594 9.1523 30.2313C9.27465 30.4075 9.27464 30.6153 9.14932 30.7002M10.2908 31.9671C10.1811 32.0848 9.94772 32.0533 9.77674 31.8926C9.60201 31.7355 9.55322 31.5126 9.66318 31.3948C9.77408 31.2768 10.0089 31.31 10.1811 31.4694C10.3548 31.6261 10.4078 31.8507 10.2909 31.9671M11.7659 32.3949C11.7177 32.5474 11.4928 32.6168 11.2663 32.552C11.0401 32.4852 10.892 32.3065 10.9376 32.1523C10.9847 31.9988 11.2106 31.9265 11.4388 31.9959C11.6647 32.0623 11.8131 32.2397 11.766 32.3949M13.4449 32.5763C13.4505 32.737 13.2583 32.8703 13.0206 32.8732C12.7813 32.8782 12.5879 32.7482 12.5854 32.5902C12.5854 32.4279 12.7732 32.2959 13.0122 32.2921C13.25 32.2875 13.4449 32.4166 13.4449 32.5763ZM15.094 32.5147C15.1226 32.6715 14.9573 32.8325 14.7212 32.8753C14.489 32.9165 14.2742 32.8198 14.2445 32.6644C14.2156 32.5037 14.3841 32.3428 14.6158 32.3011C14.8523 32.2611 15.0639 32.3554 15.094 32.5147Z" fill="white"/>
</svg>
