<svg width="40" height="40" viewBox="0 0 40 40" fill="none" xmlns="http://www.w3.org/2000/svg">
<path d="M38.715 10.8813C38.5503 10.4531 38.0559 10.2553 37.6606 10.42C37.3641 10.5519 37.1664 10.8485 37.1664 11.1451C37.1664 11.2439 37.1664 11.3428 37.2323 11.4086C37.9902 13.4188 38.4184 15.5936 38.4184 17.9003C38.4184 27.2262 31.4662 34.9701 22.4383 36.1234V27.5226C22.9983 27.4239 23.5255 27.259 24.0527 27.0944V34.311C31.4003 32.5315 36.9027 25.8751 36.9027 17.9003C36.9027 11.5405 33.3772 5.97134 28.1714 3.10442C27.7761 2.87377 27.2817 3.03863 27.0839 3.46697C27.0181 3.56589 27.0181 3.69762 27.0181 3.82951C27.0181 4.12595 27.1828 4.38958 27.4134 4.52147C32.1252 7.12477 35.3213 12.1666 35.3213 17.9333C35.3213 24.425 31.3014 29.9612 25.6013 32.2019V25.8091C26.5898 25.5125 27.3147 24.5899 27.3147 23.4695C27.3147 22.5468 26.8534 21.7888 26.0956 21.3604C26.6556 15.8243 29.1928 17.3073 29.1928 15.5278V14.5062C29.1928 11.8699 23.0972 3.26913 20.2306 3.07145H19.7034C16.8369 3.26929 10.7414 11.8699 10.7414 14.5062V15.5277C10.7414 17.2742 13.2455 15.8241 13.8386 21.3603C13.1136 21.7886 12.6523 22.5795 12.6523 23.4693C12.6523 24.5568 13.3773 25.4794 14.3658 25.809V32.2019C8.69859 29.961 4.64578 24.4249 4.64578 17.9331C4.64578 12.1665 7.84188 7.12461 12.5536 4.52132C12.9161 4.32364 13.0808 3.86233 12.883 3.46681C12.7844 3.17037 12.4877 3.00566 12.1911 3.00566C12.0594 3.00566 11.9275 3.03848 11.7958 3.10442C6.58984 5.97134 3.06406 11.5405 3.06406 17.9003C3.06406 25.8751 8.56656 32.5315 15.98 34.3439V27.1273C16.5072 27.292 17.0344 27.4568 17.5945 27.5556V36.1563C8.56672 34.9701 1.61453 27.259 1.61453 17.9003C1.61453 15.6266 2.04281 13.4518 2.80062 11.4086C2.96547 11.0132 2.76781 10.5519 2.37234 10.387C2.27344 10.3542 2.17469 10.3213 2.07578 10.3213C1.74625 10.3213 1.44969 10.5189 1.31797 10.8485C0.46125 13.0563 0 15.4289 0 17.9003C0 28.676 8.50078 37.4415 19.1763 37.87V27.7534C19.4728 27.7862 20 27.7862 20 27.7862C20 27.7862 20.5272 27.7862 20.8237 27.7534V37.87C31.4992 37.4415 40 28.676 40 17.9003C39.9672 15.4289 39.5387 13.0563 38.715 10.8813ZM23.6903 22.2832C23.9869 21.9866 24.3822 21.7888 24.8434 21.7888C25.3048 21.7888 25.7002 21.9866 25.9966 22.2832C26.2933 22.5797 26.4909 22.9752 26.4909 23.4365C26.4909 23.8978 26.2933 24.2933 25.9967 24.5898C25.7002 24.8865 25.3048 25.0842 24.8436 25.0842C24.3822 25.0842 23.9869 24.8865 23.6903 24.5899C23.3937 24.2933 23.1961 23.8978 23.1961 23.4366C23.1961 22.9752 23.3937 22.5797 23.6903 22.2832ZM16.3097 24.5898C16.0131 24.8865 15.6178 25.0842 15.1566 25.0842C14.6952 25.0842 14.2998 24.8865 14.0034 24.5899C13.6737 24.2933 13.5091 23.8978 13.5091 23.4366C13.5091 22.9752 13.7067 22.5797 14.0033 22.2832C14.2998 21.9866 14.6952 21.7888 15.1564 21.7888C15.6178 21.7888 16.0131 21.9866 16.3097 22.2832C16.6063 22.5797 16.8039 22.9752 16.8039 23.4365C16.7711 23.8978 16.6063 24.2933 16.3097 24.5898Z" fill="#128379"/>
</svg>
