<svg viewBox="0 0 40 40" fill="none" xmlns="http://www.w3.org/2000/svg">
<path d="M0 0H40V40H0V0Z" fill="#CF4547"/>
<path d="M13.8402 20.2664C13.8214 20.2938 13.7885 20.3792 13.74 20.5241C13.6914 20.6691 13.6326 20.8501 13.5637 21.0679C13.4947 21.2857 13.4195 21.5301 13.3396 21.7997C13.2589 22.0692 13.1759 22.345 13.0912 22.6255C13.0058 22.9067 12.9244 23.1817 12.846 23.452C12.7677 23.7215 12.6971 23.966 12.6352 24.1838C12.5734 24.4016 12.5216 24.5842 12.4801 24.7322C12.4386 24.8795 12.4135 24.9665 12.4041 24.9939C12.3814 25.0809 12.3446 25.178 12.2936 25.2846C12.2427 25.3912 12.1832 25.4914 12.1142 25.587C12.0453 25.6826 11.9693 25.7617 11.8862 25.8244C11.8032 25.8871 11.7178 25.9184 11.6308 25.9184C11.4835 25.9184 11.3762 25.8691 11.3096 25.7711C11.243 25.6732 11.2093 25.493 11.2093 25.2313V25.1169C11.2093 25.0785 11.2117 25.0378 11.2164 24.9947C11.2211 24.9077 11.2555 24.744 11.3198 24.5035C11.384 24.2637 11.4616 23.9926 11.5509 23.6894C11.6402 23.3862 11.7374 23.0736 11.8408 22.7485C11.9442 22.4241 12.0374 22.1334 12.1205 21.8772C11.8761 22.1499 11.612 22.421 11.326 22.6913C11.0409 22.9616 10.7478 23.2037 10.4493 23.4191C10.15 23.6346 9.84839 23.8109 9.5444 23.9464C9.24041 24.0827 8.94817 24.1509 8.66768 24.1509C8.34567 24.1509 8.06832 24.0796 7.83562 23.9386C7.60293 23.7968 7.41098 23.6111 7.25898 23.3823C7.10698 23.1535 6.99416 22.8942 6.92051 22.6051C6.84687 22.316 6.81004 22.0269 6.81004 21.7378V21.6312C6.81004 21.5983 6.81239 21.5662 6.81709 21.5333C6.84452 21.0099 6.91973 20.4724 7.04117 19.9216C7.16339 19.3709 7.32323 18.8224 7.52145 18.2779C7.71967 17.7326 7.94845 17.1998 8.20856 16.6788C8.46868 16.1578 8.75152 15.6658 9.05786 15.2027C9.3642 14.7397 9.68935 14.3127 10.0349 13.9225C10.3804 13.5323 10.7345 13.197 11.0981 12.9165C11.4616 12.636 11.829 12.4167 12.1996 12.2584C12.5702 12.1001 12.9377 12.021 13.3012 12.021C13.7204 12.021 14.1254 12.1354 14.5164 12.3642C14.9074 12.5929 15.2732 12.9643 15.6141 13.4767C15.6924 13.5911 15.7418 13.7071 15.7621 13.8246C15.7825 13.9421 15.7935 14.0526 15.7935 14.156C15.7935 14.4012 15.7347 14.5947 15.6172 14.7366C15.4997 14.8784 15.3602 14.9489 15.1996 14.9489C15.0523 14.9489 14.9152 14.8713 14.789 14.7154C14.6621 14.5603 14.5211 14.3378 14.3644 14.0487C14.2171 13.787 14.0549 13.5974 13.8779 13.4798C13.7008 13.3623 13.508 13.3043 13.3012 13.3043C12.9792 13.3043 12.6345 13.4383 12.2686 13.7055C11.9027 13.9727 11.5399 14.326 11.1811 14.7648C10.8223 15.2035 10.4775 15.7049 10.1485 16.2698C9.81941 16.8339 9.52795 17.4121 9.27488 18.0037C9.02182 18.5952 8.82046 19.1789 8.67082 19.754C8.52117 20.3291 8.44674 20.8462 8.44674 21.3045C8.44674 21.4573 8.45693 21.614 8.47808 21.7746C8.49923 21.9352 8.53763 22.0817 8.5956 22.2126C8.6528 22.3434 8.73115 22.4515 8.83065 22.5354C8.92937 22.62 9.05473 22.6623 9.20672 22.6623C9.37674 22.6623 9.57026 22.6051 9.7865 22.4907C10.0027 22.3763 10.2276 22.2267 10.4595 22.041C10.6922 21.8553 10.9257 21.6453 11.1607 21.4111C11.3958 21.1768 11.6144 20.9394 11.8165 20.6996C12.0186 20.4599 12.1988 20.2296 12.3548 20.0086C12.5115 19.7877 12.629 19.5957 12.7065 19.432L13.349 17.5101C13.4274 17.3032 13.53 17.156 13.6561 17.0682C13.7831 16.9812 13.9131 16.9374 14.0463 16.9374C14.1105 16.9374 14.1748 16.9483 14.2398 16.9703C14.3041 16.9922 14.362 17.0259 14.4122 17.0729C14.4631 17.1191 14.5031 17.1795 14.5328 17.2531C14.5626 17.3268 14.5775 17.4129 14.5775 17.5109C14.5775 17.7726 14.5548 18.0178 14.5086 18.2473C14.4623 18.4769 14.4036 18.7002 14.3323 18.918C14.261 19.1358 14.1818 19.356 14.0941 19.5761C14.0079 19.7955 13.9225 20.0259 13.8402 20.2664ZM22.5479 21.8694C22.345 22.142 22.1091 22.4076 21.8404 22.667C21.5709 22.9263 21.2935 23.1567 21.0083 23.358C20.7232 23.5594 20.4419 23.7215 20.1661 23.8446C19.8895 23.9676 19.6412 24.0287 19.4202 24.0287C19.1993 24.0287 19.0199 23.955 18.8812 23.8077C18.7433 23.6604 18.6743 23.4097 18.6743 23.0548C18.6743 22.8041 18.7112 22.5118 18.7848 22.1797C18.6649 22.3928 18.5153 22.6082 18.3359 22.826C18.1565 23.0438 17.9512 23.2428 17.7208 23.423C17.4905 23.6032 17.2327 23.749 16.9475 23.8602C16.6624 23.9723 16.3513 24.0279 16.0152 24.0279C15.8632 24.0279 15.7167 24.0091 15.5764 23.9707C15.4362 23.9323 15.3132 23.8673 15.2074 23.7748C15.1017 23.6824 15.0163 23.5586 14.952 23.4027C14.8878 23.2475 14.8556 23.0525 14.8556 22.8182C14.8556 22.8127 14.865 22.7297 14.8831 22.569C14.9011 22.4084 14.9598 22.1546 15.0593 21.8083C15.1581 21.462 15.3116 21.0138 15.5185 20.463C15.7261 19.9122 16.0183 19.2447 16.3952 18.4589C16.4916 18.252 16.6036 18.1032 16.7297 18.0131C16.8567 17.923 16.993 17.8783 17.1403 17.8783C17.2045 17.8783 17.2711 17.8877 17.3409 17.9065C17.4098 17.9261 17.474 17.9559 17.5344 17.9966C17.5939 18.0374 17.6425 18.0891 17.6793 18.1518C17.7161 18.2144 17.7349 18.2865 17.7349 18.3688C17.7349 18.4236 17.7279 18.4753 17.7138 18.5239C17.6911 18.6171 17.6417 18.7378 17.5649 18.8882C17.4889 19.0387 17.4004 19.2102 17.2993 19.4038C17.1983 19.5973 17.0909 19.8057 16.9781 20.0298C16.8653 20.2531 16.7603 20.485 16.6639 20.7247C16.5676 20.9645 16.4845 21.2089 16.4156 21.4565C16.3466 21.7049 16.3074 21.9462 16.298 22.1804C16.298 22.2784 16.3208 22.3685 16.367 22.4507C16.4132 22.5322 16.4892 22.5737 16.595 22.5737C16.8943 22.5737 17.1795 22.4758 17.4513 22.2792C17.7232 22.0833 17.9739 21.8388 18.2043 21.5474C18.4346 21.2559 18.643 20.9425 18.8295 20.6064C19.0159 20.2711 19.1719 19.9647 19.2956 19.6866C19.3834 19.5009 19.4602 19.3019 19.5268 19.0896C19.5934 18.8773 19.6662 18.6806 19.7446 18.5004C19.8229 18.3202 19.9122 18.1706 20.0141 18.0507C20.1152 17.9308 20.2421 17.8705 20.3941 17.8705C20.5594 17.8705 20.691 17.9332 20.7874 18.0585C20.8838 18.1839 20.9323 18.3343 20.9323 18.5082C20.9323 18.6062 20.9018 18.7417 20.8391 18.9133C20.7764 19.0849 20.6989 19.2815 20.6041 19.5025C20.51 19.7234 20.4074 19.9593 20.2969 20.21C20.1865 20.4607 20.0838 20.7161 19.9898 20.9747C19.895 21.234 19.8174 21.4871 19.7548 21.7354C19.6929 21.9838 19.6615 22.2141 19.6615 22.4264C19.6615 22.6231 19.7626 22.721 19.9655 22.721C20.1081 22.721 20.2852 22.6717 20.4975 22.5737C20.7098 22.4758 20.9316 22.3379 21.1643 22.1608C21.397 21.9838 21.6289 21.7754 21.8616 21.5348C22.0943 21.2951 22.3003 21.0358 22.4797 20.7576L22.5479 21.8694Z" fill="white"/>
<path d="M22.7626 21.4604C22.7116 21.5858 22.6623 21.7315 22.6137 21.8984C22.5651 22.0645 22.5416 22.2133 22.5416 22.3442C22.5416 22.4257 22.5557 22.4915 22.5831 22.5408C22.6106 22.5902 22.6638 22.6145 22.7422 22.6145C22.8386 22.6145 22.9592 22.5808 23.1049 22.5119C23.2499 22.4437 23.4066 22.3536 23.5743 22.2416C23.7427 22.1303 23.9174 22.0018 24.0992 21.8569C24.281 21.7127 24.4619 21.5623 24.6414 21.4071C24.8208 21.2512 24.9924 21.0961 25.1561 20.941C25.3199 20.7851 25.4656 20.6425 25.5949 20.5116C25.6317 20.4732 25.6756 20.4458 25.7257 20.4301C25.7758 20.4137 25.8197 20.4058 25.8565 20.4058C25.9482 20.4058 26.025 20.4442 26.0845 20.5202C26.1441 20.5962 26.1739 20.6973 26.1739 20.8227C26.1739 20.937 26.1417 21.0655 26.0775 21.2074C26.0132 21.3492 25.9004 21.4886 25.739 21.6242C25.4444 21.9462 25.1475 22.251 24.8482 22.5401C24.5489 22.8292 24.2512 23.0838 23.9542 23.3047C23.6573 23.5257 23.3627 23.7012 23.0705 23.8328C22.7782 23.9636 22.4938 24.0287 22.2173 24.0287C22.0284 24.0287 21.871 23.9989 21.744 23.9386C21.6171 23.8782 21.516 23.7968 21.44 23.6933C21.364 23.5899 21.31 23.4669 21.2779 23.3251C21.2457 23.1833 21.2293 23.0337 21.2293 22.8754C21.2293 22.6082 21.263 22.334 21.3296 22.0535C21.3962 21.773 21.4753 21.5153 21.5678 21.281C21.7291 20.8556 21.8921 20.4333 22.0582 20.0133C22.2235 19.5934 22.3755 19.2087 22.5142 18.86L24.6061 13.584C24.6892 13.3717 24.8004 13.2213 24.9414 13.1343C25.0817 13.0474 25.2235 13.0035 25.3661 13.0035C25.5087 13.0035 25.6387 13.0497 25.7563 13.1422C25.8738 13.2346 25.9325 13.385 25.9325 13.5919C25.9325 13.6898 25.913 13.794 25.8738 13.9029C25.8346 14.0118 25.7852 14.1294 25.7257 14.2547C25.6105 14.5109 25.4734 14.8243 25.3152 15.1949C25.1561 15.5655 24.9861 15.969 24.8043 16.4054C24.6226 16.8418 24.4361 17.2954 24.2449 17.7671C24.0537 18.2387 23.8673 18.6979 23.6855 19.1452C23.5037 19.5926 23.3337 20.0165 23.1747 20.4168C23.0141 20.818 22.877 21.1658 22.7626 21.4604Z" fill="white"/>
<path d="M32.5475 19.9796C32.6117 19.9358 32.6721 19.9005 32.7269 19.8731C32.7818 19.8457 32.835 19.8323 32.886 19.8323C32.987 19.8323 33.063 19.8778 33.114 19.9671C33.1649 20.0572 33.19 20.1677 33.19 20.2985C33.19 20.4403 33.1594 20.5845 33.0967 20.7318C33.0348 20.8791 32.9416 21.0013 32.817 21.1C32.3242 21.5364 31.8847 21.9344 31.4984 22.294C31.1114 22.6537 30.7471 22.9631 30.4039 23.2225C30.0607 23.4818 29.7262 23.6816 29.3995 23.8234C29.0727 23.9652 28.7225 24.0357 28.3496 24.0357C27.9994 24.0357 27.7291 23.9589 27.5379 23.8069C27.3467 23.6542 27.2511 23.4442 27.2511 23.177V23.1159C27.2511 23.0971 27.2535 23.0736 27.2582 23.0462C27.2762 22.8824 27.3483 22.6944 27.4721 22.4821C27.5967 22.2698 27.7463 22.0488 27.921 21.8192C28.0957 21.5897 28.2822 21.3586 28.4804 21.1243C28.6787 20.89 28.8612 20.6675 29.0297 20.4576C29.1973 20.2476 29.3368 20.0556 29.4473 19.8809C29.5577 19.7062 29.6134 19.5652 29.6134 19.4555C29.6134 19.3897 29.5898 19.338 29.5444 19.3003C29.4982 19.262 29.4222 19.2432 29.3164 19.2432C29.1323 19.2432 28.9427 19.2909 28.7468 19.3865C28.5509 19.4821 28.3574 19.6098 28.167 19.7704C27.9759 19.931 27.7894 20.1152 27.6076 20.3228C27.4259 20.5304 27.2558 20.7451 27.0968 20.9692C26.9378 21.1932 26.7928 21.4173 26.662 21.6437C26.5311 21.8702 26.4191 22.0786 26.3274 22.2698C26.3 22.3301 26.2608 22.4147 26.2099 22.5236C26.159 22.6325 26.1041 22.7555 26.0446 22.8918C25.9843 23.0282 25.9216 23.1684 25.8542 23.3126C25.7876 23.4575 25.7265 23.5938 25.6716 23.7215C25.616 23.85 25.5667 23.9636 25.5228 24.0655C25.4789 24.1666 25.4476 24.2355 25.4295 24.2739C25.406 24.3233 25.3684 24.4157 25.3152 24.552C25.2619 24.6884 25.2016 24.8474 25.1318 25.0307C25.0629 25.2133 24.99 25.4053 24.9148 25.6074C24.8388 25.8095 24.7675 25.9999 24.7009 26.1801C24.6343 26.3603 24.5755 26.5178 24.5246 26.6541C24.4737 26.7905 24.4416 26.8829 24.4275 26.9323C24.3812 27.0741 24.3272 27.2073 24.2653 27.3334C24.2034 27.4588 24.1321 27.5692 24.0514 27.6648C23.9707 27.7604 23.879 27.8364 23.7748 27.8936C23.6714 27.9508 23.5547 27.979 23.4262 27.979C23.2601 27.979 23.1238 27.939 23.0148 27.8607C22.9067 27.7816 22.8527 27.6304 22.8527 27.4071C22.8527 27.2982 22.8668 27.1861 22.8942 27.0717C22.9216 26.9573 22.9569 26.8437 22.9976 26.7325C23.0391 26.6204 23.0814 26.5115 23.1253 26.4058C23.1692 26.2992 23.2092 26.1974 23.246 26.0986C23.4943 25.5533 23.7482 25.0065 24.006 24.4588C24.2637 23.9104 24.5113 23.3682 24.7479 22.8307C24.9853 22.294 25.2047 21.766 25.4076 21.2481C25.6097 20.7302 25.7782 20.2335 25.9114 19.7595C25.9482 19.6615 25.9991 19.5221 26.0634 19.3419C26.1276 19.1617 26.2013 18.9846 26.2843 18.8099C26.3674 18.6352 26.4606 18.484 26.564 18.3562C26.6675 18.2278 26.7795 18.1643 26.8986 18.1643C27.0827 18.1643 27.2159 18.2066 27.2989 18.2912C27.382 18.3758 27.4235 18.4996 27.4235 18.6634C27.4235 18.6963 27.4188 18.748 27.4094 18.8185C27.4 18.889 27.3883 18.9642 27.3749 19.0434C27.3608 19.1225 27.346 19.1977 27.3303 19.2682C27.3138 19.3387 27.2989 19.3904 27.2856 19.4234C27.4556 19.2377 27.6398 19.0543 27.838 18.871C28.0362 18.6884 28.2407 18.5231 28.453 18.3758C28.6646 18.2285 28.8808 18.1087 29.1017 18.0154C29.3227 17.923 29.5436 17.8768 29.7646 17.8768C29.9166 17.8768 30.067 17.8987 30.2166 17.9426C30.3663 17.9864 30.4995 18.0499 30.617 18.1345C30.7345 18.2191 30.8301 18.3257 30.9038 18.4534C30.9774 18.5819 31.0142 18.73 31.0142 18.8992C31.0142 19.1233 30.9578 19.3615 30.845 19.6153C30.7322 19.8692 30.5904 20.1238 30.4203 20.38C30.2495 20.6362 30.0654 20.8861 29.868 21.1282C29.6698 21.3711 29.4849 21.592 29.3117 21.791C29.1393 21.99 28.9944 22.1593 28.8769 22.298C28.7594 22.4374 28.6982 22.5314 28.6935 22.58C28.6935 22.6458 28.7147 22.6983 28.7554 22.7398C28.7962 22.7814 28.8659 22.801 28.9631 22.801C29.0414 22.801 29.1566 22.7571 29.3086 22.6701C29.4606 22.5831 29.6737 22.4319 29.9471 22.2165C30.2206 22.001 30.5684 21.7119 30.9899 21.3492C31.4114 20.9872 31.9309 20.5304 32.5475 19.9796Z" fill="white"/>
</svg>
