<svg width="40" height="40" viewBox="0 0 40 40" fill="none" xmlns="http://www.w3.org/2000/svg">
<g clip-path="url(#clip0_1_382)">
<path d="M39.5161 18.8804L21.7221 1.66786L19.9978 0L6.6029 12.9571L0.4777 18.8804C0.171749 19.1778 0 19.5804 0 20C0 20.4196 0.171749 20.8222 0.4777 21.1196L12.7152 32.9571L19.9978 40L33.3909 27.0429L33.5996 26.8429L39.5161 21.1286C39.6695 20.9813 39.7912 20.8062 39.8742 20.6133C39.9572 20.4204 40 20.2134 40 20.0045C40 19.7955 39.9572 19.5886 39.8742 19.3956C39.7912 19.2027 39.6695 19.0276 39.5161 18.8804ZM19.9978 25.9143L13.8837 20L19.9978 14.0857L26.1101 20L19.9978 25.9143Z" fill="#2684FF"/>
<path d="M19.9978 14.0857C18.075 12.2261 16.991 9.70598 16.9827 7.07581C16.9744 4.44563 18.0424 1.91915 19.9535 0.0482178L6.5752 12.9839L13.856 20.0268L19.9978 14.0857Z" fill="url(#paint0_linear_1_382)"/>
<path d="M26.1267 19.9839L19.9978 25.9143C21.928 27.7819 23.0123 30.3145 23.0123 32.9553C23.0123 35.5962 21.928 38.1288 19.9978 39.9964L33.4131 27.0268L26.1267 19.9839Z" fill="url(#paint1_linear_1_382)"/>
</g>
<defs>
<linearGradient id="paint0_linear_1_382" x1="18.9031" y1="8.10179" x2="10.6487" y2="16.6333" gradientUnits="userSpaceOnUse">
<stop offset="0.18" stop-color="#0052CC"/>
<stop offset="1" stop-color="#2684FF"/>
</linearGradient>
<linearGradient id="paint1_linear_1_382" x1="21.1645" y1="31.8268" x2="29.4029" y2="23.3119" gradientUnits="userSpaceOnUse">
<stop offset="0.18" stop-color="#0052CC"/>
<stop offset="1" stop-color="#2684FF"/>
</linearGradient>
</defs>
</svg>
