<svg viewBox="0 0 40 40" fill="none" xmlns="http://www.w3.org/2000/svg">
<path d="M8.67437 6.38157C6.37687 9.68313 6.66281 13.9791 8.41812 17.4878L8.54656 17.7372L8.62875 17.8953L8.68 17.9863L8.77156 18.15C8.82594 18.2459 8.88187 18.3413 8.93906 18.4372L9.03469 18.5947C9.09812 18.6966 9.16281 18.7978 9.22906 18.8988L9.31187 19.0266C9.40344 19.1631 9.49687 19.2991 9.59344 19.4331L9.60156 19.4434L9.64906 19.5075C9.7325 19.6225 9.81844 19.7363 9.90562 19.8491L10.0022 19.9719C10.08 20.0697 10.1591 20.1666 10.2394 20.2638L10.33 20.3719C10.4378 20.4988 10.5481 20.6256 10.6603 20.7494L10.6669 20.7563L10.6797 20.7703C10.7894 20.89 10.9016 21.0072 11.0156 21.1244L11.1231 21.2328C11.2113 21.3216 11.3009 21.4088 11.3912 21.4956L11.5009 21.6C11.6219 21.7138 11.7437 21.8256 11.8684 21.9344L11.8741 21.9394L11.9381 21.9938C12.0478 22.0891 12.1594 22.1828 12.2719 22.2756L12.41 22.3859C12.5019 22.4594 12.5947 22.5322 12.6881 22.6034L12.8372 22.7163C12.9403 22.7922 13.0444 22.8669 13.1494 22.9403L13.2628 23.0209L13.2944 23.0434C13.3937 23.1122 13.4959 23.1781 13.5975 23.2441L13.7287 23.3316C13.885 23.43 14.0434 23.5278 14.2034 23.6222L14.3347 23.6963C14.4525 23.7641 14.5709 23.8309 14.6909 23.8959L14.8881 23.9978L15.1431 24.1303L15.2019 24.1588L15.3062 24.2091C15.4397 24.2728 15.5744 24.3356 15.7103 24.3963L15.7956 24.4344C15.9513 24.5025 16.1084 24.5678 16.2669 24.6306L16.3819 24.6756C16.5284 24.7325 16.6772 24.7878 16.8266 24.8403L16.8825 24.8597C17.0462 24.9172 17.2119 24.97 17.3784 25.0222L17.4981 25.0578C17.6675 25.1091 17.8353 25.1697 18.01 25.2022C29.1203 27.2281 32.3475 18.5259 32.3475 18.5259C29.6369 22.0572 24.8259 22.9884 20.2675 21.9516C20.0947 21.9125 19.9272 21.8584 19.7587 21.8091L19.6319 21.7703C19.4675 21.72 19.3041 21.6672 19.1419 21.6109L19.0747 21.5869C18.9294 21.5356 18.7859 21.4819 18.6428 21.4266L18.5216 21.3791C18.365 21.3172 18.2091 21.2525 18.0553 21.1853L17.9622 21.1438C17.83 21.0841 17.6991 21.0238 17.5688 20.9609L17.455 20.9063C17.3528 20.8566 17.2519 20.8038 17.1506 20.7516L16.9478 20.645C16.8244 20.5794 16.7034 20.5106 16.5831 20.4406L16.46 20.3722C16.2997 20.2775 16.1416 20.18 15.985 20.0809L15.8569 19.9956C15.7434 19.9225 15.6303 19.8478 15.5191 19.7709L15.41 19.6944C15.3025 19.6188 15.1959 19.5416 15.0906 19.4638L14.9491 19.3566C14.8522 19.2825 14.7559 19.2078 14.6609 19.1313L14.5325 19.0281C14.4113 18.9288 14.2916 18.8281 14.1734 18.7253L14.1341 18.6925C14.0062 18.5803 13.8806 18.465 13.7566 18.3494L13.6503 18.2469C13.5584 18.1597 13.4678 18.0716 13.3791 17.9809L13.2728 17.8747C13.1597 17.7591 13.0487 17.6419 12.94 17.5228L12.9234 17.505C12.8084 17.3794 12.6959 17.2509 12.5859 17.1209L12.4975 17.0159C12.4153 16.9172 12.3341 16.8166 12.2547 16.7156L12.1656 16.6047C12.0697 16.4806 11.9766 16.3569 11.885 16.2313C9.35438 12.7791 8.445 8.01782 10.4678 4.10782M15.8056 3.59969C14.1444 5.99032 14.2344 9.19125 15.5306 11.7194C15.7478 12.1431 15.9922 12.5547 16.2653 12.9459C16.5141 13.3031 16.7903 13.7275 17.1206 14.0141C17.2403 14.1459 17.3656 14.2747 17.4934 14.4009L17.5916 14.4981C17.7156 14.6184 17.8419 14.7369 17.9722 14.8519L17.9878 14.8653L17.9916 14.8691C18.1359 14.9956 18.285 15.1172 18.4362 15.2372L18.5372 15.3159C18.6891 15.4322 18.8438 15.5466 19.0025 15.6556L19.0159 15.6659L19.2284 15.8056L19.3291 15.8722C19.4425 15.945 19.5572 16.0156 19.6741 16.0834L19.7228 16.1122C19.8234 16.17 19.9253 16.2269 20.0275 16.2825L20.1359 16.3388L20.3491 16.4494L20.3813 16.4641C20.5278 16.5359 20.6753 16.6056 20.8262 16.6713L20.9244 16.7119C21.045 16.7628 21.1666 16.8128 21.2891 16.8597L21.4453 16.9172C21.5566 16.9584 21.6678 16.9963 21.7803 17.0338L21.9316 17.0822C22.0912 17.1316 22.2494 17.1944 22.4156 17.2222C30.9938 18.6431 32.9741 12.0384 32.9741 12.0384C31.1891 14.6097 27.7319 15.8363 24.0428 14.8788C23.8791 14.8356 23.7172 14.7888 23.5569 14.7384L23.4109 14.6913C23.2969 14.6547 23.1834 14.6153 23.0713 14.5744L22.9178 14.5172C22.7947 14.4697 22.6728 14.4206 22.5519 14.3694L22.4534 14.3278C22.3019 14.2619 22.1528 14.1922 22.0059 14.1197L21.7816 14.0056L21.6522 13.9391C21.5566 13.8872 21.4616 13.8334 21.3681 13.7784L21.3003 13.74C21.1841 13.6722 21.0697 13.6025 20.9566 13.53L20.8528 13.4609L20.6303 13.3134C20.4722 13.2044 20.3181 13.0903 20.1666 12.9744L20.0622 12.8919C18.4475 11.6172 17.1675 9.87469 16.5591 7.89907C15.9212 5.85 16.0588 3.55 17.1637 1.68313M21.8034 1.52125C20.8241 2.9625 20.7278 4.75281 21.4075 6.34469C22.1241 8.03438 23.5925 9.35969 25.3066 9.98844L25.5197 10.0619L25.6134 10.0919C25.7144 10.1238 25.8147 10.1606 25.9191 10.18C30.6556 11.0953 31.9403 7.74969 32.2822 7.25688C31.1569 8.87719 29.2656 9.26625 26.945 8.70282C26.7619 8.65844 26.5603 8.59219 26.3838 8.52938C26.1572 8.44844 25.9341 8.35657 25.7169 8.2525C25.305 8.05438 24.9122 7.81438 24.5478 7.53938C22.4713 5.96375 21.1816 2.95844 22.5366 0.510628" fill="#0868AC"/>
<path d="M20.7372 30.0922H19.4166C19.3434 30.0922 19.2706 30.1509 19.255 30.2225L18.7863 32.3913L18.3175 34.56C18.3022 34.6316 18.2294 34.6903 18.1562 34.6903H17.2216C16.2969 34.6903 16.4038 34.0506 16.5931 33.1744L16.5988 33.1478L16.6194 33.0372L16.6231 33.0166L16.6653 32.7916L16.7106 32.5506L16.7587 32.3053L16.9719 31.2641L17.1853 30.2228C17.2 30.1509 17.1519 30.0919 17.0788 30.0919H15.7234C15.6503 30.0919 15.5778 30.1506 15.5628 30.2225L15.2712 31.605L14.98 32.9878L14.9794 32.9897L14.9525 33.1184C14.6169 34.6506 14.7056 36.1122 16.53 36.1581L16.5831 36.1591H19.4466C19.5197 36.1591 19.5925 36.1003 19.6078 36.0288L20.2253 33.1259L20.8428 30.2228C20.8581 30.1509 20.8106 30.0925 20.7372 30.0922ZM6.59469 30.0769H5.14469C5.07125 30.0769 4.99812 30.1356 4.98187 30.2069L4.84437 30.8137L4.70687 31.4206C4.69094 31.4922 4.7375 31.5506 4.81094 31.5506H6.27219C6.34562 31.5506 6.41844 31.4919 6.43406 31.4203L6.56687 30.8137L6.69969 30.2072C6.715 30.1356 6.66812 30.0769 6.59469 30.0769ZM6.17406 31.9656H4.7125C4.63937 31.9656 4.56594 32.0244 4.54969 32.0956L4.34437 33.005L4.13937 33.9141L4.08219 34.1747L3.885 35.1028L3.68812 36.0313C3.67281 36.1028 3.64125 36.2184 3.61781 36.2878C3.61781 36.2878 3.34469 37.1003 2.88562 37.0909L2.82812 37.0897L2.43094 37.0825H2.43062C2.3575 37.0816 2.28406 37.1388 2.26687 37.2097L2.11531 37.8469L1.96406 38.4838C1.94687 38.555 1.99312 38.6138 2.06594 38.615C2.32625 38.6181 2.90937 38.6247 3.26219 38.6247C4.40875 38.6247 5.01344 37.9894 5.40062 36.1613L5.85406 34.0631L6.27937 32.0953C6.29469 32.0244 6.24719 31.9656 6.17406 31.9656ZM33.0856 31.4738L33.025 31.2234L32.9653 30.9672L32.935 30.8378C32.8162 30.3763 32.4678 30.1103 31.7109 30.1103L30.5328 30.1091L29.4478 30.1075H28.2269C28.1537 30.1075 28.0812 30.1663 28.0659 30.2378L28.0119 30.4928L27.9481 30.7941L27.9303 30.8787L27.3806 33.4538L26.8587 35.8981C26.8431 35.97 26.8381 36.0581 26.8469 36.0938C26.8556 36.1297 26.9966 36.1591 27.0697 36.1591H28.1709C28.2444 36.1591 28.3372 36.1459 28.3772 36.1297C28.4172 36.1134 28.4762 35.9694 28.4909 35.8978L28.6866 34.9294L28.8825 33.9606L28.8828 33.9591L28.9091 33.83L29.1466 32.7175L29.3563 31.735C29.3719 31.6634 29.4441 31.605 29.5172 31.6047L32.9825 31.6031C33.0559 31.6037 33.1022 31.5453 33.0856 31.4738ZM37.5466 29.2113L37.2797 29.2122H36.1706C36.0972 29.2122 36.0031 29.2619 35.9622 29.3225L33.5094 32.9156C33.4681 32.9763 33.4209 32.9675 33.4047 32.8963L33.2241 32.1047C33.2078 32.0331 33.1344 31.9747 33.0609 31.9747H31.4844C31.4109 31.9747 31.3675 32.0322 31.3875 32.1025L32.0941 34.5778C32.1141 34.6484 32.1156 34.7641 32.0975 34.8353L31.7897 36.0331C31.7712 36.1044 31.8162 36.1622 31.8897 36.1622H33.4481C33.5212 36.1622 33.5963 36.1041 33.6144 36.0331L33.9225 34.8353C33.9406 34.7638 33.9916 34.6581 34.0359 34.5994L38.0178 29.3147C38.0622 29.2559 38.0381 29.2081 37.965 29.2088L37.5466 29.2113ZM25.0197 32.3109V32.3097C25.0106 32.3891 24.9372 32.4475 24.8638 32.4475H22.8647C22.7953 32.4475 22.7603 32.4006 22.7706 32.3425L22.7725 32.3378L22.7712 32.3384L22.7722 32.3319L22.7812 32.2978C22.9722 31.7903 23.3609 31.4572 24.0919 31.4572C24.915 31.4569 25.0756 31.8587 25.0197 32.3109ZM24.4331 30.0034C21.8672 30.0034 21.2591 31.5609 20.9178 33.1331C20.5769 34.7356 20.6059 36.2334 23.2616 36.2334H23.5834L23.6634 36.2331H23.6822L24.0009 36.2322H24.0066C24.7078 36.2294 25.4112 36.2241 25.6959 36.2219C25.7687 36.2206 25.84 36.1622 25.855 36.0906L25.9625 35.5653L25.9834 35.4631L26.1116 34.8363C26.1262 34.7647 26.0784 34.7056 26.005 34.7056H23.6178C22.6681 34.7056 22.3862 34.4534 22.4903 33.7116H26.3062L26.3059 33.7119L26.3084 33.7116C26.3691 33.7106 26.4253 33.6687 26.4475 33.6131L26.4566 33.58L26.4562 33.5803C27.0228 31.4431 26.8603 30.0038 24.4331 30.0034ZM12.305 32.3028L12.2687 32.4306V32.4309L11.9806 33.4522L11.6925 34.4731C11.6728 34.5441 11.5962 34.6016 11.5228 34.6016H9.99781C8.84094 34.6016 8.55906 33.6966 8.84094 32.3622C9.1225 30.9972 9.67469 30.1487 10.8134 30.0628C12.3697 29.9453 12.6809 31.0397 12.305 32.3028ZM13.3512 34.5231C13.3512 34.5231 14.0703 32.7769 14.2334 31.7688C14.4563 30.4191 13.7803 28.4609 11.1697 28.4609C8.57406 28.4609 7.44656 30.33 7.01656 32.3622C6.58656 34.4091 7.15 36.2038 9.73094 36.1891L11.7672 36.1816L13.67 36.1747C13.7431 36.1741 13.8181 36.1159 13.8369 36.0453L14.1684 34.7809C14.1869 34.7097 14.1422 34.6516 14.0688 34.6509L13.7509 34.6491L13.4331 34.6472C13.3709 34.6469 13.3353 34.6063 13.3428 34.5528L13.3512 34.5231ZM26.2013 33.3541C26.2013 33.4025 26.1622 33.4419 26.1138 33.4419C26.0656 33.4419 26.0262 33.4025 26.0262 33.3541C26.0262 33.3059 26.0653 33.2669 26.1138 33.2669C26.1622 33.2669 26.2013 33.3059 26.2013 33.3541Z" fill="white"/>
</svg>