<svg width="40" height="40" viewBox="0 0 40 40" fill="none" xmlns="http://www.w3.org/2000/svg">
<path d="M7.08333 0H32.9167C36.8333 0 40 3.24786 40 7.26496V32.735C40 36.7521 36.8333 40 32.9167 40H7.08333C3.16667 40 0 36.7521 0 32.735V7.26496C0 3.24786 3.16667 0 7.08333 0Z" fill="#001E36"/>
<path d="M9 28.4333V11.2833C9 11.1667 9.05 11.1 9.16667 11.1C9.45 11.1 9.71667 11.1 10.1 11.0833C10.5 11.0667 10.9167 11.0667 11.3667 11.05C11.8167 11.0333 12.3 11.0333 12.8167 11.0167C13.3333 11 13.8333 11 14.3333 11C15.7 11 16.8333 11.1667 17.7667 11.5167C18.6 11.8 19.3667 12.2667 20 12.8833C20.5333 13.4167 20.95 14.0667 21.2167 14.7833C21.4667 15.4833 21.6 16.2 21.6 16.95C21.6 18.3833 21.2667 19.5667 20.6 20.5C19.9333 21.4333 19 22.1333 17.9167 22.5333C16.7833 22.95 15.5333 23.1 14.1667 23.1C13.7667 23.1 13.5 23.1 13.3333 23.0833C13.1667 23.0667 12.9333 23.0667 12.6167 23.0667V28.4167C12.6333 28.5333 12.55 28.6333 12.4333 28.65C12.4167 28.65 12.4 28.65 12.3667 28.65H9.2C9.06667 28.65 9 28.5833 9 28.4333ZM12.6333 14.3167V19.9167C12.8667 19.9333 13.0833 19.95 13.2833 19.95H14.1667C14.8167 19.95 15.4667 19.85 16.0833 19.65C16.6167 19.5 17.0833 19.1833 17.45 18.7667C17.8 18.35 17.9667 17.7833 17.9667 17.05C17.9833 16.5333 17.85 16.0167 17.5833 15.5667C17.3 15.1333 16.9 14.8 16.4167 14.6167C15.8 14.3667 15.1333 14.2667 14.45 14.2833C14.0167 14.2833 13.6333 14.2833 13.3167 14.3C12.9833 14.2833 12.75 14.3 12.6333 14.3167Z" fill="#31A8FF"/>
<path d="M32 18.9C31.5 18.6333 30.9667 18.45 30.4 18.3333C29.7833 18.2 29.1667 18.1167 28.5333 18.1167C28.2 18.1 27.85 18.15 27.5333 18.2333C27.3167 18.2833 27.1333 18.4 27.0167 18.5667C26.9333 18.7 26.8833 18.8667 26.8833 19.0167C26.8833 19.1667 26.95 19.3167 27.05 19.45C27.2 19.6333 27.4 19.7833 27.6167 19.9C28 20.1 28.4 20.2833 28.8 20.45C29.7 20.75 30.5667 21.1667 31.3667 21.6667C31.9167 22.0167 32.3667 22.4833 32.6833 23.05C32.95 23.5833 33.0833 24.1667 33.0667 24.7667C33.0833 25.55 32.85 26.3333 32.4167 26.9833C31.95 27.65 31.3 28.1667 30.55 28.4667C29.7333 28.8167 28.7333 29 27.5333 29C26.7667 29 26.0167 28.9333 25.2667 28.7833C24.6833 28.6833 24.1 28.5 23.5667 28.25C23.45 28.1833 23.3667 28.0667 23.3833 27.9333V25.0333C23.3833 24.9833 23.4 24.9167 23.45 24.8833C23.5 24.85 23.55 24.8667 23.6 24.9C24.25 25.2833 24.9333 25.55 25.6667 25.7167C26.3 25.8833 26.9667 25.9667 27.6333 25.9667C28.2667 25.9667 28.7167 25.8833 29.0167 25.7333C29.2833 25.6167 29.4667 25.3333 29.4667 25.0333C29.4667 24.8 29.3333 24.5833 29.0667 24.3667C28.8 24.15 28.25 23.9 27.4333 23.5833C26.5833 23.2833 25.8 22.8833 25.0667 22.3833C24.55 22.0167 24.1167 21.5333 23.8 20.9667C23.5333 20.4333 23.4 19.85 23.4167 19.2667C23.4167 18.55 23.6167 17.8667 23.9833 17.25C24.4 16.5833 25.0167 16.05 25.7333 15.7167C26.5167 15.3167 27.5 15.1333 28.6833 15.1333C29.3667 15.1333 30.0667 15.1833 30.75 15.2833C31.25 15.35 31.7333 15.4833 32.1833 15.6667C32.25 15.6833 32.3167 15.75 32.35 15.8167C32.3667 15.8833 32.3833 15.95 32.3833 16.0167V18.7333C32.3833 18.8 32.35 18.8667 32.3 18.9C32.15 18.9333 32.0667 18.9333 32 18.9Z" fill="#31A8FF"/>
</svg>
