<svg width="40" height="40" viewBox="0 0 40 40" fill="none" xmlns="http://www.w3.org/2000/svg">
<path d="M40 19.8141C40 17.1644 36.6816 14.6533 31.594 13.0961C32.768 7.91085 32.2462 3.78548 29.947 2.46471C29.417 2.1549 28.7974 2.00815 28.1207 2.00815V3.82625C28.4957 3.82625 28.7974 3.89962 29.0501 4.03822C30.159 4.67415 30.64 7.09556 30.265 10.21C30.1753 10.9763 30.0285 11.7835 29.8492 12.6069C28.2511 12.2156 26.5063 11.9139 24.6718 11.7183C23.5711 10.21 22.4297 8.84028 21.2801 7.6418C23.938 5.17148 26.4329 3.8181 28.1288 3.8181V2C25.8867 2 22.9515 3.59797 19.9837 6.36995C17.0159 3.61427 14.0807 2.03261 11.8386 2.03261V3.85071C13.5263 3.85071 16.0294 5.19594 18.6873 7.64996C17.5459 8.84843 16.4044 10.21 15.32 11.7183C13.4774 11.9139 11.7326 12.2156 10.1345 12.6151C9.947 11.7998 9.8084 11.0089 9.71056 10.2507C9.32735 7.13632 9.80025 4.71491 10.9009 4.07084C11.1455 3.92408 11.4635 3.85886 11.8386 3.85886V2.04076C11.1537 2.04076 10.534 2.18752 9.99592 2.49733C7.70485 3.8181 7.19119 7.93531 8.37342 13.1042C3.30208 14.6696 0 17.1725 0 19.8141C0 22.4638 3.31838 24.9749 8.40603 26.5321C7.23196 31.7173 7.75377 35.8427 10.053 37.1634C10.583 37.4732 11.2026 37.62 11.8875 37.62C14.1296 37.62 17.0648 36.022 20.0326 33.25C23.0004 36.0057 25.9356 37.5874 28.1777 37.5874C28.8626 37.5874 29.4823 37.4406 30.0204 37.1308C32.3115 35.8101 32.8251 31.6928 31.6429 26.5239C36.6979 24.9667 40 22.4556 40 19.8141ZM29.3844 14.3761C29.0828 15.4278 28.7077 16.5122 28.2837 17.5965C27.9494 16.9443 27.5989 16.292 27.2157 15.6398C26.8406 14.9876 26.4411 14.3516 26.0416 13.732C27.1994 13.9032 28.3163 14.1152 29.3844 14.3761ZM25.6502 23.0589C25.0143 24.1596 24.362 25.2031 23.6853 26.1733C22.4704 26.2793 21.2393 26.3364 20 26.3364C18.7689 26.3364 17.5377 26.2793 16.331 26.1815C15.6543 25.2113 14.9939 24.1759 14.3579 23.0834C13.7383 22.0154 13.1757 20.931 12.662 19.8385C13.1676 18.746 13.7383 17.6536 14.3498 16.5855C14.9857 15.4849 15.638 14.4413 16.3147 13.4711C17.5296 13.3651 18.7607 13.3081 20 13.3081C21.2311 13.3081 22.4623 13.3651 23.669 13.463C24.3457 14.4332 25.0061 15.4686 25.6421 16.5611C26.2617 17.6291 26.8243 18.7134 27.338 19.8059C26.8243 20.8984 26.2617 21.9909 25.6502 23.0589ZM28.2837 21.9991C28.724 23.0915 29.0991 24.184 29.4089 25.2439C28.3408 25.5048 27.2157 25.7249 26.0497 25.8961C26.4492 25.2684 26.8488 24.6243 27.2238 23.9639C27.5989 23.3117 27.9494 22.6513 28.2837 21.9991ZM20.0163 30.6982C19.2581 29.9155 18.4998 29.0432 17.7497 28.0893C18.4835 28.1219 19.2336 28.1463 19.9918 28.1463C20.7583 28.1463 21.5165 28.13 22.2585 28.0893C21.5247 29.0432 20.7664 29.9155 20.0163 30.6982ZM13.9503 25.8961C12.7925 25.7249 11.6755 25.5129 10.6074 25.2521C10.9091 24.2003 11.2841 23.116 11.7081 22.0317C12.0424 22.6839 12.393 23.3361 12.7762 23.9884C13.1594 24.6406 13.5508 25.2765 13.9503 25.8961ZM19.9755 8.92996C20.7338 9.71264 21.4921 10.585 22.2422 11.5389C21.5084 11.5063 20.7583 11.4818 20 11.4818C19.2336 11.4818 18.4753 11.4981 17.7334 11.5389C18.4672 10.585 19.2254 9.71264 19.9755 8.92996ZM13.9421 13.732C13.5426 14.3598 13.1431 15.0039 12.768 15.6643C12.393 16.3165 12.0424 16.9687 11.7081 17.6209C11.2678 16.5285 10.8928 15.436 10.583 14.3761C11.651 14.1234 12.7762 13.9032 13.9421 13.732ZM6.56339 23.9394C3.67713 22.7084 1.81003 21.0941 1.81003 19.8141C1.81003 18.5341 3.67713 16.9116 6.56339 15.6887C7.26458 15.3871 8.03098 15.118 8.82185 14.8653C9.28659 16.4632 9.89808 18.1264 10.6563 19.8304C9.90624 21.5262 9.3029 23.1812 8.84631 24.771C8.03914 24.5183 7.27273 24.2411 6.56339 23.9394ZM10.9499 35.5899C9.84101 34.954 9.35997 32.5326 9.73502 29.4182C9.82471 28.6518 9.97147 27.8447 10.1508 27.0212C11.7489 27.4126 13.4937 27.7142 15.3282 27.9099C16.4289 29.4182 17.5703 30.7879 18.7199 31.9863C16.062 34.4567 13.5671 35.8101 11.8712 35.8101C11.5043 35.8019 11.1945 35.7285 10.9499 35.5899ZM30.2894 29.3774C30.6726 32.4918 30.1998 34.9132 29.0991 35.5573C28.8545 35.7041 28.5365 35.7693 28.1614 35.7693C26.4737 35.7693 23.9707 34.4241 21.3127 31.97C22.4541 30.7716 23.5956 29.41 24.68 27.9017C26.5226 27.7061 28.2674 27.4044 29.8655 27.0049C30.053 27.8284 30.1998 28.6192 30.2894 29.3774ZM33.4285 23.9394C32.7273 24.2411 31.9609 24.5101 31.17 24.7629C30.7053 23.1649 30.0938 21.5017 29.3355 19.7978C30.0856 18.102 30.689 16.4469 31.1455 14.8571C31.9527 15.1099 32.7191 15.3871 33.4366 15.6887C36.3229 16.9198 38.19 18.5341 38.19 19.8141C38.1818 21.0941 36.3147 22.7165 33.4285 23.9394Z" fill="#53C1DE"/>
<path d="M19.9919 23.54C22.0497 23.54 23.7179 21.8718 23.7179 19.8141C23.7179 17.7563 22.0497 16.0882 19.9919 16.0882C17.934 16.0882 16.2658 17.7563 16.2658 19.8141C16.2658 21.8718 17.934 23.54 19.9919 23.54Z" fill="#53C1DE"/>
</svg>
