<svg width="40" height="40" viewBox="0 0 40 40" fill="none" xmlns="http://www.w3.org/2000/svg">
<path d="M27.7158 27.5179C29.1919 27.3652 30.3117 26.0928 30.2608 24.5658C30.21 23.0389 28.9373 21.8173 27.4103 21.8173H27.3086C25.7305 21.8682 24.5089 23.1915 24.5598 24.7693C24.6108 25.5328 24.9161 26.1945 25.3742 26.6526C23.6436 30.0628 20.9967 32.5568 17.0264 34.6436C14.3286 36.0687 11.5291 36.5778 8.72953 36.2215C6.4389 35.9161 4.65734 34.8983 3.53734 33.2184C1.90859 30.7245 1.75594 28.0268 3.13031 25.3293C4.0975 23.3951 5.62437 21.9699 6.59156 21.2574C6.38797 20.5957 6.0825 19.476 5.92984 18.6617C-1.45094 24.006 -0.687346 31.2335 1.55234 34.6436C3.23203 37.1886 6.6425 38.7664 10.4092 38.7664C11.4272 38.7664 12.4452 38.6646 13.4633 38.4102C19.9787 37.1377 24.9162 33.2694 27.7158 27.5179ZM36.6745 21.2066C32.8059 16.6766 27.105 14.1827 20.5895 14.1827H19.7752C19.317 13.2665 18.3498 12.6556 17.2809 12.6556H17.1791C15.6012 12.7066 14.3797 14.0299 14.4305 15.6078C14.4814 17.1347 15.7539 18.3563 17.2809 18.3563H17.3827C18.5025 18.3053 19.4697 17.5928 19.8769 16.6257H20.7931C24.6617 16.6257 28.3266 17.7454 31.6353 19.9341C34.1803 21.6137 36.0128 23.8024 37.0308 26.449C37.8961 28.5867 37.8452 30.6735 36.9289 32.4551C35.5037 35.1526 33.1114 36.6287 29.9555 36.6287C27.9194 36.6287 25.9852 36.0178 24.967 35.5597C24.4072 36.0687 23.3891 36.883 22.6764 37.3922C24.8653 38.4101 27.105 38.97 29.2428 38.97C34.1294 38.97 37.7434 36.2723 39.1178 33.5748C40.5939 30.6226 40.492 25.5328 36.6745 21.2066ZM10.8164 28.383C10.8673 29.91 12.1398 31.1315 13.6669 31.1315H13.7687C15.3467 31.0807 16.5683 29.7572 16.5173 28.1794C16.4666 26.6524 15.1939 25.431 13.6669 25.431H13.5652C13.4633 25.431 13.3105 25.431 13.2089 25.4818C11.1219 22.0207 10.2566 18.2544 10.562 14.1825C10.7655 11.1286 11.7836 8.48186 13.5652 6.29318C15.0412 4.40995 17.8917 3.4938 19.8261 3.44302C25.2216 3.34116 27.512 10.0597 27.6648 12.7573C28.3266 12.91 29.4464 13.2663 30.21 13.5208C29.5991 5.27548 24.5089 1 19.6225 1C15.0412 1 10.8164 4.3084 9.13656 9.19459C6.79515 15.7095 8.32218 21.9699 11.1727 26.9071C10.9183 27.2633 10.7655 27.8232 10.8164 28.3832V28.383Z" fill="#764ABC"/>
</svg>
