<svg width="40" height="40" viewBox="0 0 40 40" fill="none" xmlns="http://www.w3.org/2000/svg">
<path d="M12.1978 23.4683C14.2006 23.4683 15.8242 21.8445 15.8242 19.8414C15.8242 17.8384 14.2006 16.2146 12.1978 16.2146C10.195 16.2146 8.57143 17.8384 8.57143 19.8414C8.57143 21.8445 10.195 23.4683 12.1978 23.4683ZM3.62637 30.7221C5.62916 30.7221 7.25275 29.0983 7.25275 27.0952C7.25275 25.0921 5.62916 23.4683 3.62637 23.4683C1.62358 23.4683 0 25.0921 0 27.0952C0 29.0983 1.62358 30.7221 3.62637 30.7221ZM36.3736 30.7221C38.3764 30.7221 40 29.0983 40 27.0952C40 25.0921 38.3764 23.4683 36.3736 23.4683C34.3708 23.4683 32.7473 25.0921 32.7473 27.0952C32.7473 29.0983 34.3708 30.7221 36.3736 30.7221Z" fill="black"/>
<path d="M24.4634 19.9948C24.3474 18.7831 24.2884 17.7745 23.3602 17.0657C22.1848 16.168 20.8533 16.7505 19.2132 16.1584C17.6016 15.7685 16.4062 14.3374 16.4062 12.6317C16.4062 10.626 18.059 9 20.0979 9C21.6079 9 22.9062 9.89192 23.4781 11.1694C24.3533 12.8321 23.7845 14.5242 24.8841 15.3765C26.1862 16.3857 27.9416 15.6467 29.9003 16.6029C30.5297 16.8921 31.0624 17.3509 31.4378 17.9195C31.8132 18.4881 32.0312 19.1665 32.0312 19.895C32.0312 21.6007 30.8359 23.0318 29.2243 23.4217C27.5842 24.0138 26.2527 23.4313 25.0773 24.329C23.7555 25.3385 24.4631 27.0273 23.3858 28.8113C22.7744 29.986 21.5316 30.79 20.0979 30.79C18.059 30.79 16.4062 29.164 16.4062 27.1583C16.4062 25.7013 17.2784 24.4447 18.5372 23.8662C20.4959 22.91 22.2513 23.6491 23.5534 22.6399C24.3045 22.0577 24.4634 21.1595 24.4634 19.9948Z" fill="#D0021B"/>
</svg>
