<svg width="40" height="40" viewBox="0 0 40 40" fill="none" xmlns="http://www.w3.org/2000/svg">
<path d="M34.4309 22.2268C33.0325 22.2347 31.8215 22.5708 30.8059 23.0712C30.4309 22.3286 30.0559 21.6796 29.9935 21.195C29.9232 20.6321 29.8372 20.2881 29.9232 19.6158C30.009 18.9434 30.3997 17.9897 30.3997 17.9115C30.3918 17.8412 30.3136 17.4972 29.509 17.4894C28.7044 17.4816 28.009 17.6457 27.9309 17.8568C27.8528 18.0679 27.6965 18.5526 27.595 19.0529C27.4544 19.7877 25.9856 22.391 25.1497 23.7591C24.8762 23.2275 24.6419 22.7584 24.5949 22.3831C24.5247 21.8203 24.4386 21.4763 24.5247 20.804C24.6106 20.1316 25.0012 19.178 25.0012 19.0998C24.9934 19.0294 24.9153 18.6855 24.1107 18.6776C23.3059 18.6698 22.6107 18.834 22.5326 19.0451C22.4544 19.2561 22.3685 19.7565 22.1966 20.2412C22.0325 20.7259 20.0793 25.0725 19.5715 26.206C19.3137 26.7845 19.0872 27.2458 18.9231 27.5585C18.759 27.8712 18.9153 27.5819 18.8997 27.6132C18.759 27.879 18.6809 28.0275 18.6809 28.0275V28.0354C18.5715 28.2308 18.4544 28.4184 18.3996 28.4184C18.3605 28.4184 18.2824 27.8946 18.4152 27.1755C18.7043 25.6666 19.4074 23.3136 19.3997 23.2276C19.3997 23.1885 19.5324 22.7741 18.9465 22.5631C18.3761 22.352 18.1731 22.7038 18.1261 22.7038C18.0793 22.7038 18.0402 22.8289 18.0402 22.8289C18.0402 22.8289 18.673 20.1788 16.8293 20.1788C15.673 20.1788 14.0793 21.4374 13.2902 22.5866C12.7902 22.8602 11.7277 23.4387 10.6027 24.0563C10.173 24.2908 9.72771 24.541 9.30583 24.7677L9.21997 24.6738C6.9856 22.2894 2.85279 20.6008 3.02466 17.3956C3.08716 16.2307 3.49341 13.1584 10.9622 9.43723C17.0794 6.38836 21.9779 7.22485 22.8294 9.08544C24.0403 11.7434 20.2122 16.6842 13.8529 17.3956C11.431 17.6692 10.1575 16.7311 9.83724 16.3793C9.5013 16.0118 9.45443 15.9962 9.32943 16.0666C9.1263 16.176 9.2513 16.5043 9.32943 16.6998C9.51693 17.1923 10.2982 18.0679 11.6263 18.5057C12.7903 18.8887 15.6341 19.0998 19.0716 17.7708C22.9232 16.2776 25.931 12.1343 25.0482 8.6711C24.1497 5.14536 18.306 3.98835 12.7826 5.95057C9.49341 7.12322 5.93091 8.95254 3.36841 11.3525C0.321536 14.1982 -0.162839 16.6842 0.0402863 17.7161C0.751302 21.3982 5.82154 23.7982 7.85279 25.5728C7.75122 25.6274 7.65747 25.6821 7.57154 25.7291C6.55591 26.2294 2.68872 28.2542 1.71997 30.3962C0.626224 32.8196 1.89185 34.563 2.7356 34.7976C5.34497 35.5246 8.01685 34.2191 9.46216 32.0692C10.8996 29.9194 10.7278 27.1285 10.0637 25.8542L10.0402 25.8073L10.8371 25.3383C11.3528 25.0334 11.8606 24.7519 12.3058 24.5095C12.0559 25.1896 11.8761 25.9949 11.7825 27.1675C11.6731 28.5435 12.2356 30.3258 12.9778 31.0294C13.3059 31.3342 13.6965 31.3421 13.9387 31.3421C14.7981 31.3421 15.1887 30.6306 15.6184 29.7786C16.1497 28.7388 16.6184 27.5349 16.6184 27.5349C16.6184 27.5349 16.0325 30.7949 17.634 30.7949C18.22 30.7949 18.8059 30.0366 19.0715 29.6457V29.6535C19.0715 29.6535 19.0872 29.63 19.1184 29.5753C19.1512 29.5268 19.1825 29.4773 19.2122 29.4269V29.4112C19.4465 29.0047 19.97 28.0744 20.7512 26.5343C21.759 24.5487 22.7278 22.0627 22.7278 22.0627C22.7278 22.0627 22.8215 22.6724 23.1106 23.6731C23.2824 24.2673 23.6574 24.9161 23.9465 25.5493C23.7121 25.8777 23.5715 26.0654 23.5715 26.0654L23.5793 26.0732C23.3919 26.3234 23.1808 26.5892 22.9622 26.8549C22.1653 27.8087 21.2122 28.8954 21.0872 29.2081C20.9387 29.5755 20.97 29.8491 21.259 30.0681C21.47 30.2244 21.845 30.2556 22.2434 30.2244C22.9622 30.1774 23.4622 29.9977 23.7122 29.8882C24.1028 29.7475 24.5481 29.5364 24.9778 29.2237C25.759 28.6453 26.2356 27.8244 26.1887 26.7299C26.1653 26.128 25.97 25.5338 25.7278 24.971C25.7981 24.8694 25.8685 24.7676 25.9387 24.6583C27.1731 22.8523 28.1262 20.8667 28.1262 20.8667C28.1262 20.8667 28.22 21.4765 28.509 22.4772C28.6574 22.9853 28.9544 23.5404 29.22 24.0877C28.0637 25.0336 27.3372 26.1281 27.0872 26.8473C26.6262 28.1763 26.9856 28.7782 27.6653 28.919C27.9699 28.9815 28.4075 28.8408 28.7355 28.7001C29.1418 28.5672 29.634 28.3404 30.0872 28.0043C30.8684 27.4258 31.6184 26.6206 31.5794 25.5339C31.5559 25.0336 31.4231 24.5411 31.2434 24.072C32.2278 23.6655 33.5011 23.431 35.1184 23.6264C38.595 24.0329 39.2825 26.2062 39.1497 27.1131C39.0169 28.02 38.2904 28.5203 38.0481 28.6766C37.8059 28.8251 37.7278 28.8799 37.7512 28.9893C37.7825 29.1536 37.8919 29.1457 38.1028 29.1145C38.3919 29.0675 39.9309 28.3718 39.9934 26.6989C40.0872 24.5488 38.0481 22.2035 34.4309 22.2268ZM7.61841 31.2718C6.46997 32.5305 4.85279 33.0073 4.16529 32.6008C3.4231 32.1708 3.71208 30.3181 5.12622 28.9813C5.9856 28.1682 7.10279 27.4177 7.83716 26.9565C8.00122 26.8549 8.25122 26.7064 8.5481 26.5265C8.59497 26.4953 8.62622 26.4796 8.62622 26.4796C8.68091 26.4484 8.74341 26.4093 8.80591 26.3702C9.32935 28.2777 8.82935 29.9506 7.61841 31.2718ZM16.0168 25.5571C15.6184 26.5343 14.7747 29.0438 14.2668 28.9031C13.8293 28.7858 13.5637 26.8861 14.1808 25.0099C14.4933 24.0639 15.1574 22.9382 15.548 22.5004C16.1809 21.7968 16.8683 21.5623 17.0403 21.8515C17.2434 22.2268 16.2668 24.9474 16.0168 25.5571ZM22.9465 28.8718C22.7747 28.9579 22.6184 29.0203 22.5481 28.9735C22.4934 28.9423 22.6183 28.825 22.6183 28.825C22.6183 28.825 23.4855 27.8947 23.8293 27.4647C24.0246 27.2146 24.259 26.9254 24.509 26.597V26.6908C24.509 27.8164 23.4309 28.5669 22.9465 28.8718ZM28.2902 27.6523C28.1652 27.5585 28.1809 27.2692 28.6027 26.3624C28.7669 26.0028 29.1418 25.4008 29.7902 24.8301C29.8683 25.0646 29.9153 25.2913 29.9074 25.5024C29.8997 26.9096 28.8997 27.4334 28.2902 27.6523Z" fill="#CF649A"/>
</svg>
