<svg width="40" height="40" viewBox="0 0 40 40" fill="none" xmlns="http://www.w3.org/2000/svg">
<path d="M5.23792 36.7804L4.00144 3.83363C3.96059 2.74553 4.79492 1.82337 5.88168 1.75545L33.9052 0.00397623C35.0114 -0.06516 35.9643 0.775532 36.0334 1.88172C36.036 1.92338 36.0372 1.96514 36.0372 2.0069V37.9083C36.0372 39.0167 35.1388 39.9151 34.0305 39.9151C34.0004 39.9151 33.9704 39.9145 33.9404 39.9131L7.15332 38.71C6.11004 38.6632 5.27708 37.8241 5.23792 36.7804Z" fill="#FF4785"/>
<path d="M27.657 4.9062L27.8485 0.302381L31.697 0L31.8628 4.74776C31.8686 4.913 31.7393 5.05164 31.574 5.0574C31.5033 5.05988 31.434 5.03716 31.3783 4.99336L29.8943 3.82425L28.1372 5.15716C28.0054 5.25708 27.8176 5.23128 27.7178 5.09956C27.6756 5.04412 27.6542 4.97572 27.657 4.9062ZM22.7353 15.0445C22.7353 15.8253 27.9945 15.4512 28.7004 14.9027C28.7004 9.5858 25.8475 6.79188 20.6233 6.79188C15.3992 6.79188 12.4722 9.62928 12.4722 13.8854C12.4722 21.298 22.4759 21.44 22.4759 25.4832C22.4759 26.6183 21.9201 27.2922 20.6974 27.2922C19.1043 27.2922 18.4744 26.4785 18.5485 23.712C18.5485 23.1118 12.4722 22.9248 12.2869 23.712C11.8152 30.4162 15.992 32.3498 20.7716 32.3498C25.4029 32.3498 29.0339 29.8812 29.0339 25.4124C29.0339 17.4676 18.882 17.6804 18.882 13.7436C18.882 12.1475 20.0676 11.9347 20.7716 11.9347C21.5126 11.9347 22.8464 12.0653 22.7353 15.0445Z" fill="white"/>
</svg>
