<svg width="40" height="40" viewBox="0 0 40 40" fill="none" xmlns="http://www.w3.org/2000/svg">
<path d="M20 0L37.6767 10V30L20 40L2.32333 30V10L20 0Z" fill="white"/>
<path d="M34.52 29.31L20.5833 37.1933V31.0533L29.2667 26.2767L34.52 29.31ZM35.4733 28.4467V11.96L30.3733 14.9033V25.5L35.4733 28.4467ZM5.42333 29.31L19.36 37.1933V31.0533L10.6767 26.2767L5.42333 29.31ZM4.47 28.4467V11.96L9.57 14.9033V25.5L4.47 28.4467ZM5.06667 10.8933L19.36 2.80667V8.74334L10.2033 13.78L10.1333 13.82L5.06667 10.8933ZM34.8767 10.8933L20.5833 2.80667V8.74334L29.74 13.78L29.81 13.82L34.8767 10.8933Z" fill="#8ED6FB"/>
<path d="M19.36 29.6567L10.7933 24.9467V15.6133L19.36 20.56V29.6567ZM20.5833 29.6567L29.15 24.9467V15.6133L20.5833 20.56V29.6567ZM11.3733 14.5333L19.9733 9.80334L28.5733 14.5333L19.9733 19.5L11.3733 14.5333Z" fill="#1C78C0"/>
</svg>
