<svg width="40" height="40" viewBox="0 0 40 40" fill="none" xmlns="http://www.w3.org/2000/svg">
<path d="M2.84314 19.9995C2.84314 26.7911 6.78983 32.6597 12.5128 35.4412L4.32858 13.017C3.34747 15.214 2.84129 17.5934 2.84314 19.9995ZM31.5829 19.1337C31.5829 17.0133 30.8212 15.5448 30.168 14.4019C29.2983 12.9886 28.4834 11.7917 28.4834 10.3785C28.4834 8.80129 29.6793 7.33315 31.3642 7.33315C31.4402 7.33315 31.5124 7.34262 31.5868 7.34687C28.534 4.55033 24.4672 2.8429 20.0004 2.8429C14.0064 2.8429 8.73298 5.91824 5.66515 10.5763C6.06768 10.5884 6.44737 10.5965 6.76926 10.5965C8.56387 10.5965 11.3418 10.3788 11.3418 10.3788C12.2667 10.3243 12.3757 11.6827 11.4521 11.7921C11.4521 11.7921 10.5224 11.9014 9.4881 11.9556L15.7361 30.5399L19.4911 19.279L16.8177 11.9553C15.8938 11.9011 15.0185 11.7917 15.0185 11.7917C14.0939 11.7376 14.2023 10.3239 15.1269 10.3785C15.1269 10.3785 17.9603 10.5962 19.6462 10.5962C21.4405 10.5962 24.2187 10.3785 24.2187 10.3785C25.1443 10.3239 25.253 11.6824 24.3287 11.7917C24.3287 11.7917 23.3973 11.9011 22.365 11.9553L28.5653 30.3989L30.2764 24.6801C31.0184 22.307 31.5829 20.6025 31.5829 19.1337Z" fill="#00749A"/>
<path d="M20.3014 21.5003L15.1536 36.4585C16.7274 36.9223 18.3597 37.1578 20.0004 37.1578C21.9984 37.1578 23.9144 36.812 25.6979 36.1852C25.6501 36.1103 25.6092 36.0312 25.5758 35.9488L20.3014 21.5003ZM35.0552 11.7679C35.129 12.3144 35.1708 12.9014 35.1708 13.5322C35.1708 15.2732 34.8456 17.2304 33.8662 19.6776L28.6254 34.83C33.7262 31.8556 37.157 26.3294 37.157 19.9995C37.1616 17.1223 36.4386 14.2907 35.0552 11.7679Z" fill="#00749A"/>
<path d="M20.0004 0C8.9726 0 0.000244141 8.9717 0.000244141 19.9995C0.000244141 31.0286 8.97227 40.0003 20.0004 40.0003C31.0279 40.0003 40.0016 31.029 40.0016 19.9995C40.0012 8.9717 31.0279 0 20.0004 0ZM20.0004 39.0833C9.4783 39.0833 0.917297 30.5223 0.917297 19.9995C0.917297 9.47773 9.47798 0.917379 20.0004 0.917379C30.5222 0.917379 39.0825 9.47773 39.0825 19.9995C39.0825 30.5223 30.5219 39.0833 20.0004 39.0833Z" fill="#00749A"/>
</svg>
