<svg width="40" height="40" viewBox="0 0 40 40" fill="none" xmlns="http://www.w3.org/2000/svg">
<path d="M20.0074 -2.22846e-06C30.9365 0.0214597 39.7094 8.71683 39.9901 19.4577C40.2873 30.9943 30.8886 40.2575 19.5402 39.995C8.92979 39.754 0.48867 31.2865 0.0214614 20.927C-0.498577 9.44653 8.68546 -0.0082568 20.0074 -2.22846e-06Z" fill="#3398C2"/>
<path d="M12.6411 14.0064C12.7715 13.4995 12.9597 13.0092 13.2007 12.542C13.4368 12.0913 13.7736 11.7545 14.2623 11.5927C14.6122 11.4788 14.9045 11.2774 15.167 11.0116C16.0931 10.0805 17.2174 9.53898 18.5249 9.3937C18.7395 9.37224 18.8485 9.293 18.931 9.09159C19.1275 8.61447 19.3718 8.15552 19.6954 7.74939C20.123 7.2112 20.6348 6.81002 21.3744 6.85295C21.8416 6.87936 22.2312 7.07582 22.5152 7.45223C22.8338 7.87156 23.0699 8.34042 23.2977 8.81258C23.372 8.96612 23.4331 9.02225 23.6213 8.98263C24.3114 8.82909 24.871 9.13121 25.1682 9.77341C25.5132 10.5246 25.68 11.3203 25.7625 12.1342C25.9375 13.8264 25.8236 15.4922 25.2507 17.1134C24.914 18.066 24.4418 18.9492 23.8656 19.7796C23.7963 19.8803 23.7781 19.9463 23.8739 20.0504C25.4175 21.7822 26.1736 23.8012 26.0861 26.1274V26.2941C26.1951 26.2991 26.2793 26.233 26.3618 26.1885C27.0436 25.8385 27.6644 25.3927 28.3512 25.0477C29.3169 24.5623 30.3273 24.2222 31.4235 24.2305C33.0447 24.2437 34.0864 25.822 33.4079 27.2285C33.1405 27.7832 32.7046 28.1778 32.1053 28.3082C31.0124 28.5526 30.0417 29.0478 29.1155 29.6554C27.5901 30.669 25.9194 31.4219 24.171 31.998C24.0538 32.0376 23.9432 32.0855 23.8425 32.1648C23.3753 32.5148 22.8288 32.6584 22.2593 32.7376C20.5324 32.9787 18.7973 33.0827 17.0572 33.157C16.3408 33.1883 15.6276 33.0909 14.9936 32.7112C14.8236 32.6056 14.675 32.4091 14.5 32.3794C14.3299 32.353 14.1368 32.5098 13.9486 32.5544C12.8342 32.8037 11.7892 32.594 10.8234 32.0079C10.2505 31.6629 9.97978 31.1164 10.0095 30.4429C10.0178 30.2629 9.96657 30.1325 9.86091 29.9889C9.39701 29.3417 9.17083 28.6037 9.04371 27.8245C8.79442 26.2908 9.34088 25.0229 10.3545 23.9118C10.4503 23.8062 10.485 23.7022 10.485 23.5618C10.485 22.0281 10.7772 20.5671 11.5647 19.2299C12.0055 18.482 12.575 17.8398 13.209 17.2587C13.3311 17.1497 13.3443 17.0754 13.2618 16.9351C12.9943 16.4893 12.8293 15.999 12.684 15.5004C12.5618 15.4129 12.6411 15.2776 12.5915 15.1686C12.5833 15.0861 12.5915 15.0019 12.5651 14.9193V14.3729C12.5866 14.2936 12.5866 14.2111 12.5866 14.1285C12.6064 14.0889 12.5981 14.0361 12.6411 14.0064Z" fill="#FEFEFE"/>
<path d="M12.6278 15.1653C12.6625 15.2743 12.6196 15.3964 12.684 15.5021C12.6658 15.5153 12.6658 15.6028 12.6411 15.5417C12.5932 15.4245 12.5585 15.2924 12.5585 15.1653C12.5503 14.746 12.5106 14.3217 12.6278 13.9056C12.6328 13.9403 12.6361 13.975 12.646 14.0064C12.6411 14.046 12.6377 14.0856 12.6328 14.1203C12.5932 14.1946 12.6377 14.2821 12.5981 14.3563V14.9292C12.6278 15.0035 12.5899 15.091 12.6278 15.1653Z" fill="#3298C3"/>
<path d="M24.9123 26.3552C24.9123 26.758 24.8198 27.1509 24.7687 27.5439C24.7257 27.8889 24.7604 27.9285 25.1104 27.8674C25.8979 27.7321 26.6094 27.4002 27.2962 27.0106C28.0309 26.5913 28.7309 26.1142 29.5167 25.8005C30.1242 25.5562 30.745 25.3944 31.4053 25.3944C31.9782 25.3944 32.3761 25.7047 32.4454 26.1951C32.5115 26.6491 32.2622 27.0833 31.8065 27.179C30.5039 27.4547 29.3797 28.0969 28.2835 28.8101C26.8141 29.7594 25.2144 30.4445 23.5486 30.9695C23.4876 30.9877 23.4083 31.0009 23.3687 31.0388C22.9758 31.4549 22.4557 31.5242 21.9307 31.5935C20.4581 31.7867 18.9756 31.8726 17.4898 31.9601C17.0622 31.9865 16.633 31.9997 16.2054 31.9171C15.5235 31.7818 15.2346 31.5275 15.1306 30.9679C15.0382 30.4643 15.2743 29.9889 15.7778 29.6603C15.8306 29.6257 15.8867 29.591 15.9709 29.5382C15.7002 29.3714 15.4773 29.175 15.3073 28.9306C15.2247 28.8167 15.1802 28.8877 15.1537 28.9835C15.0712 29.2988 14.987 29.6174 14.9045 29.9327C14.8483 30.1424 14.7773 30.3488 14.6898 30.5485C14.4356 31.1296 13.9733 31.4103 13.3608 31.4664C12.7352 31.5226 12.1458 31.3839 11.5861 31.1082C11.2015 30.92 11.0875 30.636 11.2147 30.22C11.2807 29.9971 11.4078 29.804 11.5597 29.5679C11.0314 29.6735 10.7986 29.3665 10.6154 28.995C10.2043 28.1811 10.064 27.321 10.2307 26.4295C10.3661 25.7212 10.7821 25.1451 11.2807 24.6465C11.5729 24.3543 11.6604 24.0736 11.6522 23.6626C11.5861 21.2885 12.4826 19.3388 14.3283 17.8315C14.4901 17.6962 14.6519 17.5558 14.8219 17.4337C14.9276 17.3594 14.9391 17.3115 14.8533 17.2025C14.3762 16.6032 14.0047 15.9528 13.8347 15.1967C13.6415 14.3448 13.9304 13.6052 14.3597 12.8969C14.4207 12.8012 14.5165 12.7533 14.6221 12.7137C15.1603 12.5205 15.6143 12.2283 16.0254 11.8172C16.9516 10.8911 18.0973 10.4668 19.4081 10.5229C19.5749 10.5312 19.6492 10.4833 19.7004 10.3265C19.8968 9.7536 20.1412 9.2022 20.4697 8.69207C20.5919 8.49891 20.7272 8.32061 20.9022 8.17698C21.2258 7.90953 21.5015 7.94915 21.7194 8.3041C22.1223 8.94631 22.4326 9.63804 22.7463 10.3281C22.8255 10.5031 22.8866 10.5642 23.0699 10.4453C23.2845 10.31 23.5239 10.2142 23.7649 10.13C23.9581 10.064 24.0703 10.1086 24.1545 10.31C24.3989 10.8993 24.5309 11.5168 24.6052 12.1507C24.6267 12.3257 24.6663 12.4958 24.6448 12.6708C24.6316 13.0505 24.6498 13.4318 24.6531 13.8165C24.6531 13.9865 24.592 14.1582 24.6448 14.3316C24.6052 15.3717 24.3295 16.3556 23.9284 17.3082C23.5519 18.1997 23.0055 18.9905 22.459 19.7829C22.2444 20.0883 22.2494 20.0933 22.5284 20.3426C23.892 21.5708 24.6448 23.1145 24.8974 24.9156C24.9057 24.9849 24.9024 25.0592 24.9024 25.1335C24.8463 25.3003 24.9073 25.4621 24.9106 25.6238C24.9255 25.8698 24.8694 26.1158 24.9123 26.3552Z" fill="#3398C2"/>
<path d="M24.6498 14.3349C24.597 14.292 24.6102 14.2292 24.6102 14.1731V12.8392C24.6102 12.783 24.597 12.7219 24.6498 12.6774C24.7076 13.2288 24.7109 13.7835 24.6498 14.3349Z" fill="#2B95C1"/>
<path d="M24.9123 26.3552C24.8248 26.0184 24.8941 25.6783 24.8727 25.3415C24.8677 25.2722 24.8463 25.1929 24.9123 25.1368C24.9684 25.5429 24.9602 25.9491 24.9123 26.3552Z" fill="#2693BF"/>
<path d="M12.5932 14.3564C12.5981 14.2771 12.5585 14.1896 12.6278 14.1203C12.6278 14.1979 12.6328 14.2821 12.5932 14.3564ZM12.6278 15.1653C12.5618 15.096 12.5965 15.0085 12.5932 14.9292C12.6377 15.0035 12.6278 15.0861 12.6278 15.1653Z" fill="#3398C2"/>
</svg>
