<svg version="1" xmlns="http://www.w3.org/2000/svg" width="360" height="360" viewBox="0 0 270 270"><path d="M19.9.4c-.2.2-2 .5-3.9.7-1.9.2-3.9.5-4.5.8-.5.3-2 .6-3.3.7-5.1.6-4.9.2-7 13.4-.9 5.5-.8 28.8.1 35 2.6 17.6 12.3 40.8 22.3 53.5 1.4 1.6 2.9 3.7 3.6 4.5.6.8 2.4 2.8 3.9 4.5 2.6 2.8 2.7 3.3 1.8 7.5-5 21.4-4.2 45 2.1 64.7 2 6.2 6 15.9 8.2 19.7.5 1.1 2.2 4 3.6 6.5s2.8 4.8 3.2 5.1c.4.3 1.1 1.2 1.6 2.1 2.5 4.4 16.1 19.2 22.3 24.2 12.6 10.2 34.7 21.1 47.1 23.3 2.9.5 7.8 1.6 10 2.2 3.5.9 31 1 36 .1 3-.6 6.9-1.3 8.5-1.6 1.7-.2 6.6-1.6 11-3s8.2-2.5 8.4-2.3c.2.1.7-.2 1-.7.3-.4 3.8-2.3 7.6-4.1 21.3-10.2 42.5-31.1 53.3-52.7 9.9-19.9 13.3-35 12.7-57.5-.2-8-.6-15.6-1-17-.3-1.4-.8-3.9-1.1-5.5-2.3-14.7-14.3-39.2-25.1-51.6-8.3-9.5-21.2-20.9-27.8-24.5-1.1-.6-4.4-2.5-7.2-4.2-2.9-1.7-5.3-2.9-5.3-2.6 0 .4-.6.2-1.2-.4-1.3-1-10.9-4.8-18-7.1-5.1-1.7-7.9-2.2-18.3-3.7-8.9-1.2-28.1-.7-36.5 1.1-1.4.2-3.5.7-4.8.9-1.3.3-3.2.8-4.2 1.1-1.2.4-3.5-.9-7.1-4.1-17.3-14.8-33-22.2-60.4-28.2-4-.8-30.8-1.5-31.6-.8z"/></svg>