<svg viewBox="0 0 36 36" fill="none" xmlns="http://www.w3.org/2000/svg">
    <path d="M15.931 11.0294H15.9328V28.5413H11.3431L10.9497 27.031H10.8186C10.2503 27.6001 9.59466 28.0598 8.85156 28.4101C8.10846 28.7603 7.38723 28.9354 6.68785 28.9354C5.33278 28.9354 4.1526 28.5852 3.14722 27.8847C2.14186 27.1841 1.36598 26.1882 0.819586 24.8967C0.27319 23.6052 0 22.0838 0 20.3327C0 18.6033 0.316884 17.0874 0.950702 15.785C1.58451 14.4826 2.41505 13.4811 3.44227 12.7806C4.46949 12.0801 5.55134 11.7299 6.68785 11.7299C7.51837 11.7299 8.22321 11.8667 8.80239 12.1403C9.31168 12.381 9.80829 12.7274 10.2922 13.1796V8.70339C10.4737 6.66887 12.3532 5.6516 15.9309 5.6516H15.931V11.0294ZM10.294 22.0519H10.2922V17.1133C9.70242 16.5889 8.95992 16.3268 8.06475 16.3268C7.40907 16.3268 6.86269 16.6442 6.42558 17.279C5.98846 17.9139 5.76991 18.9098 5.76991 20.267C5.76991 21.6898 5.97754 22.7241 6.3928 23.3698C6.80806 24.0156 7.4091 24.3385 8.1959 24.3385C8.65488 24.3385 9.04827 24.2509 9.37611 24.0758C9.70394 23.9007 10.0099 23.5943 10.294 23.1565V22.0519ZM16.5236 34.2514L16.5263 34.2504C19.0931 33.2371 20.3595 31.1369 20.3256 27.9499C20.3257 27.9283 20.3259 27.9066 20.3259 27.8847L20.3913 12.1239H26.0302L25.9646 27.6876C25.9646 29.7673 25.4728 31.4582 24.4893 32.7607C23.5058 34.0631 21.8776 34.7143 19.6046 34.7143C18.3807 34.7143 17.3534 34.561 16.523 34.2547L16.5236 34.2514ZM23.3205 9.18401C21.4974 9.18401 20.0195 7.70374 20.0195 5.87773C20.0195 4.05172 21.4974 2.57144 23.3205 2.57144C25.1437 2.57144 26.6217 4.05172 26.6217 5.87773C26.6217 7.70374 25.1437 9.18401 23.3205 9.18401ZM32.6989 28.5871C30.8758 28.5871 29.3977 27.1069 29.3977 25.2809C29.3977 23.4548 30.8758 21.9745 32.6989 21.9745C34.5221 21.9745 36 23.4548 36 25.2809C36 27.1069 34.5221 28.5871 32.6989 28.5871Z" fill="#000000"/>
</svg>
