<svg viewBox="0 0 36 36" fill="none" xmlns="http://www.w3.org/2000/svg">
    <path d="M11.5945 1.72987C11.0531 0.422057 9.62577 -0.274037 8.26172 0.0986192L2.07422 1.78612C0.850782 2.12362 0 3.23456 0 4.50018C0 21.8955 14.1047 36.0002 31.5 36.0002C32.7656 36.0002 33.8765 35.1494 34.214 33.9259L35.9015 27.7384C36.2742 26.3744 35.5781 24.9471 34.2703 24.4057L27.5203 21.5932C26.3742 21.115 25.0453 21.4455 24.2648 22.4087L21.4242 25.8752C16.4742 23.5337 12.4664 19.5259 10.125 14.5759L13.5914 11.7424C14.5547 10.9549 14.8852 9.63297 14.407 8.4869L11.5945 1.7369V1.72987Z" fill="#000000"/>
</svg>
