<svg viewBox="0 0 36 36" fill="none" xmlns="http://www.w3.org/2000/svg">
    <path d="M18 0C8.05885 0 0 8.05885 0 18C0 27.9412 8.05885 36 18 36C27.9412 36 36 27.9412 36 18C36 8.05885 27.9412 0 18 0ZM26.3433 12.2415C26.0724 15.0877 24.9003 21.9947 24.3038 25.1826C24.0515 26.5314 23.5546 26.9837 23.0737 27.0279C22.0285 27.1242 21.2346 26.3372 20.2222 25.6735C18.638 24.635 17.743 23.9886 16.2052 22.9752C14.428 21.8041 15.5801 21.1607 16.5929 20.1082C16.8579 19.833 21.4635 15.6438 21.5527 15.2638C21.5638 15.2162 21.5745 15.0388 21.4689 14.9456C21.3634 14.8524 21.2084 14.884 21.0962 14.9093C20.9374 14.9454 18.4065 16.6182 13.5037 19.9277C12.7854 20.4209 12.1347 20.6613 11.5517 20.6487C10.909 20.6348 9.67275 20.2853 8.75366 19.9865C7.62641 19.6201 6.73048 19.4264 6.8085 18.8041C6.84914 18.4799 7.29552 18.1485 8.14761 17.8098C13.395 15.5236 16.8941 14.0163 18.6448 13.288C23.6436 11.2088 24.6823 10.8476 25.3593 10.8356C25.5082 10.8331 25.8412 10.87 26.0568 11.045C26.2003 11.1696 26.2917 11.3436 26.313 11.5324C26.3496 11.7669 26.3597 12.0047 26.3433 12.2415V12.2415Z" fill="#000000"/>
</svg>
