<svg width="24" height="24" fill="none" xmlns="http://www.w3.org/2000/svg"><path d="M22.579 17.255h-.63V5.857a2.327 2.327 0 00-2.324-2.325H4.375a2.327 2.327 0 00-2.324 2.325v11.398h-.63a.328.328 0 00-.327.328v1.244a1.642 1.642 0 001.64 1.64h18.532a1.643 1.643 0 001.641-1.64v-1.244a.328.328 0 00-.328-.328zM2.707 5.857a1.67 1.67 0 011.67-1.669h15.248a1.67 1.67 0 011.669 1.67v11.397H2.707V5.857zm12.027 12.07a.987.987 0 01-.928.657h-3.611a.986.986 0 01-.928-.656h5.467zm7.517.9a.985.985 0 01-.985.985H2.735a.985.985 0 01-.984-.984v-.917c.201-.002 6.436.001 6.834 0a1.643 1.643 0 001.61 1.33h3.612a1.642 1.642 0 001.61-1.33h6.835v.917z" fill="#fff" stroke="#fff" stroke-width=".1"/><path d="M14.037 5.468c-2.386-.042-3.993 2.667-2.817 4.738l-4.37 4.369a.328.328 0 000 .464l.825.825a.328.328 0 00.464 0l.55-.55.595.595a.328.328 0 00.464 0l.795-.795a.328.328 0 000-.464l-.595-.595.326-.327.596.595a.328.328 0 00.464 0l.795-.795a.327.327 0 000-.464l-.595-.595.972-.974a3.16 3.16 0 001.53.39c4.255-.174 4.261-6.241 0-6.417zm0 5.762a2.549 2.549 0 01-1.425-.437.337.337 0 00-.388.056l-1.386 1.387a.327.327 0 000 .464l.595.595-.33.331-.597-.595a.327.327 0 00-.464 0l-.79.792a.328.328 0 000 .463l.595.595-.33.332-.596-.595a.328.328 0 00-.464 0l-.55.551-.36-.362 4.318-4.318a.328.328 0 00.042-.414 2.522 2.522 0 01-.42-1.4 2.554 2.554 0 012.55-2.551c3.388.14 3.387 4.965 0 5.106z" fill="#fff" stroke="#fff" stroke-width=".1"/><path d="M14.717 6.816a1.237 1.237 0 00-1.238 1.234c.059 1.636 2.414 1.64 2.472 0a1.235 1.235 0 00-1.234-1.234zm0 1.815a.58.58 0 110-1.159.58.58 0 010 1.159z" fill="#fff" stroke="#fff" stroke-width=".1"/></svg>