<svg width="24" height="24" fill="none" xmlns="http://www.w3.org/2000/svg"><path d="M5.146 6.424V4.837a.648.648 0 00-1.297 0v1.587a1.631 1.631 0 00-1.402 1.613v8.708c0 .822.611 1.502 1.402 1.613v1.588a.648.648 0 001.297 0v-1.588a1.631 1.631 0 001.402-1.613V8.037c0-.821-.611-1.502-1.402-1.613zm.105 10.322a.333.333 0 01-.332.332h-.843a.333.333 0 01-.332-.332V8.037c0-.183.15-.332.332-.332h.843c.183 0 .332.149.332.332v8.708zM15.15 5.363V3.776a.648.648 0 00-1.297 0v1.587a1.631 1.631 0 00-1.402 1.613v6.16c0 .82.611 1.502 1.402 1.613v6.603a.648.648 0 101.297 0V14.75a1.631 1.631 0 001.402-1.613v-6.16c0-.821-.611-1.502-1.402-1.613zm.105 7.773a.333.333 0 01-.332.332h-.843a.333.333 0 01-.332-.332v-6.16c0-.183.15-.332.332-.332h.843c.183 0 .332.149.332.332v6.16zm-5.107-8.9V2.648a.648.648 0 10-1.297 0v1.588A1.631 1.631 0 007.45 5.849v6.942c0 .821.611 1.502 1.402 1.613v1.587a.649.649 0 001.297 0v-1.587a1.631 1.631 0 001.402-1.613V5.849c0-.822-.611-1.502-1.402-1.613zm.105 8.555a.333.333 0 01-.332.332h-.843a.333.333 0 01-.332-.332V5.849c0-.184.15-.333.332-.333h.843c.183 0 .332.15.332.333v6.942zm9.897-4.385V3.534a.648.648 0 10-1.297 0v4.872a1.631 1.631 0 00-1.402 1.613v6.942c0 .821.611 1.502 1.402 1.613v1.587a.649.649 0 001.297 0v-1.587a1.631 1.631 0 001.402-1.613V10.02c0-.821-.611-1.502-1.402-1.613zm.105 8.555a.333.333 0 01-.332.332h-.843a.333.333 0 01-.332-.332V10.02c0-.183.15-.332.332-.332h.843c.183 0 .332.149.332.332v6.942z" fill="#fff"/></svg>