<svg width="1920" height="859" fill="none" xmlns="http://www.w3.org/2000/svg"><g clip-path="url(#clip0)"><g opacity=".9"><path opacity=".1" transform="matrix(-1 0 0 1 1968 254)" fill="url(#paint0_linear)" d="M0 0h141v581H0z"/><path opacity=".1" transform="matrix(-1 0 0 1 1707 254)" fill="url(#paint1_linear)" d="M0 0h141v581H0z"/><path opacity=".1" transform="matrix(-1 0 0 1 1446 254)" fill="url(#paint2_linear)" d="M0 0h141v581H0z"/><path opacity=".1" transform="matrix(-1 0 0 1 1185 254)" fill="url(#paint3_linear)" d="M0 0h141v581H0z"/><path opacity=".1" transform="matrix(-1 0 0 1 924 414)" fill="url(#paint4_linear)" d="M0 0h141v421H0z"/><path opacity=".1" transform="matrix(-1 0 0 1 663 366)" fill="url(#paint5_linear)" d="M0 0h141v469H0z"/><path opacity=".1" transform="matrix(-1 0 0 1 402 366)" fill="url(#paint6_linear)" d="M0 0h141v469H0z"/><path opacity=".1" transform="matrix(-1 0 0 1 141 366)" fill="url(#paint7_linear)" d="M0 0h141v469H0z"/><mask id="a" maskUnits="userSpaceOnUse" x="-1194" y="-649" width="4427" height="4406"><path d="M294.411 204.094C169.464 222.393 60.496 298.619.464 409.717L-641.122 1597.06c-71.934 133.13-62.591 295.45 24.144 419.44l640.835 916.1c86.735 124 236.011 188.43 385.729 166.5l1335.354-195.56c124.95-18.3 233.92-94.53 293.95-205.62l641.59-1187.35c71.93-133.12 62.59-295.44-24.15-419.43L2015.5 175.028c-86.74-123.99-236.01-188.425-385.73-166.499L294.411 204.094z" fill="#EEF3F7"/><path d="M294.411 204.094C169.464 222.393 60.496 298.619.464 409.717L-641.122 1597.06c-71.934 133.13-62.591 295.45 24.144 419.44l640.835 916.1c86.735 124 236.011 188.43 385.729 166.5l1335.354-195.56c124.95-18.3 233.92-94.53 293.95-205.62l641.59-1187.35c71.93-133.12 62.59-295.44-24.15-419.43L2015.5 175.028c-86.74-123.99-236.01-188.425-385.73-166.499L294.411 204.094z" fill="url(#paint8_linear)"/></mask><g mask="url(#a)"><path d="M294.411 204.094C169.464 222.393 60.496 298.619.464 409.717L-641.122 1597.06c-71.934 133.13-62.591 295.45 24.144 419.44l640.835 916.1c86.735 124 236.011 188.43 385.729 166.5l1335.354-195.56c124.95-18.3 233.92-94.53 293.95-205.62l641.59-1187.35c71.93-133.12 62.59-295.44-24.15-419.43L2015.5 175.028c-86.74-123.99-236.01-188.425-385.73-166.499L294.411 204.094z" fill="#EEF3F7"/><path d="M294.411 204.094C169.464 222.393 60.496 298.619.464 409.717L-641.122 1597.06c-71.934 133.13-62.591 295.45 24.144 419.44l640.835 916.1c86.735 124 236.011 188.43 385.729 166.5l1335.354-195.56c124.95-18.3 233.92-94.53 293.95-205.62l641.59-1187.35c71.93-133.12 62.59-295.44-24.15-419.43L2015.5 175.028c-86.74-123.99-236.01-188.425-385.73-166.499L294.411 204.094z" fill="url(#paint9_linear)"/></g></g><path d="M-64.376 498.143h29.178v62.964h-29.178v-62.964z" fill="#fff" fill-opacity=".06"/><path d="M-33.573 496.504H-66v66.238h32.427v-66.238zm-29.178 3.274h25.929v59.69h-25.929v-59.69z" fill="#fff" fill-opacity=".06"/><path d="M-48.16 498.141h-3.25v-11.869h3.25v11.869zm0 82.716h-3.25v-19.763h3.25v19.763zm29.669-19.764h29.178v25.364h-29.178v-25.364z" fill="#fff" fill-opacity=".06"/><path d="M12.321 559.457h-32.427v28.638h32.427v-28.638zm-29.178 3.274H9.072v22.09h-25.929v-22.09z" fill="#fff" fill-opacity=".06"/><path d="M-2.267 561.094h-3.249v-17.653h3.25v17.653zm0 59.592h-3.249v-34.217h3.25v34.217zm29.671 44.103h29.178v28.261H27.404v-28.261z" fill="#fff" fill-opacity=".06"/><path d="M58.203 663.153H25.776v31.536h32.427v-31.536zm-29.178 3.274h25.928v24.977H29.025v-24.977z" fill="#fff" fill-opacity=".06"/><path d="M43.615 664.79h-3.25v-17.652h3.25v17.652zm0 88.5h-3.25v-60.249h3.25v60.249zm29.673-60.248h29.178v51.396H73.288v-51.396z" fill="#fff" fill-opacity=".06"/><path d="M104.096 691.404H71.669v54.67h32.427v-54.67zm-29.178 3.274h25.929V742.8H74.918v-48.122z" fill="#fff" fill-opacity=".06"/><path d="M89.508 693.041h-3.25v-69.706h3.25v69.706zm0 97.18h-3.25v-45.784h3.25v45.784zm75.563-97.835h29.178v62.963h-29.178v-62.963z" fill="#fff" fill-opacity=".06"/><path d="M195.874 690.747h-32.427v66.227h32.427v-66.227zm-29.178 3.274h25.929l-.001 59.678h-25.928v-59.678z" fill="#fff" fill-opacity=".06"/><path d="M181.286 692.384h-3.249v-21.595h3.249v21.595zm0 71.149h-3.249v-8.197h3.249v8.197zm29.672-84.952h29.178v13.797h-29.178v-13.797z" fill="#fff" fill-opacity=".06"/><path d="M241.768 676.95h-32.427v17.071h32.427V676.95zm-29.178 3.274h25.929v10.523H212.59v-10.523z" fill="#fff" fill-opacity=".06"/><path d="M227.179 678.587h-3.249v-30.275h3.249v30.275zm0 53.798h-3.249v-40.001h3.249v40.001zm29.673-53.798h29.177v34.045h-29.177v-34.045z" fill="#fff" fill-opacity=".06"/><path d="M287.649 676.95h-32.426v37.319h32.426V676.95zm-29.177 3.274H284.4v30.76h-25.928v-30.76z" fill="#fff" fill-opacity=".06"/><path d="M273.062 678.587h-3.249v-12.924h3.249v12.924zm0 45.128h-3.249v-11.083h3.249v11.083zm29.676-128.994h29.177v117.903h-29.177V594.721z" fill="#fff" fill-opacity=".06"/><path d="M333.544 593.082h-32.427v121.176h32.427V593.082zm-29.178 3.274h25.928v114.628h-25.928V596.356z" fill="#fff" fill-opacity=".06"/><path d="M318.956 594.719h-3.249V576.01h3.249v18.709zm0 152.13h-3.249v-34.217h3.249v34.217zm29.667-229.551h29.178v77.417h-29.178v-77.417z" fill="#fff" fill-opacity=".06"/><path d="M379.426 515.665h-32.427v80.691h32.427v-80.691zm-29.167 3.274h25.929v74.143h-25.929v-74.143z" fill="#fff" fill-opacity=".06"/><path d="M364.839 517.302h-3.249v-60.863h3.249v60.863zm0 119.873h-3.249v-42.456h3.249v42.456zm29.682-119.873h29.177v51.395h-29.177v-51.395z" fill="#fff" fill-opacity=".06"/><path d="M425.321 515.664h-32.426v54.66h32.426v-54.66zm-29.177 3.275h25.928v48.121h-25.928v-48.121z" fill="#fff" fill-opacity=".06"/><path d="M410.734 517.302h-3.249v-92.679h3.249v92.679zm0 64.934h-3.249v-13.539h3.249v13.539zm58.854-13.549H440.41v-28.261h29.178v28.261z" fill="#fff" fill-opacity=".06"/><path d="M471.213 538.799h-32.428v31.525h32.428v-31.525zm-29.178 3.274h25.928v24.977h-25.928v-24.977z" fill="#fff" fill-opacity=".06"/><path d="M456.625 603.141h-3.249v-34.443h3.249v34.443zm0-62.705h-3.249v-23.921h3.249v23.921zm58.847 0h-29.178v-31.147h29.178v31.147z" fill="#fff" fill-opacity=".06"/><path d="M517.096 507.651h-32.427v34.422h32.427v-34.422zm-29.178 3.275h25.929v27.873h-25.929v-27.873z" fill="#fff" fill-opacity=".06"/><path d="M502.508 580.663h-3.249v-40.227h3.249v40.227zm0-71.375h-3.249v-15.24h3.249v15.24zm58.859 0h-29.178v-16.693h29.178v16.693z" fill="#fff" fill-opacity=".06"/><path d="M562.99 490.957h-32.427v19.969h32.427v-19.969zm-29.177 3.275h25.928v13.409h-25.928v-13.409z" fill="#fff" fill-opacity=".06"/><path d="M548.403 529.267h-3.25v-19.989h3.25v19.989zm0-36.672h-3.25l.001-26.808h3.249v26.808zm58.856 0h-29.178V337.093h29.178v155.502z" fill="#fff" fill-opacity=".06"/><path d="M608.873 335.456h-32.427v158.776h32.427V335.456zm-29.167 3.274h25.929v152.228h-25.929V338.73z" fill="#fff" fill-opacity=".06"/><path d="M594.285 509.687h-3.249v-17.092h3.249v17.092zm0-172.594h-3.249v-12.354h3.249v12.354zM119.187 744.44h29.178v10.911h-29.178V744.44z" fill="#fff" fill-opacity=".06"/><path d="M149.98 742.8h-32.426v14.173h32.426V742.8zm-29.167 3.274h25.929v7.625h-25.929v-7.625z" fill="#fff" fill-opacity=".06"/><path d="M135.393 744.437h-3.249v-17.836h3.249v17.836zm0 114.531h-3.249V755.336h3.249v103.632zm518.25-273.167h-29.177V337.093h29.177v248.708z" fill="#fff" fill-opacity=".06"/><path d="M655.268 335.456h-32.427v251.982h32.427V335.456zm-29.178 3.274h25.929v245.434H626.09V338.73z" fill="#fff" fill-opacity=".06"/><path d="M640.679 656.174h-3.249v-70.373h3.249v70.373zm0-319.081h-3.249v-26.99h3.249v26.99zm58.858 248.708h-29.178V407.466h29.178v178.335z" fill="#fff" fill-opacity=".06"/><path d="M701.161 405.829h-32.427v181.609h32.427V405.829zm-29.178 3.274h25.929v175.061h-25.929V409.103z" fill="#fff" fill-opacity=".06"/><path d="M686.573 737.146h-3.249V585.801h3.249v151.345zm0-329.68h-3.249v-17.351h3.249v17.351zm425.977 277.239h-29.18V569.99h29.18v114.715z" fill="#fff" fill-opacity=".06"/><path d="M1114.16 568.353h-32.43v117.989h32.43V568.353zm-29.17 3.274h25.93v111.441h-25.93V571.627z" fill="#fff" fill-opacity=".06"/><path d="M1099.57 836.049h-3.25V684.705h3.25v151.344zm0-266.059h-3.25v-17.351h3.25v17.351zm104.75-16.382h-29.18V395.511h29.18v158.097z" fill="#fff" fill-opacity=".06"/><path d="M1205.95 393.874h-32.43v161.372h32.43V393.874zm-29.18 3.274h25.93v154.823h-25.93V397.148z" fill="#fff" fill-opacity=".06"/><path d="M1191.36 579.931h-3.25v-26.333h3.25v26.333zm0-184.42h-3.25v-46.269h3.25v46.269zm58.84.442h-29.17V281.238h29.17v114.715z" fill="#fff" fill-opacity=".06"/><path d="M1251.83 279.612h-32.43V397.59h32.43V279.612zm-29.18 3.274h25.93v111.43h-25.93v-111.43z" fill="#fff" fill-opacity=".06"/><path d="M1237.24 422.286h-3.25v-26.333h3.25v26.333zm0-141.037h-3.25V221h3.25v60.249zm104.75 129.169h-29.18v-10.609h29.18v10.609z" fill="#fff" fill-opacity=".06"/><path d="M1343.61 398.172h-32.43v13.883h32.43v-13.883zm-29.17 3.274h25.93v7.324h-25.93v-7.324z" fill="#fff" fill-opacity=".06"/><path d="M1329.02 422.286h-3.25v-11.868h3.25v11.868zm0-22.477h-3.25v-94.951h3.25v94.951zm104.75 87.724h-29.18v-10.609h29.18v10.609z" fill="#fff" fill-opacity=".06"/><path d="M1435.4 475.298h-32.43v13.883h32.43v-13.883zm-29.18 3.274h25.93v7.324h-25.93v-7.324z" fill="#fff" fill-opacity=".06"/><path d="M1420.81 551.455h-3.25v-63.922h3.25v63.922zm0-74.52h-3.25v-74.703h3.25v74.703zm150.63-132.066h-29.18V334.26h29.18v10.609z" fill="#fff" fill-opacity=".06"/><path d="M1573.05 332.623h-32.42v13.883h32.42v-13.883zm-29.16 3.274h25.93v7.335h-25.93v-7.335z" fill="#fff" fill-opacity=".06"/><path d="M1558.47 371.192h-3.25v-26.323h3.25v26.323zm0-36.932h-3.25v-80.497h3.25v80.497zm-170.59 142.675h-29.18v-77.116h29.18v77.116z" fill="#fff" fill-opacity=".06"/><path d="M1389.5 398.171h-32.43v80.39h32.43v-80.39zm-29.18 3.275h25.93v73.841h-25.93v-73.841z" fill="#fff" fill-opacity=".06"/><path d="M1374.91 488.804h-3.25v-11.869h3.25v11.869zm0-88.995h-3.25V232.556h3.25v167.253zm104.74 87.724h-29.18v-27.96h29.18v27.96z" fill="#fff" fill-opacity=".06"/><path d="M1481.28 457.947h-32.43v31.234h32.43v-31.234zm-29.18 3.274h25.93v24.685h-25.93v-24.685z" fill="#fff" fill-opacity=".06"/><path d="M1466.69 496.515h-3.25v-8.982h3.25v8.982zm0-36.931h-3.25V318.363h3.25v141.221zm-199.77-178.341h29.18v129.169h-29.18V281.243z" fill="#fff" fill-opacity=".06"/><path d="M1297.72 279.612h-32.42v132.442h32.42V279.612zm-29.17 3.274h25.93V408.78h-25.93V282.886z" fill="#fff" fill-opacity=".06"/><path d="M1283.14 281.249h-3.25v-17.652h3.25v17.652zm0 172.067h-3.25v-42.899h3.25v42.899zm305.01-119.056h29.18v181.232h-29.18V334.26z" fill="#fff" fill-opacity=".06"/><path d="M1618.95 332.623h-32.43V517.13h32.43V332.623zm-29.18 3.275h25.93v177.957h-25.93V335.898z" fill="#fff" fill-opacity=".06"/><path d="M1604.36 334.26h-3.25v-17.652h3.25v17.652zm0 209.666h-3.25v-28.433h3.25v28.433zm29.67-28.432h29.18v175.449h-29.18V515.494z" fill="#fff" fill-opacity=".06"/><path d="M1664.84 513.856h-32.43v178.711h32.43V513.856zm-29.18 3.274h25.93v172.163h-25.93V517.13z" fill="#fff" fill-opacity=".06"/><path d="M1650.25 515.493H1647v-55.252h3.25v55.252zm0 186.531H1647v-11.083h3.25v11.083zm29.68-11.085h29.18v25.364h-29.18v-25.364z" fill="#fff" fill-opacity=".06"/><path d="M1710.72 689.293h-32.42v28.638h32.42v-28.638zm-29.17 3.274h25.92v22.09h-25.92v-22.09z" fill="#fff" fill-opacity=".06"/><path d="M1696.14 690.93h-3.25v-72.603h3.25v72.603zm-.01 102.964h-3.24v-77.6h3.25l-.01 77.6zm29.68-77.599h29.18v60.066h-29.18v-60.066z" fill="#fff" fill-opacity=".06"/><path d="M1756.62 714.657h-32.43v63.351h32.43v-63.351zm-29.18 3.285h25.93v56.792h-25.93v-56.792z" fill="#fff" fill-opacity=".06"/><path d="M1742.03 716.294h-3.25v-35.003h3.25v35.003zm0 111.645h-3.25v-51.568h3.25v51.568zm29.67-68.265h29.18v16.694h-29.18v-16.694z" fill="#fff" fill-opacity=".06"/><path d="M1802.51 758.04h-32.43v19.968h32.43V758.04zm-29.18 3.274h25.93v13.42h-25.93v-13.42z" fill="#fff" fill-opacity=".06"/><path d="M1787.92 759.677h-3.25v-58.138h3.25v58.138zm0 39.344h-3.25v-22.65h3.25v22.65zm121.45-207.984h29.18v8.013h-29.18v-8.013z" fill="#fff" fill-opacity=".06"/><path d="M1940.17 589.409h-32.42v11.288h32.42v-11.288zm-29.16 3.274h25.92v4.739h-25.92v-4.739z" fill="#fff" fill-opacity=".06"/><path d="M1925.58 591.046h-3.24v-55.251h3.24v55.251zm0 30.663h-3.24v-22.65h3.24v22.65zm29.68-41.577h29.18v10.91h-29.18v-10.91z" fill="#fff" fill-opacity=".06"/><path d="M1986.06 578.499h-32.42v14.184h32.42v-14.184zm-29.17 3.274h25.92v7.625h-25.92v-7.625z" fill="#fff" fill-opacity=".06"/><path d="M1971.48 580.136h-3.25V556.7h3.25v23.436zm0 45.128h-3.25v-34.218h3.25v34.218zm-108-26.206h29.18v68.747h-29.18v-68.747z" fill="#fff" fill-opacity=".06"/><path d="M1894.29 597.423h-32.43v72.021h32.43v-72.021zm-29.18 3.274h25.93v65.472h-25.93v-65.472z" fill="#fff" fill-opacity=".06"/><path d="M1879.7 599.06h-3.25v-26.334h3.25v26.334zm0 131.882h-3.25v-63.136h3.25v63.136zm-62.1-63.142h29.17v91.881h-29.17V667.8z" fill="#fff" fill-opacity=".06"/><path d="M1848.39 666.159h-32.42v95.155h32.42v-95.155zm-29.17 3.274h25.92v88.607h-25.92v-88.607z" fill="#fff" fill-opacity=".06"/><path d="M1833.8 667.795h-3.25v-26.333h3.25v26.333zm-337.43-322.933h29.17v114.715h-29.17V344.862z" fill="#fff" fill-opacity=".06"/><path d="M1527.17 343.232h-32.43v117.989h32.43V343.232zm-29.18 3.274h25.93v111.441h-25.93V346.506z" fill="#fff" fill-opacity=".06"/><path d="M1512.58 344.869h-3.25v-14.766h3.25v14.766zm0 131.581h-3.25v-16.866h3.25v16.866zm-354.15 93.54h-29.18v-16.392h29.18v16.392z" fill="#fff" fill-opacity=".06"/><path d="M1160.05 551.972h-32.42v19.666h32.42v-19.666zm-29.17 3.274h25.93v13.107h-25.93v-13.107z" fill="#fff" fill-opacity=".06"/><path d="M1145.47 610.659h-3.25V569.99h3.25v40.669zm0-57.05h-3.25v-66.518h3.25v66.518zm-400.039-1.002h-29.178V407.466h29.178v145.141z" fill="#fff" fill-opacity=".06"/><path d="M747.055 405.829h-32.427v148.415h32.427V405.829zm-29.178 3.275h25.929V550.97h-25.929V409.104z" fill="#fff" fill-opacity=".06"/><path d="M732.468 633.858h-3.25v-81.24h3.25v81.24zm0-226.392h-3.25v-24.728h3.25v24.728zM837.21 631.09h-29.178v-64.643h29.178v64.643z" fill="#fff" fill-opacity=".06"/><path d="M838.833 564.81h-32.427v67.917h32.427V564.81zm-29.178 3.274h25.929v61.369h-25.929v-61.369z" fill="#fff" fill-opacity=".06"/><path d="M824.244 712.342h-3.249v-81.241h3.249v81.241zm0-145.895h-3.249v-12.364h3.249v12.364zm75.564-14.372h29.178v70.427h-29.178v-70.427z" fill="#fff" fill-opacity=".06"/><path d="M930.609 550.431h-32.427v73.702h32.427v-73.702zm-29.178 3.275h25.929v67.152h-25.929v-67.152z" fill="#fff" fill-opacity=".06"/><path d="M916.021 552.068h-3.249v-81.24h3.249v81.24zm0 91.473h-3.249v-21.035h3.249v21.035zm75.567-127.589h29.182v38.612h-29.182v-38.612z" fill="#fff" fill-opacity=".06"/><path d="M1022.38 514.319h-32.422v41.885h32.422v-41.885zm-29.173 3.274h25.933v35.337h-25.933v-35.337z" fill="#fff" fill-opacity=".06"/><path d="M1007.8 515.956h-3.25v-19.075h3.25v19.075zm0 59.646h-3.25v-21.035h3.25v21.035zm29.67 70.491h29.18v38.611h-29.18v-38.611z" fill="#fff" fill-opacity=".06"/><path d="M1068.28 644.456h-32.43v41.886h32.43v-41.886zm-29.18 3.274h25.93v35.338h-25.93V647.73z" fill="#fff" fill-opacity=".06"/><path d="M1053.69 646.093h-3.25v-24.857h3.25v24.857zm0 77.008h-3.25v-38.385h3.25v38.385zM945.692 515.958h29.178v35.725h-29.178v-35.725z" fill="#fff" fill-opacity=".06"/><path d="M976.501 514.319h-32.427v38.999h32.427v-38.999zm-29.178 3.274h25.929v32.451h-25.929v-32.451z" fill="#fff" fill-opacity=".06"/><path d="M961.912 515.956h-3.249v-33.044h3.249v33.044zm-170.601 51.029h-29.178v-14.378h29.178v14.378z" fill="#fff" fill-opacity=".06"/><path d="M792.937 550.97H760.51v17.652h32.427V550.97zm-29.178 3.274h25.929v11.104h-25.929v-11.104z" fill="#fff" fill-opacity=".06"/><path d="M778.349 644.822H775.1v-77.837h3.249v77.837zm0-92.215H775.1V454.92h3.249v97.687zM883.1 631.09h-29.177v-8.595H883.1v8.595z" fill="#fff" fill-opacity=".06"/><path d="M884.714 620.858h-32.427v11.869h32.427v-11.869zm-29.168 3.274h25.929v5.321h-25.929v-5.321z" fill="#fff" fill-opacity=".06"/><path d="M870.126 649.647h-3.249V631.09h3.249v18.557zm0-27.152h-3.249V505.53h3.249v116.965z" fill="#fff" fill-opacity=".06"/></g><defs><linearGradient id="paint0_linear" x1="70.5" y1="0" x2="70.5" y2="581" gradientUnits="userSpaceOnUse"><stop stop-color="#fff" stop-opacity="0"/><stop offset="1" stop-color="#fff"/></linearGradient><linearGradient id="paint1_linear" x1="70.5" y1="0" x2="70.5" y2="581" gradientUnits="userSpaceOnUse"><stop stop-color="#fff" stop-opacity="0"/><stop offset="1" stop-color="#fff"/></linearGradient><linearGradient id="paint2_linear" x1="70.5" y1="0" x2="70.5" y2="581" gradientUnits="userSpaceOnUse"><stop stop-color="#fff" stop-opacity="0"/><stop offset="1" stop-color="#fff"/></linearGradient><linearGradient id="paint3_linear" x1="70.5" y1="0" x2="70.5" y2="581" gradientUnits="userSpaceOnUse"><stop stop-color="#fff" stop-opacity="0"/><stop offset="1" stop-color="#fff"/></linearGradient><linearGradient id="paint4_linear" x1="70.5" y1="0" x2="70.5" y2="421" gradientUnits="userSpaceOnUse"><stop stop-color="#fff" stop-opacity="0"/><stop offset="1" stop-color="#fff"/></linearGradient><linearGradient id="paint5_linear" x1="70.5" y1="0" x2="70.5" y2="469" gradientUnits="userSpaceOnUse"><stop stop-color="#fff" stop-opacity="0"/><stop offset="1" stop-color="#fff"/></linearGradient><linearGradient id="paint6_linear" x1="70.5" y1="0" x2="70.5" y2="469" gradientUnits="userSpaceOnUse"><stop stop-color="#fff" stop-opacity="0"/><stop offset="1" stop-color="#fff"/></linearGradient><linearGradient id="paint7_linear" x1="70.5" y1="0" x2="70.5" y2="469" gradientUnits="userSpaceOnUse"><stop stop-color="#fff" stop-opacity="0"/><stop offset="1" stop-color="#fff"/></linearGradient><linearGradient id="paint8_linear" x1="2449.61" y1="725.273" x2="-295.53" y2="2645.55" gradientUnits="userSpaceOnUse"><stop stop-color="#8E72E9"/><stop offset="1" stop-color="#617FF9"/></linearGradient><linearGradient id="paint9_linear" x1="2449.61" y1="725.273" x2="-295.53" y2="2645.55" gradientUnits="userSpaceOnUse"><stop stop-color="#8E72E9"/><stop offset="1" stop-color="#617FF9"/></linearGradient><clipPath id="clip0"><path fill="#fff" d="M0 0h1920v859H0z"/></clipPath></defs></svg>