<svg width="1920" height="1555" fill="none" xmlns="http://www.w3.org/2000/svg"><mask id="a" maskUnits="userSpaceOnUse" x="0" y="0" width="1920" height="1555"><path fill="#fff" d="M0 0h1920v1555H0z"/></mask><g mask="url(#a)"><path d="M-381.447-429.852c-25.482-123.682 8.936-252.134 92.846-346.505L608.168-1784.93c100.545-113.08 256.294-159.75 402.452-120.58l1079.91 289.36c146.16 39.16 257.71 157.45 288.24 305.65L2651.11 11.336c25.48 123.682-8.94 252.134-92.85 346.505L1661.49 1366.42c-100.54 113.08-256.29 159.74-402.45 120.58L179.134 1197.64c-146.16-39.16-257.71-157.45-288.244-305.655L-381.447-429.852z" fill="#EEF3F7"/><path d="M-89.77 47.175C-78.424-31.559-10.957-90 68.592-90H1851.82C1939.18-90 2010-19.181 2010 68.178c0 53.576-27.12 103.51-72.06 132.679l-805.88 523.081a160.001 160.001 0 01-120.35 22.302L174.779 568.5a159.998 159.998 0 01-104.094-74.412L-81.37 239.729a160.002 160.002 0 01-21.03-104.921l12.63-87.633z" fill="#E7EBFE"/><path d="M-89.77 47.175C-78.424-31.559-10.957-90 68.592-90H1851.82C1939.18-90 2010-19.181 2010 68.178c0 53.576-27.12 103.51-72.06 132.679l-805.88 523.081a160.001 160.001 0 01-120.35 22.302L174.779 568.5a159.998 159.998 0 01-104.094-74.412L-81.37 239.729a160.002 160.002 0 01-21.03-104.921l12.63-87.633z" fill="url(#paint0_linear)"/><path opacity=".05" d="M230.544-409.812a99.999 99.999 0 0196.593-25.882l346.003 92.711a100.003 100.003 0 0170.711 70.711l92.711 346.003a100 100 0 01-25.882 96.593L557.388 423.616a100 100 0 01-96.593 25.881l-346.003-92.711a100 100 0 01-70.71-70.711L-48.63-59.928a99.999 99.999 0 0125.882-96.592l253.292-253.292z" fill="#fff"/><path opacity=".5" d="M176.5 931.868a99.997 99.997 0 01100 0l188.819 109.012c30.941 17.87 50 50.88 50 86.61v218.02c0 35.73-19.059 68.74-50 86.61L276.5 1541.13a99.967 99.967 0 01-100 0l-188.82-109.01c-30.94-17.87-50-50.88-50-86.61v-218.02c0-35.73 19.06-68.74 50-86.61L176.5 931.868z" fill="url(#paint1_linear)"/><path opacity=".05" d="M1002.06 127.768c9.24-34.51 36.2-61.464 70.71-70.711l357.01-95.66a99.993 99.993 0 0196.59 25.881l261.35 261.35c25.26 25.263 35.13 62.084 25.88 96.593l-95.66 357.011c-9.24 34.509-36.2 61.464-70.71 70.711l-357.01 95.661a99.994 99.994 0 01-96.59-25.882l-261.352-261.35a100.004 100.004 0 01-25.882-96.593l95.664-357.011z" fill="#fff"/></g><defs><linearGradient id="paint0_linear" x1="8.5" y1="372.106" x2="1923.5" y2="372.106" gradientUnits="userSpaceOnUse"><stop stop-color="#8E72E9"/><stop offset="1" stop-color="#617FF9"/></linearGradient><linearGradient id="paint1_linear" x1="-69.569" y1="1265.62" x2="532.792" y2="1265.62" gradientUnits="userSpaceOnUse"><stop stop-color="#8E72E9"/><stop offset="1" stop-color="#617FF9"/></linearGradient></defs></svg>