<svg width="320" height="1051" fill="none" xmlns="http://www.w3.org/2000/svg"><mask id="a" maskUnits="userSpaceOnUse" x="0" y="0" width="320" height="1051"><path fill="#fff" d="M0 0h320v1051H0z"/></mask><g mask="url(#a)"><path d="M-155.327 664.395a158.576 158.576 0 010-142.216l149.097-297.2c26.9-53.619 81.754-87.47 141.742-87.47h261.583c59.989 0 114.843 33.851 141.743 87.47l149.097 297.199a158.579 158.579 0 010 142.217l-149.097 297.2c-26.9 53.615-81.754 87.475-141.742 87.475H135.513c-59.99 0-114.843-33.86-141.743-87.475l-149.097-297.2z" fill="#EEF3F7"/><path d="M-545.582-84.796C-537.293-142.31-488.009-185-429.9-185H872.72c63.814 0 115.546 51.732 115.546 115.546 0 39.137-19.81 75.613-52.637 96.92L346.944 409.57a116.88 116.88 0 01-87.913 16.291l-611.364-129.836a116.876 116.876 0 01-76.039-54.357L-539.445 55.862a116.877 116.877 0 01-15.364-76.643l9.227-64.015z" fill="#E7EBFE"/><path d="M-545.582-84.796C-537.293-142.31-488.009-185-429.9-185H872.72c63.814 0 115.546 51.732 115.546 115.546 0 39.137-19.81 75.613-52.637 96.92L346.944 409.57a116.88 116.88 0 01-87.913 16.291l-611.364-129.836a116.876 116.876 0 01-76.039-54.357L-539.445 55.862a116.877 116.877 0 01-15.364-76.643l9.227-64.015z" fill="url(#paint0_linear)"/><path opacity=".05" d="M-147.079-99.245a73.048 73.048 0 0170.559-18.907L50.747-84.05A73.047 73.047 0 01102.4-32.397L136.502 94.87a73.05 73.05 0 01-18.907 70.56l-93.166 93.166a73.047 73.047 0 01-70.56 18.906l-127.267-34.101a73.051 73.051 0 01-51.653-51.653L-259.152 64.48a73.047 73.047 0 0118.906-70.559l93.167-93.166zm435 208.999a73.047 73.047 0 0170.559-18.907l127.267 34.102a73.044 73.044 0 0151.653 51.653l34.102 127.267a73.05 73.05 0 01-18.907 70.56l-93.166 93.166a73.047 73.047 0 01-70.559 18.906L261.602 452.4a73.051 73.051 0 01-51.653-51.653l-34.101-127.268a73.047 73.047 0 0118.906-70.559l93.167-93.166z" fill="#fff"/></g><defs><linearGradient id="paint0_linear" x1="-473.797" y1="152.561" x2="925.079" y2="152.561" gradientUnits="userSpaceOnUse"><stop stop-color="#8E72E9"/><stop offset="1" stop-color="#617FF9"/></linearGradient></defs></svg>