<svg width="24" height="24" fill="none" xmlns="http://www.w3.org/2000/svg"><path d="M21 17.6c-1.99-1.055-3.515-1.647-4.874-1.873l.14-.194a.26.26 0 00.067-.266l-.312-1.25c.113-.16.22-.325.32-.495 1.242-.423 1.87-1.138 1.976-2.19.546-.029 1.016-.516 1.016-1.065v-2.5c0-.548-.435-1.033-1.005-1.065C18.253 4.776 17.404 1 12 1S5.746 4.776 5.673 6.702a1.074 1.074 0 00-1.006 1.065v2.5c0 .566.5 1.066 1.1 1.066h.5c.183 0 .36-.053.514-.143a7.289 7.289 0 001.198 2.827l-.312 1.25c0 .066 0 .166.066.266l.14.194C6.517 15.953 4.99 16.545 3 17.6c-.633.3-1 .933-1 1.633v1.434c0 .2.133.333.333.333h19.334c.2 0 .333-.133.333-.333v-1.434c0-.666-.4-1.3-1-1.633zm-8.998-.763l.798 1.83h-1.611l.813-1.83zm-1.055 2.496h2.105l.195 1h-2.5l.2-1zm4.553-4.666l.133.6-.34.467a.3.3 0 00-.06.066l-1.386 1.92-.44.604-.899-2.022c1.096-.134 2.072-.692 2.855-1.493a5.99 5.99 0 00.137-.142zm1.302-2.074c.188-.457.33-.933.419-1.412.127.077.271.128.427.146-.058.47-.267.915-.846 1.266zm1.831-4.86v2.5c0 .2-.166.4-.4.4h-.5c-.2 0-.4-.166-.4-.4v-2.5c0-.2.167-.4.4-.4h.5c.2 0 .4.167.4.4zM12 1.667c2.055 0 5.512.67 5.661 5.038a1.06 1.06 0 00-.394.122C16.86 4.29 14.647 2.333 12 2.333c-2.648 0-4.86 1.956-5.266 4.493a1.046 1.046 0 00-.395-.12c.149-4.369 3.606-5.04 5.661-5.04zm-5.367 8.566c0 .2-.166.4-.4.4h-.5c-.2 0-.4-.166-.4-.4v-2.5c0-.2.167-.4.4-.4h.5c.2 0 .4.167.4.4v2.5zm.7-2.566A4.68 4.68 0 0112 3a4.68 4.68 0 014.667 4.667V10a6.169 6.169 0 01-.753 2.964c-.796.231-1.94.37-3.58.37-.2 0-.334.133-.334.333s.133.333.333.333c1.201 0 2.206-.074 3.028-.228l-.061.061a5.588 5.588 0 01-.53.612c-.784.73-1.72 1.174-2.623 1.218a.376.376 0 00-.147-.03.32.32 0 00-.139.03c-.552-.025-1.117-.2-1.653-.5-.542-.312-1.053-.761-1.508-1.33l-.1-.1-.02-.006A6.141 6.141 0 017.334 10V7.667zm4.159 8.635l-.899 2.022-.44-.604-1.386-1.92a.607.607 0 00-.035-.032l-.365-.501.133-.6c.045.048.09.096.137.142.783.8 1.759 1.36 2.855 1.493zm-8.825 2.931c0-.433.233-.833.633-1.033 2.125-1.129 3.654-1.695 5.017-1.864l1.989 2.735-.253 1.262H2.667v-1.1zm18.666 1.1h-7.386l-.253-1.262 2.01-2.765c1.358.205 2.915.77 4.996 1.86.4.234.633.634.633 1.067v1.1z" fill="#fff"/></svg>