<svg width="24" height="24" fill="none" xmlns="http://www.w3.org/2000/svg"><g clip-path="url(#clip0)" fill="#fff" stroke="#fff" stroke-width=".2"><path d="M20.983 10.075a9.384 9.384 0 00-3.545-3.832l.525-1.593.46.151a.87.87 0 001.098-.554l.413-1.255a.871.871 0 00-.555-1.099L15.976.773a.351.351 0 10-.22.667l3.404 1.121a.17.17 0 01.106.211l-.413 1.255a.166.166 0 01-.084.096.168.168 0 01-.127.01l-4.935-1.625a.168.168 0 01-.105-.211l.413-1.254a.168.168 0 01.211-.107l1.75.577a.352.352 0 00.22-.668l-1.75-.577a.865.865 0 00-.664.05.864.864 0 00-.435.505l-.413 1.255a.87.87 0 00.554 1.098l.46.152-.526 1.592a9.361 9.361 0 00-2.165.05.351.351 0 10.097.696 8.658 8.658 0 013.93.359 8.687 8.687 0 015.07 4.366 8.683 8.683 0 01.499 6.673c-1.508 4.578-6.46 7.076-11.039 5.569a8.682 8.682 0 01-5.07-4.366 8.685 8.685 0 01-.497-6.673C5.11 8.972 7.12 6.72 11.13 5.801a.352.352 0 00-.22-.667c-.597.196-2.483.675-3.029.986H5.065a.351.351 0 100 .703h1.753a9.4 9.4 0 00-.893.771 9.465 9.465 0 00-2.228 3.447H1.238a.352.352 0 000 .703h2.228a9.377 9.377 0 00-.224 4.217H-.513a.352.352 0 000 .703h3.908a9.529 9.529 0 002.346 4.218h-3.16a.352.352 0 000 .703h3.915A9.432 9.432 0 009.595 23.3c.977.322 1.97.475 2.947.475 3.968 0 7.672-2.522 8.978-6.491a9.38 9.38 0 00-.537-7.21zm-6.852-5.06l.484-1.467 2.68.882-.483 1.468a9.59 9.59 0 00-2.68-.883z"/><path d="M5.484 12.003c-1.282 3.896.843 8.109 4.739 9.39a7.406 7.406 0 005.677-.423 7.39 7.39 0 003.715-4.314l.003-.008.003-.01c1.27-3.89-.857-8.094-4.744-9.374a7.405 7.405 0 00-4.47-.06c-.416.126-.82.288-1.208.484a7.393 7.393 0 00-3.715 4.315zm13.568 4.083l-4.982-1.64a1.512 1.512 0 00-.158-.815 1.511 1.511 0 00-.561-.611l1.636-4.97a6.747 6.747 0 014.065 8.036zm-6.13-1.039a.82.82 0 11-.113-1.508s0 0 0 0a.815.815 0 01.521 1.033c.001 0 .001 0 0 0 0 0 0 0 0 0a.812.812 0 01-.408.475zm-.38-7.457c.595 0 1.192.08 1.778.24l-1.637 4.97a1.513 1.513 0 00-1.059.311L9.28 10.973a.352.352 0 00-.473.52l2.376 2.166a1.513 1.513 0 00.013 1.343 1.511 1.511 0 001.19.826l.119 1.022a.352.352 0 10.698-.081l-.12-1.026a1.511 1.511 0 00.768-.63l4.983 1.642a6.68 6.68 0 01-2.931 3.416l-.393-.777a.351.351 0 10-.627.316l.392.78a6.679 6.679 0 01-4.495.338l.274-.831a.351.351 0 10-.668-.22l-.274.83a6.708 6.708 0 01-3.41-2.944l.775-.39a.351.351 0 10-.316-.628l-.775.39a6.71 6.71 0 01-.33-4.49l.818.27a.35.35 0 00.444-.223.351.351 0 00-.224-.444l-.818-.27a6.683 6.683 0 012.939-3.4l.385.761a.352.352 0 10.627-.317l-.384-.76a6.688 6.688 0 012.7-.572z"/></g><defs><clipPath id="clip0"><path fill="#fff" d="M0 0h24v24H0z"/></clipPath></defs></svg>