<svg width="100" height="100" viewBox="0 0 100 100" fill="none" xmlns="http://www.w3.org/2000/svg">
<path d="M85.0774 61.0001C84.0912 61.0001 83.1657 61.0155 82.2554 60.9849C82.1498 60.9849 81.9826 60.7244 81.9826 60.5866C81.9522 59.6826 81.9674 58.7941 81.9674 57.8901C81.9674 54.4124 81.9674 50.9347 81.9674 47.4569C81.9674 46.7828 82.1498 46.216 82.7713 45.8942C83.4088 45.5725 84.0304 45.6644 84.5919 46.124C84.6975 46.216 84.9407 46.2619 85.0622 46.2007C87.1252 45.3274 88.9905 45.6797 90.7047 47.0433C90.7807 47.1045 90.8567 47.1505 90.9319 47.1965C91.3263 46.936 91.7054 46.6603 92.115 46.4304C95.5585 44.4541 99.8964 46.936 99.9724 50.9347C100.033 54.106 99.9724 57.2774 99.9876 60.4334C99.9876 60.8469 99.8508 60.9695 99.4413 60.9543C98.6078 60.9236 97.7735 60.9388 96.8632 60.9388C96.8632 60.6937 96.8632 60.4793 96.8632 60.2648C96.8632 57.2467 96.8632 54.2285 96.8632 51.1951C96.8632 49.9695 96.1497 49.1268 94.9514 48.897C93.9051 48.6978 92.7221 49.5558 92.5701 50.6282C92.5397 50.904 92.5245 51.1798 92.5245 51.4555C92.5245 54.3665 92.5245 57.2774 92.5245 60.1883C92.5245 60.4179 92.4941 60.6478 92.4789 60.9388C91.5086 60.9388 90.5984 60.9543 89.6729 60.9236C89.5673 60.9236 89.4305 60.7398 89.4001 60.6173C89.3545 60.4486 89.3849 60.2496 89.3849 60.0657C89.3849 57.0628 89.3849 54.06 89.3849 51.0572C89.3849 50.1533 88.945 49.5252 88.2018 49.1115C87.4587 48.6978 86.7004 48.7744 86.0021 49.2647C85.411 49.6937 85.0622 50.2606 85.0774 51.0266C85.0774 54.1213 85.0774 57.2161 85.0774 60.3108C85.0774 60.5253 85.0774 60.7092 85.0774 61.0001Z" fill="#272727"/>
<path d="M77.2501 51.3634C77.2501 52.6197 77.2501 53.8913 77.2501 55.1476C77.2349 58.227 74.8231 60.8928 71.7895 61.2911C68.5737 61.72 65.5097 59.6058 64.8575 56.3579C64.7513 55.8676 64.7057 55.3467 64.7057 54.8411C64.6905 52.3899 64.6905 49.9386 64.7057 47.4873C64.7057 46.2158 65.6461 45.4497 66.7686 45.7868C67.3603 45.9706 67.7242 46.3843 67.8 46.9971C67.8608 47.518 67.8608 48.0542 67.8608 48.5904C67.8608 50.7352 67.8608 52.8802 67.876 55.0097C67.876 56.7715 69.0287 58.0431 70.8641 58.1963C72.3204 58.3036 73.7006 57.2771 74.095 55.6532C74.1406 55.454 74.1406 55.2548 74.1406 55.0557C74.1406 52.4971 74.1406 49.9233 74.1406 47.3648C74.1406 46.7366 74.3833 46.2617 74.9142 45.9553C75.4603 45.6336 76.0365 45.6795 76.5674 46.0166C77.0679 46.3383 77.2653 46.8286 77.2653 47.4107C77.2501 48.7283 77.2501 50.0459 77.2501 51.3634Z" fill="#272727"/>
<path d="M56.9243 60.9542C56.9091 60.663 56.894 60.4485 56.894 60.234C56.894 53.9221 56.8788 47.61 56.9091 41.298C56.9091 40.7618 56.985 40.1949 57.1822 39.7047C57.4249 39.0765 58.0317 38.954 58.6382 39.0152C59.2754 39.0765 59.7304 39.3983 59.9276 40.0264C60.0187 40.3022 60.0338 40.6086 60.0338 40.8843C60.049 42.2785 60.0642 43.6726 60.0338 45.0515C60.0187 45.603 60.2006 45.7716 60.7164 45.7103C61.0805 45.6796 61.4445 45.7103 61.8086 45.7103C62.1423 45.695 62.2635 45.8482 62.2484 46.1699C62.2332 46.9206 62.2332 47.6713 62.2484 48.422C62.2484 48.759 62.112 48.8663 61.7934 48.8663C61.3839 48.8509 60.9591 48.8816 60.5496 48.8509C60.1703 48.8204 60.0338 48.9736 60.049 49.3565C60.0642 50.1991 60.049 51.0418 60.049 51.8844C60.049 54.7033 60.0338 57.5224 60.0642 60.3414C60.0642 60.8161 59.9428 60.9848 59.4574 60.9542C58.6231 60.9235 57.8039 60.9542 56.9243 60.9542Z" fill="#272727"/>
<path d="M49.0976 50.4597C49.0976 47.2271 49.0976 43.9791 49.0976 40.7465C49.0976 39.6281 49.6738 39 50.6599 39C51.6307 39 52.2223 39.6741 52.2223 40.7772C52.2223 47.273 52.2223 53.7689 52.2375 60.2648C52.2375 60.8162 52.0857 61.0155 51.5396 60.9695C50.9046 60.9695 50.4999 60.9695 49.7953 60.9695C49.2644 61.0155 49.0824 60.8776 49.0976 60.2954C49.128 57.0169 49.0976 53.7383 49.0976 50.4597Z" fill="#272727"/>
<path d="M44.3953 52.6506C44.3953 50.8734 44.3953 49.0962 44.3953 47.3191C44.3953 46.4764 43.9251 45.8789 43.1817 45.7257C42.211 45.5418 41.5891 46.0015 41.2099 47.1811C37.4482 44.592 33.4133 45.6951 31.2595 47.8093C28.5746 50.429 27.8617 54.3205 29.97 57.5531C32.7915 61.8888 36.811 62.379 41.2706 59.9277C41.2706 60.1728 41.2857 60.3721 41.2706 60.5711C41.2402 60.9388 41.3918 61.0307 41.7559 61.0001C42.5049 61.0001 43.0732 61.0025 43.7193 61.0025C44.235 61.0332 44.4105 60.8317 44.3953 60.3415C44.3802 57.7829 44.3953 55.209 44.3953 52.6506ZM36.6442 58.3191C33.929 58.3191 31.9723 56.3581 31.9268 53.6464C31.8661 50.7355 34.2931 48.8205 36.629 48.851C39.2229 48.8817 41.2857 50.9653 41.2857 53.5851C41.3161 55.9597 39.5111 58.3191 36.6442 58.3191Z" fill="#272727"/>
<path d="M60.0794 60.9542C60.0945 60.663 60.1097 60.4485 60.1097 60.234C60.1097 53.9221 60.1249 47.61 60.0945 41.298C60.0945 40.7618 60.0186 40.1949 59.8215 39.7047C59.5788 39.0765 58.972 38.954 58.3654 39.0152C57.7283 39.0765 57.2733 39.3983 57.0761 40.0264C56.985 40.3022 56.9699 40.6086 56.9699 40.8843C56.9547 42.2785 56.9395 43.6726 56.9699 45.0515C56.985 45.603 56.8031 45.7716 56.2873 45.7103C55.9232 45.6796 55.5592 45.7103 55.1951 45.7103C54.8614 45.695 54.7401 45.8482 54.7553 46.1699C54.7705 46.9206 54.7705 47.6713 54.7553 48.422C54.7553 48.759 54.8917 48.8663 55.2103 48.8663C55.6198 48.8509 56.0446 48.8816 56.4541 48.8509C56.8334 48.8204 56.9699 48.9736 56.9547 49.3565C56.9395 50.1991 56.9547 51.0418 56.9547 51.8844C56.9547 54.7033 56.9699 57.5224 56.9395 60.3414C56.9395 60.8161 57.0609 60.9848 57.5463 60.9542C58.3806 60.9235 59.1998 60.9542 60.0794 60.9542Z" fill="#272727"/>
<path d="M12.2124 52.2761L4.26295 45.7948L15.1644 46.2907C15.8556 46.315 16.2777 47.0716 15.9426 47.6856L13.5929 51.9906C13.317 52.4961 12.6612 52.6317 12.2124 52.2761Z" fill="#272727"/>
<path d="M21.5619 41.6731C22.5168 41.6731 23.1445 42.6849 22.7312 43.5585L14.4513 61.0668C14.3845 61.2079 14.187 61.2094 14.1184 61.0693L12.9522 58.69C12.6927 58.1608 12.6937 57.5385 12.9548 57.0101L18.2178 46.3579C18.5209 45.7444 18.095 45.0187 17.419 44.997L4.15388 44.5718C3.75245 44.5589 3.36602 44.414 3.0528 44.159L0 41.6731H21.5619Z" fill="#272727"/>
</svg>
