<svg width="100" height="100" viewBox="0 0 100 100" fill="none" xmlns="http://www.w3.org/2000/svg">
<path d="M25.6775 65.7489C24.3734 64.7896 22.5322 65.061 21.5654 66.3553C20.5986 67.6495 20.8721 69.4766 22.1764 70.4361C23.4806 71.3956 25.3218 71.1242 26.2886 69.8298C27.2554 68.5355 26.9819 66.7084 25.6775 65.7489Z" fill="#433298"/>
<path d="M20.6131 59.7099C17.8785 57.6982 14.0181 58.2674 11.9908 60.9812C9.96362 63.6951 10.5371 67.526 13.272 69.5378C16.0066 71.5495 19.867 70.9803 21.8942 68.2665C23.9215 65.5526 23.3479 61.7216 20.6131 59.7099Z" fill="#FFBC0F"/>
<path d="M3.71966 57.1918C7.79908 60.1929 13.5575 59.3438 16.5816 55.2955C19.6056 51.2473 18.7501 45.5326 14.6706 42.5315C10.5912 39.5307 4.83279 40.3797 1.80875 44.428C-1.2153 48.4763 -0.359751 54.1909 3.71966 57.1918Z" fill="#FE803C"/>
<path d="M10.6211 42.9613C13.3831 44.9931 17.282 44.4183 19.3295 41.6773C21.377 38.9363 20.7976 35.0672 18.0356 33.0354C15.2736 31.0035 11.3747 31.5784 9.32732 34.3193C7.27981 37.0603 7.8591 40.9295 10.6211 42.9613Z" fill="#EA5F47"/>
<path d="M22.0636 34.2605C23.3678 35.2199 25.2086 34.9485 26.1755 33.6543C27.1423 32.3601 26.8688 30.5332 25.5646 29.5738C24.2604 28.6144 22.4195 28.8859 21.4527 30.1801C20.486 31.4743 20.7595 33.3012 22.0636 34.2605Z" fill="#4EA99C"/>
<path d="M38.8821 49.6361V50.4886C38.8821 52.1935 38.3199 53.5905 37.1951 54.6798C36.0705 55.7573 34.6026 56.296 32.7912 56.296C30.8735 56.296 29.2871 55.6744 28.0322 54.4311C26.7892 53.188 26.1677 51.6607 26.1677 49.8492C26.1677 48.0495 26.7892 46.5281 28.0322 45.285C29.2871 44.0299 30.838 43.4025 32.6847 43.4025C33.8449 43.4025 34.9045 43.6689 35.8634 44.2017C36.8222 44.7344 37.5681 45.4507 38.1007 46.3506L36.3427 47.3628C36.0114 46.7709 35.52 46.2973 34.8689 45.942C34.2179 45.5751 33.4897 45.3916 32.6847 45.3916C31.3825 45.3916 30.3111 45.8178 29.4706 46.6702C28.6301 47.5227 28.2099 48.5882 28.2099 49.867C28.2099 51.1456 28.6301 52.2052 29.4706 53.046C30.323 53.8866 31.4357 54.3069 32.809 54.3069C33.91 54.3069 34.8039 54.0523 35.4905 53.5431C36.1889 53.0222 36.6329 52.3296 36.8222 51.4653H32.667V49.6361H38.8821Z" fill="black"/>
<path d="M43.679 54.1115H49.1839V56.0651H41.6369V43.6334H49.0951V45.5869H43.679V48.8192H48.6511V50.755H43.679V54.1115Z" fill="black"/>
<path d="M59.3994 43.6334H61.4415V56.0651H59.8433L53.9832 47.6293V56.0651H51.9411V43.6334H53.5394L59.3994 52.0691V43.6334Z" fill="black"/>
<path d="M66.854 54.1115H72.3589V56.0651H64.812V43.6334H72.2701V45.5869H66.854V48.8192H71.8261V50.755H66.854V54.1115Z" fill="black"/>
<path d="M79.2538 56.296C78.058 56.296 77.0399 56.0237 76.1994 55.479C75.3707 54.9343 74.7906 54.1885 74.4591 53.2412L76.2171 52.2112C76.7144 53.6083 77.7442 54.3069 79.307 54.3069C80.0765 54.3069 80.6506 54.1588 81.0295 53.8628C81.4201 53.555 81.6155 53.1584 81.6155 52.6729C81.6155 52.1639 81.4082 51.7791 80.9939 51.5185C80.5796 51.2463 79.8456 50.9504 78.792 50.6306C78.2001 50.453 77.7206 50.2873 77.3536 50.1334C76.9866 49.9795 76.596 49.7663 76.1816 49.4941C75.7791 49.2099 75.4773 48.8606 75.276 48.4462C75.0748 48.0318 74.9741 47.5463 74.9741 46.9899C74.9741 45.8888 75.3648 45.0186 76.1461 44.3792C76.9275 43.728 77.8686 43.4025 78.9696 43.4025C79.964 43.4025 80.8341 43.6451 81.5799 44.1306C82.3257 44.616 82.8999 45.285 83.3024 46.1374L81.5799 47.132C81.059 45.9717 80.1889 45.3916 78.9696 45.3916C78.3776 45.3916 77.9041 45.5336 77.549 45.8178C77.1939 46.0901 77.0163 46.4631 77.0163 46.9366C77.0163 47.3983 77.1939 47.7654 77.549 48.0378C77.916 48.2982 78.573 48.5765 79.52 48.8724C79.9936 49.0264 80.3369 49.1448 80.55 49.2277C80.7749 49.2987 81.0827 49.4171 81.4734 49.5828C81.8759 49.7486 82.1777 49.9144 82.379 50.0801C82.5802 50.2458 82.7934 50.453 83.0182 50.7017C83.2551 50.9504 83.4208 51.2344 83.5155 51.5542C83.6103 51.8738 83.6576 52.2349 83.6576 52.6374C83.6576 53.7622 83.2491 54.6562 82.4323 55.3191C81.6273 55.9703 80.5678 56.296 79.2538 56.296Z" fill="black"/>
<path d="M86.2181 43.6334H88.2602V56.0651H86.2181V43.6334Z" fill="black"/>
<path d="M95.5963 56.296C94.4005 56.296 93.3824 56.0237 92.5419 55.479C91.7133 54.9343 91.1331 54.1885 90.8016 53.2412L92.5596 52.2112C93.0569 53.6083 94.0869 54.3069 95.6495 54.3069C96.419 54.3069 96.9931 54.1588 97.372 53.8628C97.7626 53.555 97.958 53.1584 97.958 52.6729C97.958 52.1639 97.7508 51.7791 97.3365 51.5185C96.9221 51.2463 96.1881 50.9504 95.1345 50.6306C94.5426 50.453 94.0631 50.2873 93.6961 50.1334C93.3291 49.9795 92.9385 49.7663 92.5241 49.4941C92.1216 49.2099 91.8198 48.8606 91.6185 48.4462C91.4173 48.0318 91.3166 47.5463 91.3166 46.9899C91.3166 45.8888 91.7073 45.0186 92.4886 44.3792C93.27 43.728 94.2111 43.4025 95.3121 43.4025C96.3065 43.4025 97.1766 43.6451 97.9225 44.1306C98.6683 44.616 99.2424 45.285 99.6449 46.1374L97.9225 47.132C97.4015 45.9717 96.5315 45.3916 95.3121 45.3916C94.7201 45.3916 94.2466 45.5336 93.8915 45.8178C93.5364 46.0901 93.3588 46.4631 93.3588 46.9366C93.3588 47.3983 93.5364 47.7654 93.8915 48.0378C94.2585 48.2982 94.9155 48.5765 95.8626 48.8724C96.3361 49.0264 96.6794 49.1448 96.8925 49.2277C97.1175 49.2987 97.4253 49.4171 97.8159 49.5828C98.2184 49.7486 98.5203 49.9144 98.7215 50.0801C98.9228 50.2458 99.1359 50.453 99.3609 50.7017C99.5976 50.9504 99.7634 51.2344 99.858 51.5542C99.9528 51.8738 100 52.2349 100 52.6374C100 53.7622 99.5916 54.6562 98.7749 55.3191C97.9698 55.9703 96.9103 56.296 95.5963 56.296Z" fill="black"/>
</svg>
