<svg width="100" height="100" viewBox="0 0 100 100" fill="none" xmlns="http://www.w3.org/2000/svg">
<path d="M21.9373 42.976H24.4989V49.0759H24.6209L30.5778 42.976H34.034L27.3046 49.6249L34.4812 57.3717H30.8827L24.6412 50.2958H24.4989V57.3717H21.9373V42.976ZM41.7305 56.0297H41.6695C41.3171 56.5855 40.8699 56.9921 40.3277 57.2497C39.7855 57.4937 39.1892 57.6157 38.5386 57.6157C38.0913 57.6157 37.6508 57.5547 37.2171 57.4327C36.7969 57.3107 36.4175 57.1277 36.0786 56.8837C35.7533 56.6397 35.489 56.3347 35.2857 55.9687C35.0824 55.6027 34.9808 55.1757 34.9808 54.6878C34.9808 54.1591 35.0756 53.7118 35.2654 53.3458C35.4551 52.9662 35.7059 52.6545 36.0176 52.4105C36.3429 52.1529 36.7156 51.9496 37.1358 51.8005C37.556 51.6514 37.9897 51.5429 38.437 51.4751C38.8978 51.3938 39.3586 51.3464 39.8194 51.3328C40.2803 51.3057 40.714 51.2922 41.1206 51.2922H41.7305V51.0278C41.7305 50.4178 41.5204 49.9638 41.1003 49.6655C40.6801 49.3538 40.1447 49.1979 39.4941 49.1979C38.9791 49.1979 38.4979 49.2928 38.0507 49.4825C37.6034 49.6588 37.2171 49.9028 36.8918 50.2145L35.611 48.9335C36.1532 48.3778 36.7834 47.9779 37.5017 47.7339C38.2336 47.4899 38.9859 47.3679 39.7584 47.3679C40.4497 47.3679 41.0325 47.4492 41.5069 47.6119C41.9812 47.761 42.3743 47.9576 42.686 48.2015C42.9978 48.4455 43.235 48.7302 43.3976 49.0555C43.5738 49.3673 43.6958 49.6859 43.7636 50.0112C43.8449 50.3365 43.8923 50.6551 43.9059 50.9668C43.9194 51.2651 43.9262 51.5294 43.9262 51.7598V57.3717H41.7305V56.0297ZM41.5882 53.0001H41.0799C40.7411 53.0001 40.3616 53.0137 39.9414 53.0408C39.5212 53.0679 39.1214 53.1357 38.7419 53.2441C38.376 53.339 38.0642 53.4881 37.8067 53.6914C37.5492 53.8812 37.4204 54.1523 37.4204 54.5048C37.4204 54.7352 37.4678 54.9317 37.5627 55.0944C37.6712 55.2435 37.8067 55.3723 37.9693 55.4807C38.132 55.5892 38.315 55.6705 38.5183 55.7247C38.7216 55.7654 38.9249 55.7857 39.1282 55.7857C39.9685 55.7857 40.5852 55.5892 40.9783 55.1961C41.3849 54.7894 41.5882 54.2404 41.5882 53.5491V53.0001ZM45.2296 47.6119H47.8726L49.9869 54.4438H50.0276L51.9996 47.6119H54.6425L56.7569 54.4438H56.7976L58.8306 47.6119H61.2906L57.9767 57.3717H55.5574L53.2397 50.7025H53.1991L51.1457 57.3717H48.6248L45.2296 47.6119ZM68.8312 56.0297H68.7702C68.418 56.5855 67.9707 56.9921 67.4284 57.2497C66.8861 57.4937 66.2899 57.6157 65.6393 57.6157C65.1921 57.6157 64.7514 57.5547 64.3178 57.4327C63.8975 57.3107 63.5183 57.1277 63.1793 56.8837C62.854 56.6397 62.5897 56.3347 62.3864 55.9687C62.1831 55.6027 62.0815 55.1757 62.0815 54.6878C62.0815 54.1591 62.1765 53.7118 62.3661 53.3458C62.5557 52.9662 62.8068 52.6545 63.1183 52.4105C63.4436 52.1529 63.8162 51.9496 64.2365 51.8005C64.6569 51.6514 65.0904 51.5429 65.5377 51.4751C65.9987 51.3938 66.4592 51.3464 66.9202 51.3328C67.3811 51.3057 67.8147 51.2922 68.2213 51.2922H68.8312V51.0278C68.8312 50.4178 68.6213 49.9638 68.201 49.6655C67.7806 49.3538 67.2454 49.1979 66.5949 49.1979C66.08 49.1979 65.5987 49.2928 65.1514 49.4825C64.7041 49.6588 64.3178 49.9028 63.9926 50.2145L62.7117 48.9335C63.2541 48.3778 63.8843 47.9779 64.6025 47.7339C65.3344 47.4899 66.0866 47.3679 66.8592 47.3679C67.5504 47.3679 68.1334 47.4492 68.6076 47.6119C69.0818 47.761 69.4752 47.9576 69.7868 48.2015C70.0983 48.4455 70.3357 48.7302 70.4983 49.0555C70.6747 49.3673 70.7967 49.6859 70.8643 50.0112C70.9456 50.3365 70.9929 50.6551 71.0066 50.9668C71.0203 51.2651 71.0269 51.5294 71.0269 51.7598V57.3717H68.8312V56.0297ZM68.6889 53.0001H68.1806C67.8416 53.0001 67.4625 53.0137 67.0421 53.0408C66.6218 53.0679 66.2223 53.1357 65.8426 53.2441C65.4767 53.339 65.1651 53.4881 64.9074 53.6914C64.6497 53.8812 64.5212 54.1523 64.5212 54.5048C64.5212 54.7352 64.5684 54.9317 64.6635 55.0944C64.7717 55.2435 64.9074 55.3723 65.0701 55.4807C65.2327 55.5892 65.4157 55.6705 65.619 55.7247C65.8223 55.7654 66.0256 55.7857 66.2289 55.7857C67.0691 55.7857 67.6861 55.5892 68.079 55.1961C68.4856 54.7894 68.6889 54.2404 68.6889 53.5491V53.0001ZM73.6928 42H76.1324V57.3717H73.6928V42ZM80.8847 53.3458C80.966 54.0778 81.2506 54.6471 81.7386 55.0537C82.2265 55.4604 82.8161 55.6637 83.5073 55.6637C84.1173 55.6637 84.6255 55.5417 85.0321 55.2977C85.4525 55.0402 85.8184 54.7217 86.13 54.3421L87.8784 55.6637C87.3092 56.3686 86.6723 56.8701 85.9673 57.1684C85.2624 57.4666 84.5239 57.6157 83.7513 57.6157C83.0194 57.6157 82.3282 57.4937 81.6776 57.2497C81.027 57.0057 80.4644 56.6601 79.9902 56.2127C79.5159 55.7654 79.1363 55.23 78.8516 54.6064C78.5807 53.9693 78.445 53.2644 78.445 52.4918C78.445 51.7191 78.5807 51.0211 78.8516 50.3975C79.1363 49.7604 79.5159 49.2182 79.9902 48.7709C80.4644 48.3235 81.027 47.9779 81.6776 47.7339C82.3282 47.4899 83.0194 47.3679 83.7513 47.3679C84.4288 47.3679 85.0459 47.4899 85.6014 47.7339C86.1706 47.9643 86.652 48.3032 87.0449 48.7505C87.4515 49.1979 87.763 49.7536 87.9801 50.4178C88.2103 51.0685 88.3257 51.8208 88.3257 52.6748V53.3458H80.8847ZM85.886 51.5158C85.8723 50.7974 85.6487 50.2348 85.2151 49.8282C84.7816 49.408 84.1783 49.1979 83.4057 49.1979C82.6738 49.1979 82.0908 49.408 81.6573 49.8282C81.2369 50.2484 80.9797 50.8109 80.8847 51.5158H85.886ZM92.559 53.3458C92.6403 54.0778 92.925 54.6471 93.4129 55.0537C93.9008 55.4604 94.4904 55.6637 95.1816 55.6637C95.7916 55.6637 96.2998 55.5417 96.7064 55.2977C97.1268 55.0402 97.4927 54.7217 97.8043 54.3421L99.5527 55.6637C98.9835 56.3686 98.3466 56.8701 97.6416 57.1684C96.9367 57.4666 96.1982 57.6157 95.4256 57.6157C94.6937 57.6157 94.0025 57.4937 93.3519 57.2497C92.7013 57.0057 92.1387 56.6601 91.6645 56.2127C91.1903 55.7654 90.8106 55.23 90.526 54.6064C90.2551 53.9693 90.1193 53.2644 90.1193 52.4918C90.1193 51.7191 90.2551 51.0211 90.526 50.3975C90.8106 49.7604 91.1903 49.2182 91.6645 48.7709C92.1387 48.3235 92.7013 47.9779 93.3519 47.7339C94.0025 47.4899 94.6937 47.3679 95.4256 47.3679C96.1031 47.3679 96.7202 47.4899 97.2757 47.7339C97.8449 47.9643 98.3263 48.3032 98.7192 48.7505C99.1258 49.1979 99.4373 49.7536 99.6544 50.4178C99.8846 51.0685 100 51.8208 100 52.6748V53.3458H92.559ZM97.5603 51.5158C97.5466 50.7974 97.323 50.2348 96.8894 49.8282C96.4559 49.408 95.8526 49.1979 95.08 49.1979C94.3481 49.1979 93.7651 49.408 93.3316 49.8282C92.9112 50.2484 92.6541 50.8109 92.559 51.5158H97.5603Z" fill="#272727"/>
<path fill-rule="evenodd" clip-rule="evenodd" d="M7.96369 53.3186C9.77763 53.3697 11.6549 54.2716 13.0759 56.0338C13.3632 56.3901 14.0906 56.8554 13.2354 57.3723C12.6721 57.712 12.206 58.2867 11.4279 57.4383C8.97478 54.7642 6.22045 54.741 3.62822 57.389C2.77142 58.2641 2.3676 57.486 1.85111 57.1849C1.09304 56.7423 1.73584 56.3271 2.01425 55.9779C3.30324 54.3608 5.43538 53.3417 7.96369 53.3186Z" fill="#272727"/>
<path fill-rule="evenodd" clip-rule="evenodd" d="M7.37258 47.0512C7.39281 50.5487 4.70084 53.741 1.4282 54.2229C0.946047 54.2937 0.0962081 54.7458 0.0196647 53.6839C-0.0349805 52.9242 -0.0542904 52.2858 1.07833 52.0645C4.22795 51.4494 5.84403 48.8561 4.95844 45.8589C4.63137 44.7518 5.25983 44.4996 5.96317 44.2331C6.84099 43.9 6.83946 44.7185 6.98422 45.1795C7.19433 45.8501 7.27576 46.5591 7.37258 47.0512Z" fill="#272727"/>
<path fill-rule="evenodd" clip-rule="evenodd" d="M9.26483 44.2019C10.0717 44.1288 10.8234 45.0907 10.6469 45.782C9.78301 49.1648 11.051 51.476 14.4246 52.3321C15.5892 52.6278 15.1769 53.3637 15.1812 53.9657C15.1871 54.7986 14.535 54.5476 14.0551 54.4648C9.77935 53.7301 7.09363 49.154 8.62518 45.2228C8.78697 44.8076 8.92013 44.3703 9.26483 44.2019Z" fill="#272727"/>
</svg>
