<svg width="100" height="100" viewBox="0 0 100 100" fill="none" xmlns="http://www.w3.org/2000/svg">
<path d="M83.7084 71.9676V70.8708H81.29V71.9676H80.3987L80.3368 70.0454H80.3837C80.4881 70.0463 80.592 70.0322 80.6924 70.0034C80.7951 69.9687 80.884 69.9023 80.9464 69.8137C81.0366 69.6837 81.1048 69.5397 81.148 69.3875C81.2202 69.142 81.2733 68.8912 81.3067 68.6375C81.3538 68.3238 81.3932 67.9365 81.425 67.4756C81.4567 67.0148 81.4832 66.4592 81.5043 65.809H84.275V70.0478H84.6631L84.6012 71.97L83.7084 71.9676ZM82.317 67.732C82.2943 68.0447 82.2694 68.3179 82.2424 68.5518C82.2155 68.7851 82.1853 68.9843 82.1528 69.1486C82.1265 69.2906 82.0896 69.4304 82.0424 69.5669C82.0084 69.6668 81.9628 69.7624 81.9067 69.8518C81.8605 69.9238 81.8044 69.989 81.74 70.0454H83.3139V66.6328H82.3837C82.3673 67.0534 82.3464 67.4201 82.321 67.7328L82.317 67.732ZM20.3545 70.2954C19.982 69.723 19.8052 69.0452 19.8505 68.3637C19.8414 67.9611 19.895 67.5595 20.0092 67.1732C20.0989 66.8723 20.249 66.5927 20.4505 66.3518C20.6296 66.1435 20.8552 65.9803 21.1092 65.8756C21.3657 65.77 21.6406 65.7161 21.918 65.7169C22.2035 65.6976 22.4895 65.7477 22.7514 65.8629C23.0133 65.9782 23.2434 66.1552 23.422 66.3788C23.7949 66.952 23.9718 67.6307 23.926 68.3129C23.9348 68.7155 23.8812 69.1171 23.7672 69.5034C23.6775 69.8045 23.527 70.084 23.3252 70.3248C23.1462 70.5333 22.9205 70.6964 22.6664 70.801C22.4101 70.9062 22.1356 70.9601 21.8585 70.9597C21.5733 70.9787 21.2877 70.9283 21.0263 70.8128C20.7649 70.6972 20.5355 70.52 20.3576 70.2962L20.3545 70.2954ZM21.4204 66.6955C21.287 66.7774 21.1776 66.8929 21.1029 67.0304C21.0116 67.2006 20.9494 67.3849 20.9188 67.5756C20.8778 67.8208 20.8584 68.0691 20.8608 68.3177C20.8333 68.7774 20.9163 69.2371 21.1029 69.6581C21.1778 69.8 21.2921 69.9171 21.4321 69.9954C21.5721 70.0737 21.7317 70.1098 21.8918 70.0994C22.0561 70.1043 22.2187 70.0649 22.3624 69.9851C22.4966 69.9042 22.6063 69.7884 22.6799 69.6502C22.7704 69.4801 22.8319 69.2961 22.8617 69.1058C22.9026 68.8606 22.922 68.6123 22.9196 68.3637C22.9476 67.9043 22.866 67.4449 22.6815 67.0232C22.6066 66.8803 22.4915 66.7624 22.3506 66.6839C22.2096 66.6054 22.0488 66.5697 21.8878 66.5812C21.7255 66.5772 21.5652 66.6169 21.4235 66.6963L21.4204 66.6955ZM8.53036 70.8327C8.3587 70.7398 8.21841 70.5981 8.12718 70.4256C8.00999 70.2024 7.93187 69.9608 7.89622 69.7113C7.84225 69.363 7.81255 69.0114 7.80733 68.6589H7.29621V70.8716H6.44222V65.8066H7.29859V67.8701H7.81765C7.83042 67.5331 7.87587 67.1982 7.95337 66.8701C8.0071 66.6344 8.09934 66.4091 8.22639 66.2034C8.32532 66.0449 8.46626 65.9169 8.63354 65.8336C8.80273 65.7551 8.98754 65.716 9.17403 65.7193C9.40923 65.7091 9.64268 65.764 9.84865 65.878C10.0314 65.9936 10.1752 66.1614 10.2614 66.3598C10.3713 66.6148 10.4404 66.8856 10.4661 67.1621C10.5065 67.533 10.5253 67.9058 10.5225 68.2788C10.5275 68.6911 10.4983 69.1031 10.4352 69.5105C10.3927 69.799 10.3049 70.0789 10.1748 70.3399C10.0786 70.5342 9.92881 70.697 9.74309 70.8089C9.55674 70.9101 9.34713 70.9607 9.13514 70.9557C8.92772 70.9636 8.72143 70.9217 8.53354 70.8335L8.53036 70.8327ZM8.91767 66.6145C8.84029 66.7101 8.78598 66.8223 8.75894 66.9423C8.71149 67.1269 8.68147 67.3156 8.66926 67.5058C8.65127 67.7343 8.64227 68.005 8.64227 68.3177C8.64227 68.6558 8.65127 68.9431 8.66926 69.1796C8.68092 69.3738 8.71095 69.5664 8.75894 69.755C8.78578 69.8719 8.8402 69.9808 8.91767 70.0724C8.94809 70.1048 8.98507 70.1303 9.02612 70.1473C9.06718 70.1642 9.11137 70.1723 9.15578 70.1708C9.34202 70.1708 9.47589 70.0248 9.55737 69.7327C9.6547 69.2824 9.69576 68.8218 9.67959 68.3613C9.67959 68.0486 9.67166 67.7756 9.65579 67.5415C9.64631 67.3464 9.61976 67.1526 9.57642 66.9621C9.55043 66.8372 9.49613 66.7199 9.41769 66.6193C9.38735 66.5841 9.3499 66.5557 9.3078 66.5359C9.26571 66.5162 9.21991 66.5057 9.17343 66.5049C9.12695 66.5042 9.08084 66.5133 9.03812 66.5316C8.99541 66.5499 8.95707 66.5771 8.92561 66.6114L8.91767 66.6145ZM67.4254 70.9121C67.2464 70.9101 67.0684 70.8861 66.8952 70.8407L66.9421 70.0153C67.0132 70.0205 67.0847 70.0191 67.1556 70.0113C67.2242 70.0033 67.2898 69.9788 67.3468 69.9399C67.4153 69.8919 67.4733 69.8306 67.5175 69.7597C67.5808 69.6572 67.631 69.5471 67.6667 69.4319C67.7208 69.2627 67.7627 69.0898 67.7921 68.9145C67.8302 68.7081 67.8643 68.4581 67.8969 68.1645C67.9294 67.8709 67.9572 67.5296 67.9762 67.1415C67.9953 66.7534 68.0191 66.3082 68.035 65.8066H70.7977V70.8716H69.8429V66.6502H68.9128C68.89 67.3116 68.8527 67.8814 68.8008 68.3597C68.7613 68.7669 68.6948 69.1709 68.6016 69.5692C68.5411 69.8415 68.4437 70.1043 68.312 70.3502C68.2215 70.5202 68.0914 70.6658 67.9326 70.7748C67.7917 70.8643 67.6288 70.9132 67.4619 70.916L67.4254 70.9121ZM94.311 70.8716V65.8066H95.9467C96.3993 65.7757 96.8507 65.881 97.2428 66.109C97.3867 66.2122 97.502 66.3504 97.5776 66.5105C97.6533 66.6706 97.6869 66.8473 97.6753 67.024C97.6754 67.1487 97.6602 67.2729 97.6301 67.3939C97.6017 67.5109 97.5553 67.6227 97.4928 67.7256C97.4302 67.8267 97.3517 67.917 97.2603 67.9931C97.1622 68.0729 97.0507 68.1344 96.9309 68.1748C97.0574 68.1956 97.1796 68.2369 97.2928 68.297C97.4072 68.3574 97.5096 68.4381 97.5952 68.5351C97.6841 68.6358 97.7538 68.7521 97.8008 68.878C97.8539 69.019 97.8808 69.1685 97.8801 69.3192C97.895 69.541 97.8555 69.7631 97.765 69.9661C97.6746 70.1692 97.5359 70.347 97.3611 70.4843C96.9157 70.7716 96.3899 70.9082 95.861 70.874L94.311 70.8716ZM95.257 70.0923H95.9237C96.0598 70.0947 96.1954 70.0752 96.3253 70.0343C96.4313 70.0013 96.5295 69.9473 96.6142 69.8756C96.6901 69.8089 96.7503 69.7262 96.7904 69.6335C96.8307 69.5392 96.8513 69.4377 96.8507 69.3351C96.8548 69.2355 96.8344 69.1364 96.7914 69.0465C96.7484 68.9566 96.684 68.8786 96.6039 68.8193C96.3789 68.679 96.1151 68.6139 95.8507 68.6335H95.2578L95.257 70.0923ZM95.257 67.9034H95.834C95.9686 67.9072 96.1027 67.8881 96.2309 67.847C96.3294 67.8143 96.4193 67.76 96.4944 67.6883C96.5608 67.6258 96.6111 67.5482 96.6412 67.4621C96.6719 67.3736 96.6872 67.2804 96.6864 67.1867C96.6875 67.0978 96.6716 67.0094 96.6396 66.9264C96.608 66.8488 96.5566 66.7809 96.4904 66.7296C96.4118 66.6705 96.3222 66.6276 96.2269 66.6034C96.0995 66.5716 95.9685 66.5566 95.8372 66.559H95.2602L95.257 67.9034ZM87.6561 70.8716V70.0851H88.7728V66.5852H87.6561V65.8066H90.8569V66.5852H89.7402V70.0851H90.8561V70.8716H87.6561ZM76.8955 70.8716L76.6161 69.8716H74.8486L74.5613 70.8716H73.616L75.1153 65.8066H76.4487L77.9479 70.8716H76.8955ZM75.078 69.0931H76.4066L75.7478 66.7367L75.078 69.0931ZM63.1198 70.8716L61.5967 68.4224V70.8716H60.6284V65.8066H61.5967V68.1121L63.1118 65.8066H64.2626L62.5428 68.2208L64.3523 70.8716H63.1198ZM54.1045 70.8716V65.8066H57.1537V66.6121H55.0727V67.8724H57.0569V68.6589H55.0727V70.0629H57.1537V70.8692L54.1045 70.8716ZM47.1781 70.8716V65.8066H48.6623C48.9568 65.8021 49.2505 65.8379 49.5353 65.9129C49.7657 65.9735 49.9815 66.0795 50.1702 66.2248C50.34 66.3588 50.4744 66.5324 50.5615 66.7304C50.6544 66.9477 50.7001 67.1822 50.6957 67.4185C50.6981 67.6682 50.6534 67.9162 50.5639 68.1494C50.4782 68.3692 50.3445 68.5671 50.1726 68.7288C49.9863 68.8996 49.7659 69.029 49.5258 69.1081C49.2358 69.2037 48.9318 69.2495 48.6266 69.2439H48.1424V70.8716H47.1781ZM48.1385 68.4534H48.6702C48.8191 68.4557 48.9672 68.4327 49.1083 68.3851C49.227 68.3434 49.3353 68.2766 49.4258 68.1891C49.513 68.1024 49.5804 67.9979 49.6234 67.8828C49.6697 67.7556 49.6925 67.6212 49.6909 67.4859C49.6925 67.3608 49.6707 67.2364 49.6266 67.1193C49.5853 67.0115 49.5189 66.9152 49.4329 66.8383C49.338 66.7563 49.2264 66.6956 49.1059 66.6606C48.9536 66.6164 48.7954 66.5956 48.6369 66.5987H48.1369L48.1385 68.4534ZM40.6303 70.8716V65.8066H43.6804V66.6121H41.5994V67.8724H43.5836V68.6589H41.5994V70.0629H43.6804V70.8692L40.6303 70.8716ZM36.2072 70.8716V66.6502H34.5183V70.8748H33.5572V65.8098H37.1691V70.8748L36.2072 70.8716ZM13.494 70.8716V65.8066H14.9781C15.2726 65.8021 15.5664 65.8379 15.8512 65.9129C16.0814 65.9738 16.2973 66.0798 16.4861 66.2248C16.6555 66.3593 16.7897 66.5327 16.8774 66.7304C16.9696 66.9479 17.0151 67.1823 17.0107 67.4185C17.0132 67.6682 16.9685 67.9162 16.879 68.1494C16.7935 68.3694 16.6598 68.5674 16.4877 68.7288C16.3014 68.8996 16.0809 69.029 15.8409 69.1081C15.5512 69.2036 15.2474 69.2495 14.9424 69.2439H14.4575V70.8716H13.494ZM14.4543 68.4534H14.9861C15.1349 68.4558 15.2831 68.4327 15.4242 68.3851C15.5429 68.3434 15.6512 68.2766 15.7416 68.1891C15.8291 68.1026 15.8965 67.9981 15.9393 67.8828C15.9858 67.7557 16.0089 67.6213 16.0075 67.4859C16.0092 67.3608 15.9874 67.2364 15.9432 67.1193C15.902 67.0115 15.8356 66.9152 15.7496 66.8383C15.6546 66.7563 15.5431 66.6956 15.4226 66.6606C15.2702 66.6164 15.1121 66.5956 14.9535 66.5987H14.4535L14.4543 68.4534ZM0 70.8716V65.8066H3.21278V66.5621H0.946055V67.8407H1.62782C1.91781 67.8356 2.20695 67.8735 2.48578 67.9534C2.70551 68.0157 2.91095 68.1203 3.09055 68.2613C3.24417 68.3853 3.36627 68.5438 3.44691 68.724C3.56972 69.021 3.59751 69.3487 3.52644 69.662C3.45538 69.9754 3.28896 70.2591 3.05007 70.474C2.60583 70.7676 2.07736 70.9071 1.54607 70.8708L0 70.8716ZM0.946055 70.1081H1.61274C1.74929 70.1106 1.88522 70.0892 2.01434 70.0446C2.12101 70.0064 2.21916 69.9476 2.30323 69.8716C2.37914 69.8012 2.4392 69.7154 2.47942 69.62C2.55707 69.4273 2.55707 69.212 2.47942 69.0192C2.44101 68.9276 2.37948 68.8475 2.30085 68.7867C2.20834 68.7169 2.10285 68.6662 1.99053 68.6375C1.84197 68.5998 1.68901 68.5821 1.53576 68.5851H0.942882L0.946055 70.1081ZM30.411 58.9884L1.96672 44.9712L0.00952486 44.0069V43.1061L1.96672 42.1419L30.6626 28H33.654V29.3547L4.83742 43.5553L33.6548 57.7615V58.9924L30.411 58.9884ZM68.4826 58.9519V56.4202H100.001V58.9519H68.4826ZM35.5532 58.9519V28.2079H38.1215V56.4202H67.0699V58.9519H35.5532ZM68.4826 44.7886V44.1466V28.2643V28.0944H100.001V30.6254H71.0485V42.2569H100.001V44.7879L68.4826 44.7886Z" fill="#272727"/>
</svg>
