<?xml version="1.0" standalone="no"?>
<!DOCTYPE svg PUBLIC "-//W3C//DTD SVG 20010904//EN"
 "http://www.w3.org/TR/2001/REC-SVG-20010904/DTD/svg10.dtd">
<svg version="1.0" xmlns="http://www.w3.org/2000/svg"
 width="120" height="120" viewBox="0 0 900.000000 900.000000"
 preserveAspectRatio="xMidYMid meet">

<g transform="translate(0.000000,900.000000) scale(0.100000,-0.100000)"
fill="#000000" stroke="none">
<path d="M4255 8989 c-1408 -74 -2714 -822 -3499 -2004 -412 -619 -643 -1258
-732 -2020 -22 -185 -25 -707 -6 -885 77 -708 281 -1325 626 -1894 295 -486
689 -925 1135 -1265 665 -505 1416 -803 2263 -898 213 -23 703 -23 916 0 1077
121 2020 580 2767 1348 712 732 1135 1636 1252 2671 24 212 23 702 0 916 -24
210 -60 416 -107 607 -317 1289 -1190 2376 -2384 2966 -557 276 -1135 425
-1767 459 -212 11 -243 11 -464 -1z m755 -93 c432 -57 805 -155 1175 -306 154
-63 451 -213 585 -295 1028 -626 1748 -1602 2030 -2750 88 -359 123 -654 123
-1045 0 -397 -37 -705 -129 -1071 -397 -1583 -1640 -2826 -3223 -3223 -366
-92 -674 -129 -1071 -129 -398 0 -691 35 -1065 128 -1467 362 -2657 1465
-3139 2906 -336 1006 -291 2123 124 3104 362 857 996 1587 1800 2073 539 326
1145 534 1770 606 205 24 202 24 560 21 241 -2 370 -7 460 -19z"/>
<path d="M4175 8844 c-744 -60 -1473 -311 -2080 -717 -1394 -932 -2134 -2554
-1915 -4198 154 -1151 759 -2189 1688 -2897 1151 -877 2671 -1123 4037 -655
640 220 1185 561 1671 1047 486 486 826 1030 1047 1673 154 448 229 904 230
1393 0 355 -28 625 -99 944 -378 1702 -1743 3024 -3453 3346 -266 50 -402 62
-746 65 -181 1 -352 1 -380 -1z m780 -198 c525 -64 967 -196 1420 -426 414
-209 739 -445 1071 -775 604 -602 1005 -1362 1158 -2195 53 -288 61 -391 61
-755 -1 -382 -14 -526 -81 -849 -314 -1506 -1454 -2732 -2939 -3158 -178 -51
-420 -101 -633 -130 -147 -20 -209 -22 -512 -22 -388 0 -528 13 -854 80 -982
205 -1863 765 -2477 1576 -447 590 -716 1257 -816 2023 -28 217 -26 780 5
1001 102 751 374 1417 819 2002 723 951 1808 1542 3013 1642 154 13 612 4 765
-14z"/>
<path d="M4315 8593 c-613 -35 -1142 -175 -1660 -438 -1151 -583 -1958 -1662
-2189 -2925 -49 -270 -60 -403 -60 -730 0 -317 10 -446 55 -710 155 -895 627
-1739 1314 -2349 646 -573 1407 -912 2280 -1017 205 -25 690 -25 885 -1 407
51 714 127 1060 264 1319 521 2279 1689 2534 3083 48 264 60 412 60 735 0 311
-9 422 -55 693 -109 651 -403 1306 -823 1836 -673 850 -1631 1392 -2703 1531
-219 28 -505 40 -698 28z m355 -73 c306 -16 537 -49 802 -115 1033 -259 1922
-918 2479 -1837 658 -1084 758 -2441 268 -3612 -517 -1233 -1615 -2138 -2913
-2401 -549 -111 -1063 -111 -1612 0 -1077 218 -2025 880 -2616 1825 -735 1178
-806 2660 -186 3904 200 402 463 761 795 1086 453 444 960 754 1553 950 356
118 692 181 1065 199 83 5 155 9 160 9 6 1 98 -3 205 -8z"/>
<path d="M4312 8269 c-331 -16 -583 -61 -974 -176 -12 -4 -17 2 -20 23 -2 16
-10 30 -19 32 -8 1 -51 -21 -95 -49 -43 -29 -108 -65 -142 -80 -35 -16 -71
-38 -80 -49 -10 -10 -80 -50 -157 -89 -169 -84 -373 -206 -513 -307 -101 -72
-105 -74 -163 -74 l-59 0 0 -48 c0 -48 0 -49 -84 -121 -122 -105 -337 -328
-445 -464 l-94 -118 -14 33 c-13 30 -29 47 -45 48 -4 0 -10 -17 -13 -37 -18
-119 -28 -152 -64 -213 -22 -36 -42 -75 -46 -88 -6 -19 -88 -167 -101 -181 -2
-2 -10 1 -17 7 -20 17 -27 4 -27 -50 0 -65 -32 -128 -64 -128 -29 0 -36 -16
-36 -82 0 -38 -10 -71 -45 -144 -25 -51 -45 -98 -45 -105 0 -6 -20 -73 -44
-148 -53 -166 -92 -317 -121 -476 l-22 -120 -47 -3 c-27 -2 -69 1 -94 7 -84
18 -96 -14 -31 -84 31 -34 46 -61 58 -108 14 -53 21 -64 48 -77 25 -11 33 -21
33 -42 0 -26 0 -27 -56 -21 -56 6 -56 6 -49 -17 4 -13 27 -63 50 -111 l42 -86
7 -154 c29 -648 208 -1263 513 -1772 34 -56 37 -73 22 -127 -3 -10 7 -16 32
-20 34 -5 44 -15 119 -120 221 -310 516 -616 806 -837 556 -423 1214 -681
1924 -755 159 -16 558 -16 720 1 873 89 1654 454 2278 1066 683 668 1072 1520
1133 2480 6 99 15 188 20 198 6 11 6 17 -1 17 -14 0 -13 142 1 173 8 18 7 33
-6 63 -9 21 -19 67 -22 102 -5 57 -4 62 14 62 35 0 69 36 106 112 44 90 57
148 33 148 -9 0 -16 -4 -16 -9 0 -22 -68 -81 -93 -81 -59 0 -75 17 -88 94 -32
197 -134 549 -214 742 -20 48 -32 90 -28 103 3 14 1 21 -9 21 -7 0 -28 29 -46
65 -25 52 -32 78 -32 126 0 59 0 60 -26 57 -24 -3 -29 2 -45 52 -31 90 -29 86
-39 71 -6 -10 -14 -4 -32 25 -14 21 -37 58 -52 82 -17 27 -25 50 -21 63 5 14
0 21 -18 28 -14 6 -46 39 -72 75 -44 61 -46 68 -36 98 18 52 13 85 -19 121
-16 19 -30 39 -30 45 0 31 -23 17 -40 -24 -11 -26 -22 -45 -24 -43 -2 2 -32
38 -67 79 -92 109 -271 291 -366 373 l-83 71 0 53 0 53 -65 0 c-64 0 -65 0
-167 73 -214 152 -425 273 -657 377 -284 127 -341 164 -341 225 0 22 -17 18
-47 -11 l-26 -26 -48 48 c-57 56 -79 55 -79 -6 0 -23 -4 -39 -9 -36 -18 11
-267 64 -396 85 -240 38 -523 52 -773 40z m633 -93 c196 -26 195 -26 195 -50
0 -12 9 -39 20 -61 11 -21 17 -41 14 -44 -3 -3 -40 7 -82 23 -97 36 -126 38
-130 10 -3 -19 -11 -22 -66 -26 -77 -7 -155 -41 -217 -96 l-45 -41 -61 55
c-34 30 -64 54 -67 54 -3 0 -135 -112 -292 -250 -158 -137 -291 -250 -297
-250 -5 0 14 19 43 43 28 23 46 43 38 44 -105 14 -116 32 -35 59 95 31 107 40
107 82 0 57 8 63 83 60 36 -1 69 1 73 5 4 4 -1 23 -12 42 l-19 35 58 57 c31
30 57 59 57 64 0 11 -39 21 -71 18 -64 -6 -78 0 -106 44 -14 23 -33 48 -42 55
-29 23 -96 6 -240 -62 -129 -61 -181 -78 -181 -58 0 4 26 32 57 62 32 30 63
63 68 72 12 19 133 42 340 63 169 18 655 13 810 -9z m518 -101 c36 -10 46 -20
70 -64 29 -53 30 -81 2 -81 -18 0 -107 86 -144 138 l-23 33 27 -7 c14 -3 45
-12 68 -19z m-2082 -86 c-29 -27 -58 -48 -65 -46 -6 2 -11 17 -11 33 0 26 5
31 50 46 79 26 84 21 26 -33z m609 -98 c0 -10 -122 -76 -181 -96 -29 -11 -46
-12 -53 -5 -18 18 27 50 110 80 81 30 124 37 124 21z m1155 -10 c300 -64 335
-74 335 -96 0 -14 -28 -26 -190 -76 -107 -34 -182 -41 -203 -20 -14 14 -3 23
63 48 25 9 51 22 59 29 12 11 11 15 -10 22 -13 5 -53 13 -89 17 -36 4 -75 11
-87 16 -26 10 -57 54 -48 69 9 15 69 12 170 -9z m996 -63 c138 -70 362 -198
356 -204 -7 -8 -524 47 -580 61 -40 10 -34 36 24 99 43 47 51 61 47 86 -3 17
-2 30 2 30 3 0 71 -33 151 -72z m-3197 21 c-13 -22 11 -72 58 -124 49 -54 50
-56 33 -75 -20 -22 -108 -53 -213 -75 -41 -8 -108 -26 -149 -40 -68 -23 -88
-25 -206 -23 l-132 3 115 76 c135 89 216 137 371 218 103 54 140 66 123 40z
m496 -9 c0 -11 -13 -44 -30 -73 -16 -30 -30 -58 -30 -64 0 -20 26 -21 79 -3
54 18 113 67 154 127 12 18 25 33 30 33 4 0 7 -21 7 -46 l0 -46 35 6 c19 4 35
3 34 -1 -1 -15 -100 -91 -161 -123 -49 -27 -75 -33 -143 -38 -117 -7 -117 -7
-99 70 20 85 80 176 117 178 4 0 7 -9 7 -20z m1353 -12 c34 -24 35 -46 2 -54
-33 -8 -66 1 -99 27 -21 16 -24 24 -16 34 23 28 66 25 113 -7z m-365 -129
c-24 -20 -131 -113 -238 -207 l-195 -171 -220 2 -220 2 -3 42 -3 41 78 -1 c43
-1 137 -1 209 1 l131 2 249 217 249 217 3 -54 c3 -52 2 -55 -40 -91z m178 67
c26 -52 55 -76 92 -76 10 0 72 -19 137 -43 114 -41 121 -45 131 -78 18 -51 7
-54 -41 -10 -46 42 -107 63 -128 42 -22 -22 115 -140 185 -159 23 -6 40 -7 44
-1 11 19 44 10 44 -12 0 -21 3 -22 98 -17 105 5 169 27 241 82 52 39 64 35 56
-18 -7 -42 -5 -45 23 -60 54 -28 104 -30 154 -6 25 11 60 34 79 51 22 20 43
29 66 29 41 0 42 -13 3 -41 -16 -12 -32 -35 -35 -51 -7 -31 -19 -40 -91 -64
-66 -22 -77 -33 -108 -113 -32 -82 -48 -98 -108 -109 -78 -15 -164 -88 -143
-122 11 -18 69 -11 117 15 26 14 68 28 93 32 63 8 92 35 131 120 32 69 35 73
66 73 28 0 44 12 108 80 84 90 83 90 210 69 37 -7 80 -9 94 -5 15 4 53 33 85
66 68 71 97 78 107 26 3 -19 3 -39 -1 -45 -4 -8 64 -11 224 -11 127 0 231 -4
231 -8 0 -4 -16 -24 -36 -43 l-35 -34 -416 -5 -417 -5 -19 -32 -19 -33 416 0
416 0 0 -2067 c0 -1433 -3 -2096 -11 -2158 -23 -190 -92 -399 -180 -549 -52
-87 -169 -205 -274 -275 -169 -112 -339 -178 -715 -276 -284 -74 -444 -127
-588 -195 -114 -55 -251 -140 -329 -206 -28 -24 -54 -44 -58 -44 -4 0 -30 20
-58 44 -124 105 -342 227 -517 291 -41 14 -205 60 -364 101 -425 109 -552 156
-728 270 -150 96 -313 289 -370 435 -13 33 -26 59 -29 59 -4 0 -9 -33 -12 -72
-4 -60 -1 -80 15 -113 59 -116 211 -279 343 -367 169 -111 334 -176 655 -258
476 -120 629 -177 835 -313 58 -39 173 -131 187 -152 11 -15 9 -115 -2 -115
-5 0 -10 4 -10 10 0 14 -143 134 -221 186 -185 123 -330 179 -708 276 -360 92
-325 86 -317 57 3 -13 9 -37 13 -52 3 -16 15 -33 27 -38 12 -5 136 -38 278
-73 341 -86 470 -137 645 -252 45 -30 108 -78 138 -106 l57 -52 -24 -18 c-35
-27 -55 -22 -85 20 -53 72 -116 142 -134 147 -19 6 -104 -19 -126 -37 -24 -19
-71 12 -120 78 -49 67 -70 83 -79 59 -10 -25 -27 -17 -72 35 -46 54 -71 61
-100 32 -17 -17 -21 -17 -38 -5 -14 11 -37 13 -81 10 -42 -3 -71 0 -89 9 -37
19 -52 18 -85 -11 -33 -27 -72 -22 -77 11 -8 55 -19 72 -90 148 -43 45 -98
108 -122 139 l-45 57 -56 0 c-42 0 -73 8 -120 30 -76 35 -178 63 -217 58 -27
-3 -27 -3 -24 -77 2 -40 1 -80 -3 -88 -9 -24 -34 3 -66 72 -26 53 -28 67 -23
125 6 65 6 66 -26 94 -23 19 -40 26 -56 22 -12 -3 -37 0 -55 8 -19 8 -46 12
-60 9 -56 -10 -149 61 -237 180 -51 69 -62 95 -51 125 12 32 57 29 104 -8 44
-35 47 -35 106 -15 80 28 109 66 109 140 0 54 7 70 66 142 59 72 87 129 80
159 -4 14 -22 42 -41 62 -22 25 -38 56 -45 88 -5 27 -12 59 -15 72 -3 12 -10
22 -17 22 -6 0 -48 -19 -93 -42 -96 -49 -121 -47 -112 7 3 20 26 65 51 101 62
88 74 113 82 171 8 63 -12 110 -68 158 -32 27 -46 51 -72 122 -36 101 -56 114
-68 43 -8 -48 -28 -70 -64 -70 -12 0 -29 -2 -36 -5 -11 -5 -19 23 -36 121 -25
143 -42 187 -114 296 -55 84 -57 109 -17 149 19 19 28 20 84 14 77 -8 124 12
179 76 55 65 80 138 81 240 0 77 -3 90 -27 127 -15 22 -49 55 -75 73 -26 18
-52 37 -56 43 -4 6 -5 46 -2 89 l6 77 -26 -10 c-43 -17 -50 -13 -87 54 -31 56
-34 69 -31 122 7 105 7 104 64 104 65 0 77 23 31 58 -31 23 -31 24 -15 50 10
15 31 43 48 63 25 28 38 60 60 149 23 91 37 126 73 179 63 94 72 119 72 212
l0 81 -30 -4 c-30 -5 -30 -4 -23 31 22 102 -6 228 -62 281 -32 30 -51 20 -58
-31 -7 -51 -54 -123 -85 -127 -31 -5 -35 16 -18 92 19 79 21 257 5 273 -9 9
-9 27 1 71 7 33 10 80 7 103 -3 34 2 58 23 104 21 44 29 82 34 147 3 48 10 98
16 112 12 33 53 59 80 51 20 -6 20 -12 20 -390 l0 -383 48 -41 47 -41 3 567 2
567 40 -39 40 -39 0 -1871 0 -1871 40 -39 40 -39 0 1887 0 1887 404 2 404 3
-13 33 -14 32 -408 0 -409 0 -44 46 -45 45 451 -3 450 -3 60 -30 c66 -34 62
-24 49 -155 -6 -58 -4 -69 17 -100 19 -27 36 -38 86 -53 34 -10 62 -24 62 -29
0 -6 -19 -36 -42 -65 -45 -59 -45 -70 3 -104 43 -32 62 -28 72 13 5 22 32 62
73 107 94 105 87 131 -38 131 -96 0 -111 16 -57 61 l34 28 -26 28 c-15 15 -38
46 -52 68 -34 56 -63 80 -129 109 -42 19 -64 36 -83 65 -14 22 -38 47 -55 56
-16 9 -30 19 -30 24 0 10 114 61 135 61 8 0 19 -17 25 -39 6 -22 18 -42 28
-45 9 -3 28 -27 41 -52 29 -54 87 -101 166 -135 47 -21 57 -29 67 -61 l11 -38
243 0 244 0 234 205 c129 113 238 205 241 205 4 0 112 -92 241 -205 l233 -205
245 0 244 0 11 31 c6 18 11 34 11 35 0 2 -107 4 -237 4 l-238 1 -235 206 -235
205 -3 55 c-3 51 -2 54 17 44 11 -6 32 -35 47 -65z m970 -57 c32 -6 63 -14 68
-19 4 -4 -24 -18 -63 -31 -54 -18 -77 -21 -98 -13 -35 12 -37 44 -3 61 30 15
24 15 96 2z m231 -104 c44 -12 86 -14 173 -9 152 8 207 -12 144 -52 -19 -13
-63 -19 -177 -26 -84 -4 -164 -6 -178 -3 -21 5 -59 49 -59 68 0 6 29 37 35 37
2 0 30 -7 62 -15z m261 -139 c2 -3 2 -12 -2 -21 -5 -13 -17 -15 -73 -9 -74 7
-97 18 -73 35 14 10 137 5 148 -5z m805 -2584 l47 144 0 412 c0 245 4 412 9
412 20 0 96 -67 99 -88 2 -12 -7 -36 -19 -53 -27 -38 -35 -104 -20 -152 14
-40 78 -103 115 -113 25 -6 36 -36 36 -99 0 -28 7 -37 48 -64 91 -60 90 -59
62 -78 -69 -48 -112 -100 -157 -189 -41 -80 -51 -94 -68 -89 -65 18 -64 18
-69 -7 -14 -69 -60 -328 -63 -359 -7 -52 26 -111 84 -150 48 -34 191 -89 230
-89 12 0 24 -4 27 -9 4 -5 -23 -69 -59 -143 -66 -134 -94 -230 -95 -315 l0
-42 -97 5 c-58 4 -106 12 -118 20 -11 8 -31 22 -44 31 -22 16 -24 16 -38 -3
-12 -15 -14 -48 -10 -174 4 -145 6 -160 36 -240 29 -75 32 -92 26 -145 -4 -33
-10 -92 -13 -130 -6 -60 -13 -78 -43 -120 -88 -121 -90 -176 -8 -270 65 -74
162 -94 270 -55 65 22 118 14 144 -23 21 -30 20 -38 -21 -90 -24 -31 -38 -61
-42 -94 -7 -44 -9 -48 -38 -51 -20 -2 -36 4 -49 18 -29 32 -70 23 -150 -34
-16 -12 -43 -29 -59 -37 -39 -19 -65 -80 -75 -174 -5 -42 -14 -82 -20 -89 -7
-8 -35 -22 -62 -32 -64 -23 -78 -40 -88 -105 -9 -57 -6 -74 17 -102 31 -35 -8
-32 -60 5 -15 11 -22 8 -51 -20 -43 -41 -57 -41 -57 3 0 19 -4 35 -10 35 -5 0
-39 -20 -75 -45 -73 -50 -106 -60 -215 -69 l-75 -6 110 58 c287 150 470 328
586 569 l50 103 -26 52 c-15 29 -30 57 -34 61 -4 4 -18 -20 -31 -55 -103 -286
-296 -490 -610 -648 -120 -60 -303 -122 -502 -171 -76 -18 -138 -36 -138 -40
0 -7 93 -49 109 -49 23 0 19 -20 -6 -34 -30 -15 -59 -7 -76 21 -5 9 -30 13
-74 13 -47 0 -72 5 -84 16 -17 16 -23 14 -82 -25 -40 -25 -83 -45 -118 -51
-29 -6 -65 -19 -79 -29 -24 -17 -25 -24 -25 -114 0 -91 -1 -97 -28 -125 -31
-32 -106 -76 -149 -86 -18 -4 -32 -1 -42 10 -27 26 2 64 104 136 25 17 48 36
53 42 8 12 5 116 -4 116 -3 0 -46 -24 -97 -54 -108 -64 -189 -125 -257 -195
-27 -28 -53 -51 -57 -51 -4 0 -8 24 -8 54 0 53 1 55 55 105 123 111 323 223
535 296 58 20 217 65 353 101 296 77 428 120 563 184 321 151 503 352 610 675
22 69 25 89 19 152 -6 67 -4 82 30 182 36 109 36 110 32 253 -3 118 -8 153
-26 202 -37 98 -37 138 -2 252 l31 101 0 1723 0 1723 38 46 37 45 5 -1323 5
-1323 48 144z m-4783 2393 c0 -34 -1 -35 -42 -35 l-42 0 34 35 c19 19 38 35
42 35 4 0 8 -16 8 -35z m4893 -23 c33 -33 46 -54 41 -65 -3 -10 8 -42 30 -80
21 -39 39 -88 45 -126 12 -77 36 -119 84 -150 57 -38 48 -82 -28 -126 -60 -35
-105 -89 -105 -124 0 -15 7 -42 16 -60 24 -47 13 -64 -35 -56 -34 6 -41 4 -52
-16 -11 -22 -8 -102 7 -177 l7 -33 -37 17 -36 18 0 513 c0 282 4 513 8 513 4
0 29 -22 55 -48z m-5023 -104 c0 -10 -25 -50 -55 -89 -59 -76 -62 -84 -43
-137 12 -32 11 -35 -15 -54 -27 -20 -37 -61 -17 -73 20 -12 10 -57 -20 -87
l-31 -30 25 -43 c22 -36 23 -45 12 -60 -12 -17 -20 -17 -106 -6 -51 6 -109 19
-129 27 -44 18 -81 52 -81 73 0 24 183 248 322 394 119 127 137 138 138 85z
m5370 -254 c32 -39 56 -74 53 -78 -4 -3 -16 -6 -27 -6 -15 0 -29 15 -48 50
-24 43 -62 78 -122 115 -10 6 -21 26 -25 45 -4 19 -11 46 -15 60 -8 27 75 -56
184 -186z m82 -440 c-21 -77 -45 -95 -62 -48 -14 36 3 87 37 114 39 31 46 12
25 -66z m271 -54 l28 -49 -33 -17 c-18 -9 -55 -37 -81 -62 -45 -41 -50 -43
-65 -29 -14 15 -13 20 14 61 58 88 99 146 104 146 3 0 18 -22 33 -50z m-6412
-173 c-8 -8 -16 -7 -27 5 -15 14 -14 19 8 57 l23 41 3 -47 c2 -25 -2 -51 -7
-56z m6143 21 c4 -35 21 -112 38 -173 17 -60 36 -136 43 -168 13 -58 24 -81
32 -62 2 6 20 41 41 79 43 82 64 98 89 74 15 -16 15 -21 -2 -79 -11 -35 -44
-103 -74 -153 -65 -107 -66 -116 -28 -275 46 -193 32 -316 -44 -392 -67 -67
-91 -48 -64 49 9 33 15 68 13 78 -3 15 -8 13 -40 -15 -21 -18 -42 -30 -48 -26
-5 3 -10 42 -10 86 0 70 -2 79 -18 79 -10 0 -27 -7 -38 -15 -10 -8 -22 -15
-26 -15 -13 0 -35 52 -47 110 -16 72 -32 95 -90 124 -48 25 -61 41 -61 77 0
24 7 24 79 -1 78 -26 105 -16 167 61 60 76 77 86 109 65 33 -22 44 -20 54 7 6
14 4 34 -6 57 -8 19 -28 75 -44 123 -34 103 -42 120 -81 167 -32 40 -33 48
-13 118 15 48 37 82 54 82 5 0 12 -28 15 -62z m-5815 -88 c65 -275 68 -455 6
-507 -35 -31 -49 -21 -40 31 23 140 24 165 9 301 -8 77 -17 181 -19 230 -5 84
-4 88 9 60 8 -16 24 -68 35 -115z m5657 -111 c118 -82 158 -139 97 -139 -86 1
-211 109 -189 165 9 24 28 18 92 -26z m-266 -43 c14 -6 25 -20 25 -31 0 -17
-8 -21 -47 -23 l-48 -3 0 41 c0 45 5 46 70 16z m1002 -263 c82 -230 181 -633
155 -633 -4 0 -24 18 -46 40 -47 48 -83 52 -179 19 -78 -26 -92 -22 -92 31 0
22 -2 40 -5 40 -7 0 -75 -36 -97 -52 -12 -9 -25 -9 -45 -2 -28 9 -28 11 -25
79 3 60 -11 190 -34 313 l-6 32 68 0 c83 0 141 24 177 71 24 33 67 143 67 174
0 40 20 4 62 -112z m-6630 8 c12 -20 47 -61 78 -91 54 -52 81 -104 63 -121 -4
-4 -50 32 -101 79 -77 72 -94 93 -99 124 -3 20 -3 45 1 54 8 21 27 7 58 -45z
m428 0 c0 -11 -23 -45 -51 -75 -74 -81 -102 -73 -58 17 31 64 109 105 109 58z
m-756 -75 c30 -13 33 -18 39 -69 10 -98 69 -179 141 -193 50 -9 134 19 183 61
44 37 67 44 76 21 3 -8 -14 -63 -39 -123 -39 -95 -44 -117 -44 -184 0 -68 -2
-77 -20 -82 -15 -4 -29 6 -55 36 -19 22 -35 44 -35 49 0 21 -29 5 -39 -22 -5
-16 -16 -30 -22 -30 -7 0 -33 17 -58 38 -74 63 -84 65 -193 59 -88 -6 -98 -4
-98 11 0 37 78 333 110 418 11 28 11 28 54 10z m612 -287 c24 -24 56 -44 75
-48 30 -6 34 -12 42 -49 7 -34 5 -47 -11 -70 -10 -15 -22 -49 -25 -75 -8 -61
-10 -63 -57 -87 -21 -11 -52 -36 -69 -57 -17 -20 -32 -35 -34 -32 -2 2 -17 28
-32 56 -28 52 -28 54 -21 170 8 129 20 189 43 216 24 26 43 21 89 -24z m-736
-250 c0 -14 -7 -19 -30 -19 -32 0 -37 16 -23 69 l6 24 24 -27 c12 -15 23 -36
23 -47z m6888 -333 c7 -37 -277 -286 -325 -286 -50 0 -17 66 79 161 73 71 133
115 186 134 44 16 56 14 60 -9z m-6406 -138 c113 -90 130 -112 132 -159 1 -39
10 -57 72 -139 88 -116 104 -147 104 -201 0 -53 -7 -48 -95 77 -129 181 -150
198 -269 219 -28 5 -54 21 -93 57 -55 53 -100 115 -90 125 15 14 95 14 131 -1
53 -22 56 -21 49 19 -7 45 6 45 59 3z m5847 0 c5 -13 32 -59 60 -103 53 -82
59 -103 39 -123 -23 -23 -34 -12 -83 75 -52 95 -71 173 -41 173 9 0 21 -10 25
-22z m-5466 -50 c35 -75 39 -117 27 -238 -15 -133 -23 -163 -47 -158 -31 6
-41 66 -42 251 l-1 177 24 0 c17 0 28 -9 39 -32z m6432 -62 c10 -62 2 -70 -58
-62 -53 6 -84 26 -72 45 8 13 94 60 112 61 6 0 15 -20 18 -44z m-366 -92 c2
-2 -43 -26 -100 -53 -57 -27 -142 -74 -187 -105 -46 -30 -99 -58 -119 -62 -90
-17 -114 51 -33 96 25 14 57 36 72 51 25 23 150 73 208 82 26 4 152 -3 159 -9z
m-6855 -26 c59 -22 67 -38 25 -50 -13 -4 -49 -14 -79 -23 l-54 -17 -23 27
c-63 73 12 109 131 63z m7206 -263 c-94 -1044 -629 -1994 -1483 -2636 -115
-88 -136 -99 -162 -94 -64 12 -59 49 11 66 38 10 49 18 60 45 7 18 33 45 56
61 47 31 56 58 57 161 1 93 80 216 201 312 77 63 150 150 165 200 4 14 23 52
43 86 35 59 37 61 111 85 74 23 77 26 110 81 31 53 38 58 90 74 109 31 165 80
142 123 -8 15 -1 24 42 52 42 28 59 48 91 110 l40 75 -21 30 c-33 46 -56 128
-49 169 7 36 46 81 135 157 23 20 40 41 37 47 -4 6 -41 0 -98 -16 -61 -16
-106 -23 -133 -20 -53 7 -85 44 -85 97 0 36 5 43 56 80 59 45 74 70 74 130 0
41 10 48 96 65 59 11 104 79 104 156 0 31 -4 41 -22 48 -29 11 -63 3 -84 -20
-16 -18 -16 -22 -1 -54 9 -19 14 -41 11 -49 -9 -24 -60 -39 -109 -31 -49 7
-114 -9 -116 -28 -1 -7 -1 -37 0 -67 1 -40 -4 -64 -19 -88 -25 -41 -40 -33
-60 30 -8 24 -16 47 -18 51 -2 5 -15 -17 -28 -49 -27 -67 -44 -87 -66 -79 -23
9 -28 35 -36 175 -6 100 -12 134 -31 173 -34 71 -51 64 -67 -28 -7 -43 -29
-85 -44 -85 -27 0 18 266 51 306 6 8 26 14 44 14 25 0 41 -9 67 -37 63 -71 85
-83 149 -83 32 0 87 7 123 15 40 9 101 14 158 13 88 -3 97 -1 160 30 85 42
160 121 183 194 10 29 29 71 43 93 26 38 27 39 30 15 2 -13 -1 -83 -8 -155z
m-7317 97 c59 -43 84 -82 52 -82 -11 0 -15 -12 -15 -47 0 -44 3 -50 55 -98 58
-55 67 -71 35 -62 -31 8 -26 -29 16 -112 36 -73 99 -134 151 -147 33 -9 67
-70 73 -134 4 -48 8 -56 33 -68 16 -8 38 -29 48 -47 26 -44 43 -49 100 -29 39
14 50 15 63 5 15 -13 46 -99 46 -128 0 -7 -40 -52 -88 -101 -108 -106 -122
-139 -122 -285 0 -90 -2 -99 -17 -92 -10 3 -45 16 -78 27 -68 24 -65 19 -155
238 -144 348 -237 744 -266 1119 -8 105 -13 102 69 43z m635 -42 c33 -21 42
-44 18 -53 -31 -12 -104 -16 -156 -9 -46 6 -56 11 -58 29 -7 50 130 73 196 33z
m276 -252 c20 -30 92 -251 100 -304 l6 -41 -42 -6 c-56 -8 -85 -31 -141 -115
-51 -77 -87 -107 -87 -74 0 37 -21 79 -46 91 -14 6 -60 14 -102 17 -117 8
-122 10 -122 44 0 29 -29 70 -50 70 -17 0 -12 77 6 84 9 3 57 6 107 7 191 1
215 14 293 160 26 49 51 89 55 89 5 0 15 -10 23 -22z m5365 -453 c111 -123
154 -278 149 -538 -3 -109 -6 -132 -18 -132 -25 0 -39 45 -60 191 -27 188 -51
271 -116 390 -61 114 -67 144 -30 144 16 0 40 -18 75 -55z m-5139 -154 c13
-25 -26 -154 -80 -266 -48 -97 -71 -197 -79 -330 -6 -108 -21 -130 -33 -50
-18 112 -18 113 -42 119 -25 6 -57 50 -101 135 -31 61 -24 81 22 65 21 -6 36
-26 58 -71 38 -79 55 -97 55 -60 0 15 12 51 27 80 19 37 30 81 39 157 15 120
26 162 54 208 23 37 63 44 80 13z m5105 -275 c13 -42 13 -48 -2 -53 -22 -9
-43 23 -43 67 0 69 22 62 45 -14z m419 22 c26 -36 19 -68 -34 -158 -44 -76
-138 -180 -162 -180 -19 0 -19 34 0 73 11 23 27 67 36 97 18 60 107 190 131
190 7 0 21 -10 29 -22z m-438 -259 c96 -92 72 -94 -105 -9 -22 10 -24 26 -6
44 27 27 54 18 111 -35z m-5072 -64 c0 -27 -13 -63 -38 -108 -21 -37 -40 -67
-41 -65 -2 2 0 44 4 95 8 98 21 126 55 121 17 -2 21 -10 20 -43z m-259 -102
c17 -26 33 -55 37 -65 9 -22 0 -48 -16 -48 -17 0 -53 40 -65 72 -10 27 -5 88
8 88 3 0 20 -21 36 -47z m5533 -110 c6 -43 -70 -86 -84 -48 -3 8 4 28 16 45
26 37 63 38 68 3z m-5425 -85 c8 -13 44 -70 80 -127 37 -57 67 -108 67 -113 0
-15 -92 2 -120 21 -34 24 -90 135 -90 178 0 57 38 82 63 41z m-337 -71 c93
-83 131 -94 196 -61 29 15 31 14 54 -7 17 -16 24 -33 24 -58 0 -52 29 -91 96
-131 52 -31 68 -36 156 -42 106 -7 128 -16 128 -55 0 -37 17 -63 76 -119 l54
-50 0 -62 c0 -59 2 -65 40 -106 29 -31 43 -57 51 -96 17 -78 43 -100 118 -100
33 0 62 -4 65 -8 3 -5 -6 -19 -20 -31 -25 -21 -25 -22 -7 -52 25 -44 109 -115
168 -144 60 -29 156 -55 205 -55 45 0 124 50 146 92 14 27 14 32 -3 56 -10 15
-23 39 -30 55 -20 45 -41 45 -80 -1 -35 -43 -72 -58 -58 -24 4 9 9 33 12 52 7
49 -13 63 -93 65 -75 3 -107 22 -88 53 10 14 27 17 100 17 49 1 93 2 98 3 15
3 -24 41 -101 98 -75 56 -109 96 -98 114 15 24 50 5 128 -68 45 -44 106 -92
136 -108 61 -33 92 -74 89 -119 -3 -45 9 -58 46 -50 42 8 58 8 146 0 91 -9
110 -18 110 -51 0 -40 -36 -49 -94 -24 -50 21 -86 19 -86 -4 0 -21 82 -91 176
-152 89 -57 104 -78 119 -157 9 -45 33 -61 71 -47 21 8 31 7 45 -6 15 -13 32
-16 84 -12 118 10 205 75 205 154 0 19 3 34 7 34 3 0 30 -27 60 -60 58 -64 93
-80 173 -80 50 1 113 20 138 43 13 12 33 14 84 10 l66 -6 17 -44 c29 -75 62
-68 90 18 10 28 22 52 29 55 7 3 29 -2 49 -11 53 -22 144 -20 185 5 17 11 32
24 32 29 0 23 68 51 123 51 49 0 60 -4 98 -36 53 -44 77 -54 133 -54 27 0 48
-6 56 -15 18 -21 40 -19 82 10 32 22 37 23 49 9 25 -30 87 -54 142 -54 58 0
70 8 80 50 6 25 8 26 73 22 l67 -5 -7 27 c-6 25 -4 26 32 26 21 0 59 -7 85
-16 49 -17 87 -8 87 21 0 20 -45 52 -84 59 -39 8 -106 74 -106 106 0 17 7 20
40 20 41 0 56 -11 91 -62 9 -13 36 -37 59 -53 41 -29 47 -30 158 -30 l116 0
11 39 c6 22 17 42 24 44 6 2 35 -2 63 -8 64 -16 68 -12 -141 -119 -386 -197
-762 -314 -1211 -378 -180 -25 -760 -25 -940 0 -703 100 -1305 357 -1850 791
-234 187 -549 522 -709 755 -37 55 -48 77 -39 83 27 17 58 6 104 -35z m5489
-47 c23 -23 30 -8 -77 -166 -37 -55 -86 -114 -110 -132 -24 -18 -65 -60 -93
-94 -61 -74 -82 -89 -95 -68 -30 46 11 127 75 148 55 18 61 25 85 96 14 42 33
74 59 100 24 23 45 58 57 92 18 54 20 55 49 50 16 -4 39 -15 50 -26z m-4622
-361 c50 -54 25 -85 -44 -54 -40 19 -57 49 -45 81 9 24 55 10 89 -27z m3467
-314 c-3 -30 -9 -58 -13 -62 -4 -4 -28 -2 -53 5 -25 7 -51 9 -59 5 -7 -5 -31
-32 -54 -60 -42 -54 -58 -62 -79 -41 -26 26 -13 53 33 76 38 18 45 26 45 50 0
27 4 30 88 54 48 14 89 26 93 27 3 0 2 -24 -1 -54z m480 -47 c0 -37 -41 -75
-126 -118 -80 -41 -91 -50 -113 -92 -18 -38 -28 -48 -47 -48 -28 0 -39 19 -30
53 8 35 102 127 169 166 75 44 147 63 147 39z m-329 -86 c-5 -9 -18 -25 -29
-35 -10 -10 -27 -35 -37 -57 -11 -25 -25 -40 -36 -40 -50 0 -24 70 45 116 57
38 71 42 57 16z m-281 -51 c0 -9 -5 -23 -10 -31 -9 -13 -12 -12 -25 4 -18 24
-19 43 -2 49 19 7 37 -4 37 -22z m-385 -21 c-12 -38 3 -56 63 -74 89 -29 164
-64 157 -76 -13 -21 -240 -9 -393 21 -77 15 -70 40 28 91 41 22 79 43 85 49 5
5 22 9 38 9 24 0 27 -3 22 -20z m-1542 -189 c23 -9 43 -38 33 -49 -3 -2 -35
-1 -71 3 -54 5 -65 10 -65 25 0 29 53 40 103 21z m277 -48 c71 -6 86 -11 119
-39 58 -48 30 -73 -36 -32 -33 20 -37 20 -63 5 -41 -24 -68 -21 -101 13 -26
25 -28 33 -19 51 9 16 17 19 33 14 12 -4 42 -9 67 -12z"/>
<path d="M4273 7375 l-222 -195 -251 -2 c-156 -2 -251 -7 -253 -13 -1 -6 89
-11 253 -13 l255 -2 160 139 c88 77 163 140 168 141 9 0 9 -1027 -1 -1033 -4
-3 -19 -3 -33 0 -23 4 -29 14 -49 81 -12 43 -26 83 -32 90 -6 6 -27 12 -47 12
-72 0 -77 -5 -101 -94 -12 -46 -25 -88 -29 -94 -4 -6 -31 -14 -61 -18 l-55 -6
-62 85 -62 86 -66 -27 -67 -26 5 -51 c3 -27 9 -71 13 -97 l6 -46 -40 -21 c-23
-12 -47 -21 -54 -21 -8 0 -45 32 -83 70 -38 39 -77 70 -85 70 -9 0 -38 -14
-64 -30 -46 -29 -48 -33 -43 -68 2 -20 12 -67 23 -104 l18 -67 -29 -31 c-52
-54 -63 -52 -176 31 -37 27 -74 49 -83 49 -22 0 -72 -37 -92 -68 -15 -23 -13
-28 41 -119 l57 -95 -33 -34 c-18 -19 -40 -34 -48 -34 -9 0 -62 16 -119 36
-116 42 -117 41 -160 -35 l-23 -40 82 -92 82 -91 -26 -54 -27 -54 -120 0 -121
0 -26 -56 -25 -55 21 -23 c12 -12 55 -49 96 -82 80 -64 83 -71 61 -144 l-13
-45 -102 -5 c-116 -6 -124 -11 -135 -83 -7 -39 -5 -44 26 -71 18 -15 60 -46
93 -68 59 -38 76 -64 67 -100 -4 -16 -19 -18 -128 -18 l-124 0 0 1205 0 1205
376 0 c296 0 375 3 372 13 -4 9 -92 13 -386 15 l-382 2 0 -1262 c-1 -2286 0
-2712 10 -2722 7 -7 10 181 10 522 l0 532 859 0 859 0 12 -35 c12 -37 5 -61
-33 -102 -17 -19 -31 -23 -82 -23 -79 0 -95 -15 -95 -91 0 -64 -6 -76 -43 -83
-15 -3 -39 -8 -53 -11 -29 -7 -54 -55 -54 -107 0 -22 -9 -41 -25 -56 l-24 -23
-88 39 c-48 21 -119 58 -158 81 -83 51 -104 47 -124 -20 -63 -212 -418 -705
-680 -943 -76 -69 -92 -98 -59 -104 20 -4 242 144 386 256 122 95 218 178 364
315 100 93 120 107 150 107 69 0 75 -40 21 -143 -42 -79 -175 -284 -335 -514
-105 -151 -156 -239 -145 -250 30 -29 153 87 462 436 109 123 212 232 229 242
59 36 106 20 106 -36 0 -39 -8 -51 -111 -187 -206 -272 -339 -517 -413 -759
-45 -147 -33 -155 50 -36 193 277 482 605 728 827 76 69 116 112 116 126 0 11
-16 35 -35 54 -80 77 -229 328 -218 368 3 15 16 22 50 27 64 9 83 32 83 103 0
80 6 86 77 77 80 -9 88 1 78 100 l-7 76 40 39 c78 79 72 181 72 -1141 l0
-1181 -52 32 c-214 127 -408 200 -808 305 -269 70 -368 103 -496 164 -137 66
-214 119 -309 215 -65 65 -90 101 -132 183 -28 56 -57 120 -64 143 -13 42 -32
49 -37 14 -4 -29 57 -169 110 -250 114 -176 316 -316 593 -414 50 -17 194 -58
320 -91 451 -118 673 -208 891 -361 41 -29 81 -57 88 -62 8 -6 40 12 99 55
152 112 323 200 511 263 44 15 196 56 339 92 483 122 652 198 828 373 148 148
245 332 302 576 21 90 21 94 24 2178 l3 2087 -404 0 c-346 0 -405 -2 -416 -15
-11 -13 34 -15 394 -15 l406 0 0 -1185 0 -1185 -846 0 -846 0 69 78 c39 42
151 169 251 281 l181 203 -6 49 c-5 44 -4 49 20 60 29 13 103 -7 174 -47 23
-13 53 -24 66 -24 45 0 87 -12 87 -25 0 -7 30 -48 66 -91 36 -44 95 -124 132
-179 37 -55 68 -102 70 -105 4 -6 13 6 186 235 151 201 339 466 334 470 -2 1
-75 17 -163 34 -172 34 -313 78 -438 135 l-78 35 7 38 c4 21 8 46 8 55 1 10
-49 52 -133 111 l-134 95 -28 -20 -28 -21 -41 28 c-35 24 -43 26 -54 14 -7 -8
-75 -85 -151 -173 l-139 -158 47 -45 48 -45 -73 -85 c-40 -47 -96 -113 -124
-146 -53 -62 -64 -94 -64 -189 0 -38 -9 -50 -162 -216 l-163 -175 -3 611 c-1
336 -1 888 0 1226 l3 616 150 -130 149 -130 243 0 c209 0 243 2 243 15 0 13
-33 15 -240 15 l-240 0 -221 193 c-121 105 -226 193 -232 194 -7 2 -112 -85
-234 -192z m287 119 l40 -36 0 -1274 c0 -701 -3 -1274 -7 -1274 -4 0 -24 17
-45 37 l-38 37 0 1273 c0 700 2 1273 5 1273 3 0 23 -16 45 -36z m-170 -1259
l0 -45 -57 0 c-82 0 -243 -26 -344 -55 -400 -115 -738 -394 -923 -764 -81
-160 -127 -326 -142 -513 l-7 -88 -45 0 -45 0 7 93 c48 635 504 1180 1141
1362 111 31 246 53 343 54 l72 1 0 -45z m1323 -203 c84 -62 87 -65 71 -83 -9
-10 -22 -15 -28 -11 -6 4 -50 33 -98 66 -86 58 -87 59 -71 82 18 28 12 30 126
-54z m-220 6 c8 -12 -5 -33 -54 -92 -35 -42 -66 -76 -69 -76 -3 0 -14 7 -24
15 -22 16 -25 11 63 113 54 63 66 69 84 40z m-1140 -4 l37 -7 0 -404 c0 -379
-1 -404 -17 -401 -13 2 -49 89 -140 333 -67 182 -122 345 -122 363 -2 63 37
96 128 112 63 10 70 11 114 4z m-466 -174 c18 -10 40 -31 50 -46 10 -15 73
-170 140 -343 97 -249 120 -317 109 -323 -39 -22 -117 -91 -132 -118 -10 -16
-21 -30 -25 -30 -18 0 -647 254 -670 271 -36 25 -69 95 -69 144 0 58 34 116
119 207 200 214 375 301 478 238z m1801 -27 c2 -24 -3 -39 -22 -58 -32 -32
-56 -24 -56 19 0 72 72 107 78 39z m-202 -238 c18 -44 18 -55 -2 -55 -29 0
-74 33 -74 55 0 28 8 35 37 35 18 0 28 -9 39 -35z m-341 -129 c-26 -31 -51
-53 -56 -50 -18 11 -8 37 32 86 37 44 44 48 57 34 13 -13 9 -21 -33 -70z
m-175 -271 c6 -8 8 -20 4 -27 -18 -29 -157 -188 -165 -188 -5 0 -13 8 -18 18
-8 15 5 36 72 114 45 53 85 97 88 97 4 1 12 -6 19 -14z m-1369 -218 c163 -64
302 -117 308 -117 13 0 13 -10 5 -62 l-7 -38 -418 0 -419 0 0 64 c0 117 51
234 114 262 56 26 111 11 417 -109z m823 -49 c17 -9 10 -19 -70 -99 -74 -75
-94 -89 -120 -89 -26 0 -33 5 -38 25 -16 62 42 154 110 175 32 10 88 4 118
-12z m1274 -308 l882 0 -2 -162 -3 -163 -874 -3 c-862 -2 -874 -2 -857 17 17
19 17 20 -1 30 -17 8 -40 -11 -174 -145 l-154 -154 -165 165 c-91 91 -170 165
-176 165 -5 0 -15 -5 -22 -12 -9 -9 -6 -18 15 -40 l27 -28 -880 2 -879 3 -3
163 -2 162 892 0 893 0 150 150 150 150 150 -150 150 -150 883 0z m-942 162
c-32 -3 -44 2 -72 29 -25 25 -34 41 -34 67 l0 33 73 -63 72 -63 -39 -3z m1824
-77 l0 -45 -873 0 -873 0 -44 45 -44 45 917 0 917 0 0 -45z m-2370 -20 l-23
-25 -879 0 c-845 0 -878 1 -878 18 0 10 3 22 7 25 3 4 409 7 901 7 l895 0 -23
-25z m524 -530 c-66 -74 -84 -87 -84 -63 0 17 144 161 148 148 2 -5 -27 -44
-64 -85z m1843 -492 c-5 -624 -6 -643 -58 -833 -30 -109 -116 -283 -188 -378
-179 -236 -366 -328 -973 -476 -273 -67 -457 -136 -627 -235 -40 -24 -74 -41
-77 -39 -2 3 -3 373 -2 824 l3 819 53 -53 c30 -30 64 -77 77 -105 35 -79 159
-186 277 -241 55 -26 57 -28 68 -81 16 -79 35 -97 104 -103 l57 -5 155 -173
c138 -156 154 -178 154 -210 0 -45 -26 -90 -61 -104 -43 -18 -86 8 -169 103
-41 47 -85 91 -97 98 -13 7 -23 19 -23 26 0 23 -51 63 -80 63 -36 0 -110 -54
-110 -81 0 -33 19 -58 55 -73 22 -9 37 -24 41 -39 3 -14 65 -84 138 -155 126
-124 134 -130 188 -141 68 -15 108 -6 170 37 111 76 146 152 127 273 -6 35
-17 75 -25 87 -9 13 -73 88 -142 165 -210 235 -195 214 -187 261 9 50 7 145
-4 165 -5 8 -28 23 -52 35 -51 24 -57 49 -19 78 24 17 28 17 80 3 63 -18 110
-63 110 -106 0 -39 21 -56 103 -80 80 -24 76 -20 245 -219 l107 -125 3 -112 4
-112 30 -7 c35 -7 30 -12 227 201 122 131 134 153 108 190 -12 16 -18 16 -47
7 -47 -17 -82 -15 -145 9 -42 16 -66 33 -103 77 -26 30 -84 96 -129 145 -46
49 -83 96 -83 105 0 8 12 44 26 79 30 75 23 93 -35 93 -48 0 -67 15 -86 69
-20 59 -19 124 6 255 28 143 23 215 -21 320 -44 105 -81 144 -182 192 l-83 39
-130 0 c-108 0 -136 -3 -158 -18 -25 -16 -29 -16 -52 -1 -20 13 -38 15 -88 10
-62 -7 -62 -7 -96 28 l-35 36 828 0 828 0 -5 -587z m-2267 512 c30 -30 48 -55
41 -55 -16 0 -121 87 -121 101 0 22 30 5 80 -46z m290 -1322 l-1 -1198 -44
-33 -45 -33 0 1188 0 1187 42 43 c23 24 43 43 45 43 2 0 3 -539 3 -1197z m790
1109 c72 -35 77 -41 137 -132 35 -52 73 -114 85 -137 20 -38 21 -44 8 -57 -8
-9 -26 -17 -40 -18 -22 -3 -25 1 -28 32 -4 47 -121 192 -222 277 -41 35 -77
68 -79 74 -6 19 58 1 139 -39z m-1257 -7 c54 -43 73 -75 44 -75 -15 0 -137 88
-137 99 0 11 12 21 24 21 6 0 37 -20 69 -45z m-149 -200 c19 -15 27 -29 23
-39 -6 -15 -10 -15 -34 -2 -16 8 -44 28 -63 45 -29 25 -32 32 -20 40 15 10 42
-2 94 -44z m1806 -592 c0 -15 -13 -38 -35 -60 -29 -29 -37 -33 -55 -23 -29 16
-25 27 25 77 46 47 65 49 65 6z m-430 -203 c0 -13 -46 -60 -58 -60 -5 0 -16 7
-23 16 -11 14 -10 19 10 35 25 20 71 26 71 9z"/>
<path d="M4347 4642 l-167 -167 165 -165 165 -165 168 168 167 167 -165 165
-165 165 -168 -168z m288 -12 l120 -120 -123 0 -122 0 0 120 c0 66 1 120 3
120 1 0 56 -54 122 -120z m10 -300 c-66 -66 -123 -120 -127 -120 -5 0 -8 54
-8 120 l0 120 127 0 128 0 -120 -120z"/>
<path d="M2138 5581 l-48 -53 0 -383 0 -382 48 -44 47 -44 3 237 c1 130 1 346
0 479 l-3 243 -47 -53z"/>
<path d="M2138 4240 l-48 -55 0 -157 0 -157 45 -37 c25 -20 48 -35 50 -32 3 3
4 115 3 248 l-3 244 -47 -54z"/>
<path d="M2310 2435 l-34 -35 19 -37 c40 -74 133 -190 216 -266 l84 -79 65 7
c36 3 69 10 73 14 4 4 -9 19 -30 33 -127 85 -258 226 -320 345 -16 29 -30 53
-34 53 -3 0 -20 -16 -39 -35z"/>
<path d="M6822 4249 l3 -304 48 -3 47 -3 0 155 c0 132 -3 161 -20 201 -11 26
-32 93 -46 148 -14 56 -28 104 -30 106 -2 3 -3 -132 -2 -300z"/>
</g>
</svg>
