<svg height="422" viewBox="-1329.306 77.55 4114.261 682.85" width="2500" xmlns="http://www.w3.org/2000/svg"><path d="M2768.327 242.459c-26.668-48.33-84.154-84.985-146.594-84.985-54.916 0-103.219 22.491-103.219 80.808 0 49.106 60.807 82.414 124.104 123.246 69.08 43.296 140.73 96.552 140.73 189.034 0 120.756-117.41 194.843-253.16 194.843-55.8 0-114.062-10.817-179.85-35.798l10.791-160.732c31.675 64.153 90.822 114.92 178.19 114.92 67.473 0 117.41-32.452 117.41-89.109 0-48.302-40.833-78.264-90.742-108.225-104.96-63.27-171.523-114.117-171.523-205.688 0-137.437 114.893-183.223 233.963-183.223 69.08 0 112.429 12.504 156.528 12.504zm-582.04 144.024c-15.048 25.008-34.112 59.093-45.84 84.128-9.96 47.446-14.967 110.77-14.967 180.68 0 29.158 5.007 68.276 18.314 81.61h-174.012c30.765-29.131 43.295-208.124 41.662-264.78-23.321-80.755-55.023-158.215-103.299-252.33-30.738-59.093-66.59-114.947-89.081-125.737 39.118-3.294 89.081-5.81 113.26-5.81 43.268 0 54.969 5.81 81.637 64.126 41.555 94.115 72.374 164.829 90.715 217.335 44.152-69.133 74.944-116.58 114.92-181.536 9.986-15.824 18.313-35.799 18.313-54.97 0-15.02-2.517-31.648-9.157-39.145h172.38c-33.309 7.497-183.224 243.173-214.845 296.429m-605.39-145.658L1477.68 464.774h168.176zm202.368 497.887c-54.996 0-59.12-1.634-103.272-153.182l-15.797-55.8c-26.615 12.478-74.141 18.315-149.888 18.315h-76.604l-13.334 28.301c-19.145 42.52-44.956 92.402-44.956 127.45 0 8.328.83 17.458 4.177 29.132H928.92c25.838-29.131 34.165-123.22 46.642-293.966l2.49-40.778c6.668-97.436 11.728-172.38 10.845-224.806-.83-43.295-5.007-70.793-16.655-83.27h175.726c-25.008 19.17-34.192 122.39-45.812 293.135l-3.347 40.779c-4.177 63.297-12.477 128.227-12.477 191.523 0 29.105 11.647 35.772 41.662 35.772 106.539 0 133.234-2.49 181.483-34.968 29.961-54.97 64.153-124.104 97.408-195.7l45.036-95.75c42.44-89.937 84.048-181.562 84.048-199.02 0-12.53-3.32-24.151-8.274-35.825h139.874s56.603 209.864 69.107 254.793l27.445 101.612c47.446 170.72 77.46 253.964 117.436 286.442-33.362 4.177-80.807 5.81-98.292 5.81m-1133.263 6.694c-165.712 0-261.487-136.554-261.487-289.762 0-213.158 115.722-378.093 336.404-378.093 69.107 0 101.612 12.504 157.358 12.504L865.65 254.106c-31.648-57.46-83.298-96.605-152.378-96.605-137.384 0-193.184 148.254-193.184 275.651 0 138.214 77.461 213.961 180.68 213.961 55.8 0 104.905-14.994 187.373-72.427-33.308 106.62-110.77 170.72-238.139 170.72M75.458 168.344c-15.824 0-35.022 0-49.962 1.66-5.007 27.471-9.184 74.944-15.021 151.521l-3.347 45.01c8.38 1.686 19.17 2.543 29.185 2.543 79.897 0 134.894-48.356 134.894-121.587 0-50.016-34.969-79.147-95.749-79.147M307.734 760.4c-47.446 0-59.12-7.524-74.918-29.186L52.94 481.401c-14.164-19.144-24.981-34.968-47.446-34.968H1.318l-3.294 48.302C-6.18 560.522-8.67 613.028-8.67 652.147c.83 43.296 5.837 69.91 17.511 80.754h-174.039c24.955-22.49 34.085-97.435 48.276-293.965l2.517-40.78c6.667-96.578 11.674-171.548 10.817-223.974-.857-45.813-5.81-74.141-18.341-84.128h237.31c77.433 0 184.026 13.36 184.026 139.07 0 103.22-69.134 159.876-154.869 186.49 8.328 7.524 23.295 26.669 32.479 38.343l130.717 173.209c81.61 107.422 88.251 112.402 117.436 127.397-36.655 4.15-85.761 5.837-117.436 5.837m-810.97-519.575L-607.39 464.774h169.032zm202.287 497.887c-54.916 0-59.093-1.634-103.218-153.182l-15.824-55.8c-26.695 12.478-74.141 18.315-149.915 18.315h-76.604l-13.307 28.301c-13.335 30.015-45.813 91.652-44.983 127.45 0 8.328.83 16.655 4.177 29.132h-154.038c44.126-44.126 99.925-146.541 177.36-312.253l44.982-95.748c40.778-86.592 84.1-184.857 84.1-199.021 0-12.53-3.292-24.151-8.326-35.825h139.927s36.575 139.07 69.08 254.793l27.472 101.612c47.472 170.72 77.434 253.964 117.41 286.442-35.799 4.15-80.781 5.784-98.293 5.784m-792.735-571.197c-12.504 0-29.131 0-44.956 1.687-6.667 44.955-10.844 88.25-14.137 135.697 0 0-2.517 40.778-2.517 39.118h16.654c81.611 0 156.582-28.301 156.582-103.192 0-43.349-35.825-73.31-111.626-73.31m-20.778 254.793h-45.785l-6.667 94.919c-3.32 41.662-5.007 76.604-5.837 118.24 0 5.863 18.314 18.34 61.583 18.34 89.938 0 149.085-44.956 149.085-119.096 0-82.441-67.474-112.403-152.379-112.403m9.988 310.593h-224.832c28.328-25.008 35.825-122.416 48.302-293.965l2.49-39.95c6.694-97.434 11.674-172.378 10.844-224.804-.83-44.983-5.837-74.141-18.34-84.128h251.473c59.95 0 179.876 3.347 179.876 128.227 0 83.27-77.461 134.893-148.228 153.261 99.925 9.987 174.87 58.263 174.87 161.509-.027 111.572-104.933 199.85-276.455 199.85" fill="#00aeef"/><path d="M-1835.348.053c-22.277 0-26.883 3.883-34.112 11.942a136.26 136.26 0 00-8.916-.24c-17.136 0-39.146 2.516-57.915 15.074-18.127 11.968-26.749 33.147-17.083 48.65 0 0 6.48-9.505 27.793-9.505 2.999 0 6.319.321 9.853.616 29.453 3.48 51.248 18.984 48.597 59.923-2.356 40.913-17.698 86.538-80.46 87.073 0 0-8.085 0-16.707-.803-29.212-3.186-38.396-21.527-38.396-21.527s25.25-6.855 25.463-38.905c-.214-21.795-19.197-41.742-46.589-49.802a103.968 103.968 0 00-29.077-3.909c-32.291 0-68.545 13.521-92.991 45.438-55.425 73.176-59.923 179.85-46.402 279.051 13.602 99.417 76.658 191.497 78.506 194.014 1.338 1.767 2.543 2.731 3.909 2.731a3.48 3.48 0 002.169-.937c27.23-26.427 53.202-62.547 64.314-86.698 11.888 9.478 5.676 29.64-.857 51.167-6.212 22.01-21.313 51.221-26.775 60.646-5.275 9.21-12.344 19.921-2.839 25.517a6.962 6.962 0 003.669.91c12.21 0 40.94-21.286 72.99-64.02 35.878-48.088 54.085-90.767 54.085-90.767 2.624.589 7.015 5.033 6.292 17.136-.482 12.29-13.12 58.022-37.726 100.594-24.874 42.546-47.847 69.161-52.48 75.212-2.865 3.508-.428 5.703 1.42 7.122 1.82 1.232 45.812 42.305 109.725 77.006 75.72 40.35 109.296 47.606 109.296 47.606s33.496-7.068 109.217-47.392c63.885-34.754 108.065-76.015 109.698-77.407 1.847-1.258 4.204-3.24 1.419-7.095-4.364-5.784-27.418-32.532-52.239-75.078-24.526-42.278-37.646-88.305-37.833-100.434-.509-12.237 3.615-16.28 6.131-17.297 0 0 18.395 42.947 54.274 90.768 32.21 42.787 60.673 64.02 72.936 64.02a7.39 7.39 0 003.802-.91c9.21-5.597 2.356-16.468-3.053-25.571-5.033-9.371-20.349-38.396-26.855-60.593-6.239-21.768-12.718-41.903-.616-51.167 11.139 24.151 36.923 60.458 64.234 86.51a3.32 3.32 0 002.356 1.125c1.205 0 2.49-.937 3.615-2.57 2.008-2.678 65.17-94.597 78.666-194.174 13.548-99.417 9.076-205.849-46.402-279.052-24.285-31.997-60.807-45.598-93.312-45.598-10.148 0-19.84 1.312-28.703 3.855-27.605 8.3-46.509 28.436-46.348 50.016 0 32.05 25.383 38.905 25.383 38.905s-8.488 17.886-38.744 21.527a134.198 134.198 0 01-16.386 1.018c-22.76 0-41.93-7.23-59.602-32.184-17.136-24.018-16.574-73.472-17.565-89.965-.776-16.735-4.364-54.274-21.955-69.59C-1782.012 6.32-1803.38 1.046-1830.02 0c-1.955.053-3.695.053-5.328.053" fill="#00afe9"/></svg>