<svg xmlns="http://www.w3.org/2000/svg" height="73.333" width="342.667"><path d="M71.459 21.755l.657.57.629.601.599.63.57.659.537.686.504.71.472.736.435.76.4.782.363.803.324.824.285.843.244.86.203.879.159.893.115.906.07.922.023.932-.023.932-.07.92-.115.907-.16.893-.202.877-.244.861-.285.843-.324.824-.362.803-.401.782-.436.76-.47.736-.505.71-.538.687-.57.658-.599.63-.628.6-.657.572-.684.54-.71.506-.735.472-.759.438-.78.402-.803.364-.823.326-.843.287-.859.245-.877.204-.892.161-.907.117-.919.072-.924.025H47.718l.18.121.386.249.391.24.396.232.402.224.407.216.412.207.416.2.422.19.426.182.43.173.435.164.44.154.444.146.447.137.452.127.455.117.46.108.463.098.466.089.47.078.475.068.477.058.478.048.483.037.487.027.488.016.486.006 1.13-.028 1.11-.085 1.095-.14 1.076-.192 1.057-.243 1.037-.295 1.016-.344.993-.392.967-.437.943-.483.915-.526.887-.57.857-.61.826-.648.794-.688.759-.723.724-.76.687-.794.649-.826.61-.857.569-.887.526-.916.483-.943.438-.968.39-.993.345-1.016.294-1.037.244-1.057.192-1.077.14-1.095.084-1.11.028-1.126-.028-1.126-.085-1.11-.139-1.095-.192-1.076-.244-1.058-.294-1.036-.344-1.017-.391-.992-.438-.968-.483-.943-.526-.915-.569-.887-.61-.858-.649-.826-.686-.793-.725-.759-.76-.725-.793-.687-.826-.65-.857-.608-.886-.569-.916-.526-.943-.483-.968-.438-.992-.39-1.016-.345-1.037-.294-1.057-.245-1.076-.191-1.094-.14-1.11-.084-1.131-.028-.486.005-.488.016-.487.026-.483.038-.48.048-.476.058-.474.068-.47.078-.466.089-.464.098-.46.108-.454.117-.452.127-.448.136-.444.146-.44.155-.435.164-.43.171-.425.183-.423.19-.415.199-.413.207-.407.216-.4.223-.397.233-.391.24-.385.248-.181.122h12.227l.923.025.92.072.906.116.892.16.877.205.86.245.842.287.822.326.803.364.781.401.759.438.734.472.71.506zM62.019 39.6l.184-.106.178-.114.172-.122.165-.13.16-.138.15-.144.145-.152.137-.159.13-.166.123-.172.112-.176.105-.182.097-.189.087-.194.079-.2.068-.201.059-.208.048-.212.038-.215.028-.22.018-.222.005-.228-.005-.228-.018-.224-.027-.218-.038-.214-.05-.213-.059-.21-.068-.202-.078-.199-.087-.194-.096-.19-.105-.18-.114-.178-.122-.173-.13-.165-.137-.159-.146-.153-.152-.146-.158-.137-.164-.13-.172-.122-.179-.115-.183-.106-.188-.097-.194-.088-.198-.08-.204-.069-.208-.06-.212-.05-.215-.039-.22-.029-.224-.018-.233-.008H5.57l-3.876-13.76h27.5l.385-.642.624-.97.655-.947.683-.925.713-.902.74-.879.769-.853.794-.828.82-.804.847-.775.87-.75.896-.72.918-.693.94-.663.965-.633.984-.603 1.005-.57 1.025-.541 1.045-.506 1.063-.474 1.08-.44 1.1-.404 1.114-.37 1.13-.334 1.148-.297 1.16-.259 1.175-.222L55.03.411l1.2-.143 1.21-.103 1.224-.063 1.232-.02 1.233.02 1.224.063 1.212.103 1.2.143 1.187.182 1.175.222 1.161.259 1.146.297 1.131.334 1.115.37 1.098.404 1.081.44 1.063.473 1.045.507 1.025.54 1.005.57.985.604.963.633.94.663.919.693.895.72.87.75.847.775.82.803.796.829.767.854.74.877.714.903.683.924.655.948.624.97.385.643h27.357l-3.883 13.76H95.296l.02.159.018.16.019.163.017.16.016.16.017.161.014.16.015.163.014.164.013.16.012.162.011.161.011.163.01.164.01.163.008.164.008.163.007.161.007.168.005.164.005.163.004.162.004.166.003.165.002.162v.166l.001.166v.166l-.001.165-.002.163-.003.166-.004.164-.004.162-.005.166-.005.165-.007.16-.007.165-.008.166-.008.162-.01.162-.01.164-.01.16-.012.163-.013.165-.013.157-.013.164-.015.163-.015.16-.016.162-.017.159-.017.16-.018.162-.018.16-.02.157v.003h16.309l-3.88 13.763H90.598l-.385.642-.624.97-.655.947-.683.926-.713.901-.74.879-.768.853-.795.829-.821.802-.846.776-.871.75-.894.72-.92.692-.94.663-.963.634-.984.602-1.005.571-1.025.54-1.045.507-1.062.474-1.081.44-1.098.404-1.115.37-1.131.333-1.147.297-1.16.26-1.174.22-1.188.184-1.2.142-1.211.104-1.223.062-1.234.021-1.233-.021-1.222-.062-1.211-.104-1.2-.142-1.189-.183-1.173-.222-1.16-.26-1.146-.296-1.131-.334-1.115-.37-1.098-.404-1.081-.44-1.063-.474-1.044-.506-1.025-.54-1.004-.571-.985-.603-.962-.634-.941-.662-.918-.693-.895-.721-.87-.75-.847-.775-.82-.802-.795-.829L33 59.17l-.74-.878-.713-.902-.684-.925-.654-.948-.624-.968-.385-.643H11.926l-3.88-13.763h51.876l.233-.008.224-.019.22-.029.215-.04.213-.05.208-.06.202-.07.2-.08.194-.088.189-.097" fill="#18468b" fill-rule="evenodd"/><path d="M60.73 20.266l.786.061.774.1.762.137.747.174.734.21.718.244.702.278.685.31.667.343.648.374.627.404.607.432.585.46.561.488.538.514.513.539.486.562.46.587.43.608.404.628.372.65.342.667.309.686.277.703.243.719.208.734.173.75.135.762.099.775.06.788.02.798-.02.798-.06.787-.099.775-.135.762-.173.748-.208.735-.243.719-.277.703-.31.686-.341.668-.373.649-.402.628-.431.608-.46.587-.487.563-.512.538-.538.514-.562.488-.584.46-.607.434-.628.403-.648.375-.667.342-.684.311-.702.278-.718.245-.734.21-.747.173-.762.138-.774.1-.787.06-.82.023H40.067l4.71 3.779.407.312.413.304.42.295.425.287.432.278.439.27.444.26.45.25.457.243.461.233.467.223.473.213.478.204.483.194.488.185.493.173.498.163.502.154.508.142.51.132.516.121.52.11.523.1.528.087.53.076.535.066.537.054.541.041.545.03.546.019.564.005 1.245-.03 1.245-.095 1.226-.156 1.206-.216 1.187-.274 1.164-.33 1.139-.386 1.113-.439 1.086-.491 1.057-.542 1.026-.59.995-.638.96-.683.926-.727.889-.77.85-.812.811-.85.77-.89.728-.925.683-.96.637-.995.59-1.027.542-1.057.491-1.086.44-1.114.385-1.14.33-1.164.274-1.186.215-1.208.156-1.226.095-1.244.032-1.26-.032-1.26-.095-1.244-.156-1.226-.215-1.207-.274-1.186-.33-1.164-.386-1.14-.439-1.114-.491-1.086-.541-1.057-.59-1.026-.638-.995-.683-.96-.728-.926-.77-.89-.81-.85-.851-.81-.889-.77-.926-.728-.96-.683-.995-.638-1.026-.59-1.057-.541-1.086-.491-1.113-.44-1.14-.385-1.163-.33-1.187-.274-1.206-.216-1.226-.156-1.245-.095-1.245-.03-.564.005-.546.019-.545.03-.54.041-.538.054-.535.065-.531.077-.527.087-.524.1-.52.11-.514.12-.511.132-.508.142-.502.154-.498.163-.493.174-.488.183-.483.194-.478.204-.473.213-.467.223-.461.233-.457.242-.45.25-.444.261-.439.27-.432.278-.425.287-.42.295-.413.304-.406.312-4.709 3.779H59.91zM30.698 51.259h-16.77l-2.388-8.472h48.428l.342-.012.354-.029.35-.047.345-.064.338-.08.332-.095.326-.112.319-.127.31-.141.302-.155.293-.17.285-.183.274-.195.264-.208.254-.22.244-.232.231-.244.22-.254.208-.264.196-.276.182-.284.169-.294.154-.303.142-.312.125-.32.11-.326.095-.335.079-.34.06-.347.046-.35.026-.357.01-.36-.01-.36-.026-.356-.045-.352-.061-.346-.079-.34-.094-.335-.11-.327-.126-.32-.141-.312-.154-.303-.17-.294-.181-.285-.196-.276-.208-.265-.22-.254-.231-.244-.244-.233-.254-.22-.264-.208-.275-.196-.284-.183-.294-.17-.302-.155-.31-.142-.32-.127-.325-.111-.334-.096-.339-.08-.345-.063-.35-.046-.356-.03-.34-.01H7.573l-2.385-8.468h25.505l1.134-1.893.578-.897.606-.878.633-.857.66-.835.685-.814.712-.79.736-.767.76-.744.784-.719.806-.693.83-.668.85-.642.872-.614.892-.586.91-.558.931-.53.949-.499.966-.468.984-.438 1-.407 1.017-.375 1.032-.342 1.046-.309 1.06-.275 1.075-.24 1.087-.204 1.1-.17 1.11-.132 1.123-.095 1.133-.058 1.143-.02 1.144.02 1.133.058 1.122.095 1.112.133 1.1.169 1.086.205 1.075.24 1.06.274 1.046.309 1.032.342 1.016.374 1 .407.984.438.967.47.949.499.93.529.912.558.891.586.872.614.85.642.829.667.807.694.783.719.76.743.737.767.711.791.686.814.66.835.633.857.606.878.578.898 1.134 1.892h25.36l-2.39 8.467h-19.82l.34 2.38.021.147.02.148.02.147.017.149.019.149.017.148.017.149.016.148.015.15.015.149.014.15.013.149.013.15.012.15.011.15.01.15.011.15.01.153.008.15.008.15.007.152.007.152.006.151.005.152.005.151.004.154.003.152.002.152.002.153.001.152v.306l-.001.152-.002.153-.002.152-.003.152-.004.152-.005.153-.005.15-.006.152-.007.151-.007.153-.008.15-.009.15-.01.152-.01.151-.01.15-.011.149-.013.15-.012.15-.014.15-.014.149-.014.15-.016.148-.016.15-.016.147-.017.149-.019.15-.018.147-.02.148-.02.148-.02.148-.339 2.377h15.857l-2.388 8.472H89.099l-1.133 1.892-.58.898-.605.877-.633.857-.66.835-.686.813-.71.791-.737.768-.76.743-.784.719-.807.693-.828.668-.85.641-.872.614-.891.587-.912.557-.93.53-.95.5-.966.468-.984.438-1 .407-1.016.375-1.031.341-1.046.31-1.06.274-1.075.24-1.087.204-1.099.17-1.111.132-1.123.096-1.132.058-1.144.019-1.143-.02-1.133-.057L56.5 68.6l-1.111-.132-1.099-.17-1.086-.204-1.074-.24-1.06-.275-1.046-.31-1.032-.34-1.016-.375-1-.407-.983-.439-.967-.469-.948-.5-.93-.528-.911-.558-.892-.586-.871-.615-.85-.64-.829-.669-.807-.693-.783-.72-.76-.742-.737-.768-.711-.79-.686-.814-.66-.835-.633-.857-.606-.877-.578-.897-1.134-1.892" fill="#fab41d" fill-rule="evenodd"/><path d="M155.116 53.827h8.181v-16.32h8.179v16.32h8.132V25.261c0-2.204-.784-4.114-2.4-5.73-1.616-1.617-3.527-2.45-5.732-2.45h-8.179c-2.204 0-4.164.784-5.78 2.4-1.617 1.617-2.401 3.528-2.401 5.78zm8.181-20.434V25.26c0-2.302 1.862-4.114 4.066-4.114a4.076 4.076 0 014.113 4.114v8.132h-8.179m36.01-15.737v28.112c0 2.17-1.812 4.05-4.114 4.05h-4.066V17.655h-8.18v36.172h10.58c3.821 0 7.102-1.358 9.797-4.058 2.743-2.7 4.115-5.931 4.115-9.692V17.655h-8.132m-36.483-1.398h6.46l5.501-8.497h-6.46l-5.501 8.497M135.928 42.82l.023-.037.021.037v-.074l7.587-12.989v24.07h8.18V17.655h-4.074c-3.265 0-4.904 3.703-6.229 5.998l-5.485 9.49-5.487-9.49c-1.325-2.295-2.964-5.998-6.229-5.998h-4.074v36.172h8.18v-24.07l7.587 12.99v.073" fill="#18468b"/><path d="M210.159 33.47h8.341v4.031h-8.341v-4.03" fill="#18468b" fill-rule="evenodd"/><path d="M266.161 53.822h8.168V37.528h8.168v16.294h8.12V25.3c0-2.2-.782-4.108-2.397-5.722-1.613-1.614-3.521-2.445-5.723-2.445h-8.168c-2.2 0-4.156.782-5.77 2.396-1.614 1.614-2.398 3.522-2.398 5.771zm8.168-20.403V25.3c0-2.298 1.859-4.108 4.06-4.108a4.07 4.07 0 014.108 4.108v8.12h-8.168m51.59 20.407h8.009v-32.19h8.057v-4.005h-24.124v4.005h8.058v32.19M302.076 33.7V21.636h4.004a4.016 4.016 0 014.053 4.053v4.005c0 2.171-1.785 4.004-4.053 4.004zm-8.057 20.127h8.057V37.752h4.004c2.268 0 4.053 1.834 4.053 4.005v12.07h8.01V39.586c0-2.268-1.834-4.053-4.004-4.053h-4.006c2.895 0 4.97-.82 6.176-2.461 1.207-1.689 1.834-3.425 1.834-5.21V25.69c0-2.171-.772-4.053-2.364-5.645-1.594-1.592-3.474-2.413-5.646-2.413H294.02v36.195m-44.016 0h8.01v-32.19h8.058v-4.005h-24.125v4.005h8.057v32.19m-15.834 0c4.1.016 8.16-3.81 8.16-8.302v-1.598c0-2.09-1.187-5.297-3.026-6.784l-11.055-8.94c-.964-.78-1.396-1.86-1.458-2.885-.148-2.393 1.136-4.074 3.716-3.958 1.965.088 3.08 1.252 3.104 3.958h4.004l.001.008.041-.008h.039l.001.008h3.892c-.108-4.77-3.52-8.168-8.208-8.17l-6.597-.002c-4.09-.001-8.127 3.316-8.16 7.799l-.01 1.38c-.017 2.086 1.36 5.56 3.36 7.053l.046.036c3.644 3.22 6.943 5.72 10.685 8.825a4.031 4.031 0 011.458 2.884c.148 2.394-1.624 3.933-3.814 3.958-2.628.032-3.574-1.12-4.393-3.958h-4.005v-.008l-.016.008h-.064l-.002-.008h-3.892c.108 4.77 3.511 8.657 8.208 8.674l7.986.03" fill="#18468b"/></svg>