<svg width="27" height="18" viewBox="0 0 27 18" fill="none" xmlns="http://www.w3.org/2000/svg">
    <path d="M27 0H0V18H27V0Z" fill="#003399"/>
    <path d="M13.5 2L13.191 2.95106L13.6665 3.10557L13.5 2Z" fill="#FFCC00"/>
    <path d="M13.5 2L13.809 2.95106L13.3335 3.10557L13.5 2Z" fill="#FFCC00"/>
    <path d="M14.4511 2.69098H13.4511V3.19098L14.4511 2.69098Z" fill="#FFCC00"/>
    <path d="M14.4511 2.69098L13.6421 3.27876L13.3482 2.87426L14.4511 2.69098Z" fill="#FFCC00"/>
    <path d="M14.0878 3.80896L13.7788 2.8579L13.3033 3.01241L14.0878 3.80896Z" fill="#FFCC00"/>
    <path d="M14.0878 3.80896L13.2788 3.22117L13.5727 2.81667L14.0878 3.80896Z" fill="#FFCC00"/>
    <path d="M12.549 2.69098H13.549V3.19098L12.549 2.69098Z" fill="#FFCC00"/>
    <path d="M12.549 2.69098L13.358 3.27876L13.6519 2.87426L12.549 2.69098Z" fill="#FFCC00"/>
    <path d="M12.9122 3.80896L13.2212 2.8579L13.6968 3.01241L12.9122 3.80896Z" fill="#FFCC00"/>
    <path d="M12.9122 3.80896L13.7212 3.22117L13.4274 2.81667L12.9122 3.80896Z" fill="#FFCC00"/>
    <path d="M13.5 14L13.191 14.9511L13.6665 15.1056L13.5 14Z" fill="#FFCC00"/>
    <path d="M13.5 14L13.809 14.9511L13.3335 15.1056L13.5 14Z" fill="#FFCC00"/>
    <path d="M14.4511 14.691H13.4511V15.191L14.4511 14.691Z" fill="#FFCC00"/>
    <path d="M14.4511 14.691L13.6421 15.2788L13.3482 14.8743L14.4511 14.691Z" fill="#FFCC00"/>
    <path d="M14.0878 15.809L13.7788 14.8579L13.3033 15.0124L14.0878 15.809Z" fill="#FFCC00"/>
    <path d="M14.0878 15.809L13.2788 15.2212L13.5727 14.8167L14.0878 15.809Z" fill="#FFCC00"/>
    <path d="M12.549 14.691H13.549V15.191L12.549 14.691Z" fill="#FFCC00"/>
    <path d="M12.549 14.691L13.358 15.2788L13.6519 14.8743L12.549 14.691Z" fill="#FFCC00"/>
    <path d="M12.9122 15.809L13.2212 14.8579L13.6968 15.0124L12.9122 15.809Z" fill="#FFCC00"/>
    <path d="M12.9122 15.809L13.7212 15.2212L13.4274 14.8167L12.9122 15.809Z" fill="#FFCC00"/>
    <path d="M7.5 8L7.19098 8.95106L7.66651 9.10557L7.5 8Z" fill="#FFCC00"/>
    <path d="M7.5 8L7.80902 8.95106L7.33349 9.10557L7.5 8Z" fill="#FFCC00"/>
    <path d="M8.45108 8.69098H7.45108V9.19098L8.45108 8.69098Z" fill="#FFCC00"/>
    <path d="M8.45108 8.69098L7.64206 9.27876L7.34817 8.87426L8.45108 8.69098Z" fill="#FFCC00"/>
    <path d="M8.0878 9.80896L7.77878 8.8579L7.30325 9.01241L8.0878 9.80896Z" fill="#FFCC00"/>
    <path d="M8.0878 9.80896L7.27878 9.22117L7.57267 8.81667L8.0878 9.80896Z" fill="#FFCC00"/>
    <path d="M6.54895 8.69098H7.54895V9.19098L6.54895 8.69098Z" fill="#FFCC00"/>
    <path d="M6.54895 8.69098L7.35797 9.27876L7.65186 8.87426L6.54895 8.69098Z" fill="#FFCC00"/>
    <path d="M6.91223 9.80896L7.22125 8.8579L7.69678 9.01241L6.91223 9.80896Z" fill="#FFCC00"/>
    <path d="M6.91223 9.80896L7.72125 9.22117L7.42736 8.81667L6.91223 9.80896Z" fill="#FFCC00"/>
    <path d="M9.91223 4.61285L10.7212 4.02507L10.4274 3.62056L9.91223 4.61285Z" fill="#FFCC00"/>
    <path d="M9.91223 4.61285L10.2212 3.6618L10.6968 3.81631L9.91223 4.61285Z" fill="#FFCC00"/>
    <path d="M9.54898 3.49481L10.358 4.0826L10.6519 3.67809L9.54898 3.49481Z" fill="#FFCC00"/>
    <path d="M9.54898 3.49481H10.549V3.99481L9.54898 3.49481Z" fill="#FFCC00"/>
    <path d="M10.5 2.80383L10.191 3.75489L10.6665 3.9094L10.5 2.80383Z" fill="#FFCC00"/>
    <path d="M10.5 2.80383L10.809 3.75489L10.3335 3.9094L10.5 2.80383Z" fill="#FFCC00"/>
    <path d="M11.0878 4.61285L10.2788 4.02507L10.5727 3.62056L11.0878 4.61285Z" fill="#FFCC00"/>
    <path d="M11.0878 4.61285L10.7788 3.6618L10.3033 3.81631L11.0878 4.61285Z" fill="#FFCC00"/>
    <path d="M11.4511 3.49481L10.6421 4.0826L10.3482 3.67809L11.4511 3.49481Z" fill="#FFCC00"/>
    <path d="M11.4511 3.49481H10.4511V3.99481L11.4511 3.49481Z" fill="#FFCC00"/>
    <path d="M8.89163 6.80902L8.58262 5.85796L8.10709 6.01247L8.89163 6.80902Z" fill="#FFCC00"/>
    <path d="M8.89163 6.80902L8.08262 6.22124L8.37651 5.81673L8.89163 6.80902Z" fill="#FFCC00"/>
    <path d="M7.71609 6.80902L8.52511 6.22124L8.23122 5.81673L7.71609 6.80902Z" fill="#FFCC00"/>
    <path d="M7.71609 6.80902L8.02511 5.85796L8.50064 6.01247L7.71609 6.80902Z" fill="#FFCC00"/>
    <path d="M7.35281 5.69098L8.16183 6.27876L8.45572 5.87426L7.35281 5.69098Z" fill="#FFCC00"/>
    <path d="M7.35281 5.69098H8.35281V6.19098L7.35281 5.69098Z" fill="#FFCC00"/>
    <path d="M9.25488 5.69098L8.44587 6.27876L8.15197 5.87426L9.25488 5.69098Z" fill="#FFCC00"/>
    <path d="M9.25488 5.69098H8.25488V6.19098L9.25488 5.69098Z" fill="#FFCC00"/>
    <path d="M8.30383 5L8.61285 5.95106L8.13732 6.10557L8.30383 5Z" fill="#FFCC00"/>
    <path d="M8.30383 5L7.99482 5.95106L8.47034 6.10557L8.30383 5Z" fill="#FFCC00"/>
    <path d="M9.25491 11.691H8.25491V12.191L9.25491 11.691Z" fill="#FFCC00"/>
    <path d="M9.25491 11.691L8.4459 12.2788L8.152 11.8743L9.25491 11.691Z" fill="#FFCC00"/>
    <path d="M8.89166 12.809L8.58265 11.8579L8.10712 12.0124L8.89166 12.809Z" fill="#FFCC00"/>
    <path d="M8.89166 12.809L8.08265 12.2212L8.37654 11.8167L8.89166 12.809Z" fill="#FFCC00"/>
    <path d="M7.71609 12.809L8.52511 12.2212L8.23122 11.8167L7.71609 12.809Z" fill="#FFCC00"/>
    <path d="M7.71609 12.809L8.02511 11.858L8.50064 12.0125L7.71609 12.809Z" fill="#FFCC00"/>
    <path d="M8.30386 11L8.61288 11.9511L8.13735 12.1056L8.30386 11Z" fill="#FFCC00"/>
    <path d="M8.30386 11L7.99485 11.9511L8.47037 12.1056L8.30386 11Z" fill="#FFCC00"/>
    <path d="M7.35281 11.691H8.35281V12.191L7.35281 11.691Z" fill="#FFCC00"/>
    <path d="M7.35281 11.691L8.16183 12.2788L8.45572 11.8743L7.35281 11.691Z" fill="#FFCC00"/>
    <path d="M11.451 13.8871H10.451V14.3871L11.451 13.8871Z" fill="#FFCC00"/>
    <path d="M11.451 13.8871L10.642 14.4749L10.3481 14.0704L11.451 13.8871Z" fill="#FFCC00"/>
    <path d="M11.0878 15.0051L10.7788 14.0541L10.3033 14.2086L11.0878 15.0051Z" fill="#FFCC00"/>
    <path d="M11.0878 15.0051L10.2788 14.4173L10.5727 14.0128L11.0878 15.0051Z" fill="#FFCC00"/>
    <path d="M9.91223 15.0052L10.7212 14.4174L10.4274 14.0129L9.91223 15.0052Z" fill="#FFCC00"/>
    <path d="M9.91223 15.0052L10.2212 14.0541L10.6968 14.2086L9.91223 15.0052Z" fill="#FFCC00"/>
    <path d="M10.5 13.1962L10.809 14.1472L10.3335 14.3017L10.5 13.1962Z" fill="#FFCC00"/>
    <path d="M10.5 13.1962L10.191 14.1472L10.6665 14.3017L10.5 13.1962Z" fill="#FFCC00"/>
    <path d="M9.54895 13.8871H10.549V14.3871L9.54895 13.8871Z" fill="#FFCC00"/>
    <path d="M9.54895 13.8871L10.358 14.4749L10.6519 14.0704L9.54895 13.8871Z" fill="#FFCC00"/>
    <path d="M19.5 8L19.809 8.95106L19.3335 9.10557L19.5 8Z" fill="#FFCC00"/>
    <path d="M19.5 8L19.191 8.95106L19.6665 9.10557L19.5 8Z" fill="#FFCC00"/>
    <path d="M18.549 8.69098H19.549V9.19098L18.549 8.69098Z" fill="#FFCC00"/>
    <path d="M18.549 8.69098L19.358 9.27876L19.6519 8.87426L18.549 8.69098Z" fill="#FFCC00"/>
    <path d="M18.9122 9.80896L19.2212 8.8579L19.6968 9.01241L18.9122 9.80896Z" fill="#FFCC00"/>
    <path d="M18.9122 9.80896L19.7212 9.22117L19.4274 8.81667L18.9122 9.80896Z" fill="#FFCC00"/>
    <path d="M20.4511 8.69098H19.4511V9.19098L20.4511 8.69098Z" fill="#FFCC00"/>
    <path d="M20.4511 8.69098L19.6421 9.27876L19.3482 8.87426L20.4511 8.69098Z" fill="#FFCC00"/>
    <path d="M20.0878 9.80896L19.7788 8.8579L19.3033 9.01241L20.0878 9.80896Z" fill="#FFCC00"/>
    <path d="M20.0878 9.80896L19.2788 9.22117L19.5727 8.81667L20.0878 9.80896Z" fill="#FFCC00"/>
    <path d="M17.0878 4.61285L16.2788 4.02507L16.5727 3.62056L17.0878 4.61285Z" fill="#FFCC00"/>
    <path d="M17.0878 4.61285L16.7788 3.6618L16.3033 3.81631L17.0878 4.61285Z" fill="#FFCC00"/>
    <path d="M17.451 3.49481L16.642 4.0826L16.3481 3.67809L17.451 3.49481Z" fill="#FFCC00"/>
    <path d="M17.451 3.49481H16.451V3.99481L17.451 3.49481Z" fill="#FFCC00"/>
    <path d="M16.5 2.80383L16.809 3.75489L16.3335 3.9094L16.5 2.80383Z" fill="#FFCC00"/>
    <path d="M16.5 2.80383L16.191 3.75489L16.6665 3.9094L16.5 2.80383Z" fill="#FFCC00"/>
    <path d="M15.9122 4.61285L16.7212 4.02507L16.4274 3.62056L15.9122 4.61285Z" fill="#FFCC00"/>
    <path d="M15.9122 4.61285L16.2212 3.6618L16.6968 3.81631L15.9122 4.61285Z" fill="#FFCC00"/>
    <path d="M15.549 3.49481L16.358 4.0826L16.6519 3.67809L15.549 3.49481Z" fill="#FFCC00"/>
    <path d="M15.549 3.49481H16.549V3.99481L15.549 3.49481Z" fill="#FFCC00"/>
    <path d="M18.1084 6.80902L18.4174 5.85796L18.8929 6.01247L18.1084 6.80902Z" fill="#FFCC00"/>
    <path d="M18.1084 6.80902L18.9174 6.22124L18.6235 5.81673L18.1084 6.80902Z" fill="#FFCC00"/>
    <path d="M19.2839 6.80902L18.4749 6.22124L18.7688 5.81673L19.2839 6.80902Z" fill="#FFCC00"/>
    <path d="M19.2839 6.80902L18.9749 5.85796L18.4994 6.01247L19.2839 6.80902Z" fill="#FFCC00"/>
    <path d="M19.6472 5.69098L18.8382 6.27876L18.5443 5.87426L19.6472 5.69098Z" fill="#FFCC00"/>
    <path d="M19.6472 5.69098H18.6472V6.19098L19.6472 5.69098Z" fill="#FFCC00"/>
    <path d="M17.7451 5.69098L18.5542 6.27876L18.8481 5.87426L17.7451 5.69098Z" fill="#FFCC00"/>
    <path d="M17.7451 5.69098H18.7451V6.19098L17.7451 5.69098Z" fill="#FFCC00"/>
    <path d="M18.6962 5L18.3872 5.95106L18.8627 6.10557L18.6962 5Z" fill="#FFCC00"/>
    <path d="M18.6962 5L19.0052 5.95106L18.5297 6.10557L18.6962 5Z" fill="#FFCC00"/>
    <path d="M17.7451 11.691H18.7451V12.191L17.7451 11.691Z" fill="#FFCC00"/>
    <path d="M17.7451 11.691L18.5541 12.2788L18.848 11.8743L17.7451 11.691Z" fill="#FFCC00"/>
    <path d="M18.1084 12.809L18.4174 11.8579L18.8929 12.0124L18.1084 12.809Z" fill="#FFCC00"/>
    <path d="M18.1084 12.809L18.9174 12.2212L18.6235 11.8167L18.1084 12.809Z" fill="#FFCC00"/>
    <path d="M19.2839 12.809L18.4749 12.2212L18.7688 11.8167L19.2839 12.809Z" fill="#FFCC00"/>
    <path d="M19.2839 12.809L18.9749 11.858L18.4994 12.0125L19.2839 12.809Z" fill="#FFCC00"/>
    <path d="M18.6962 11L18.3871 11.9511L18.8627 12.1056L18.6962 11Z" fill="#FFCC00"/>
    <path d="M18.6962 11L19.0052 11.9511L18.5297 12.1056L18.6962 11Z" fill="#FFCC00"/>
    <path d="M19.6472 11.691H18.6472V12.191L19.6472 11.691Z" fill="#FFCC00"/>
    <path d="M19.6472 11.691L18.8382 12.2788L18.5443 11.8743L19.6472 11.691Z" fill="#FFCC00"/>
    <path d="M15.549 13.8871H16.549V14.3871L15.549 13.8871Z" fill="#FFCC00"/>
    <path d="M15.549 13.8871L16.358 14.4749L16.6519 14.0704L15.549 13.8871Z" fill="#FFCC00"/>
    <path d="M15.9122 15.0051L16.2212 14.0541L16.6968 14.2086L15.9122 15.0051Z" fill="#FFCC00"/>
    <path d="M15.9122 15.0051L16.7212 14.4173L16.4274 14.0128L15.9122 15.0051Z" fill="#FFCC00"/>
    <path d="M17.0878 15.0052L16.2788 14.4174L16.5727 14.0129L17.0878 15.0052Z" fill="#FFCC00"/>
    <path d="M17.0878 15.0052L16.7788 14.0541L16.3033 14.2086L17.0878 15.0052Z" fill="#FFCC00"/>
    <path d="M16.5 13.1962L16.191 14.1472L16.6665 14.3017L16.5 13.1962Z" fill="#FFCC00"/>
    <path d="M16.5 13.1962L16.809 14.1472L16.3335 14.3017L16.5 13.1962Z" fill="#FFCC00"/>
    <path d="M17.4511 13.8871H16.4511V14.3871L17.4511 13.8871Z" fill="#FFCC00"/>
    <path d="M17.4511 13.8871L16.6421 14.4749L16.3482 14.0704L17.4511 13.8871Z" fill="#FFCC00"/>
</svg>
