<svg width="21" height="35" viewBox="0 0 21 35" fill="none" xmlns="http://www.w3.org/2000/svg">
<path d="M18.8438 0H18.7972H2.2027H2.15606C1.20745 0 0.435669 0.771783 0.435669 1.72039V1.76703V4.60504V28.6852V33.233V33.2797C0.435669 34.2283 1.20745 35.0001 2.15606 35.0001H2.2027H18.7973H18.8439C19.7925 35.0001 20.5643 34.2283 20.5643 33.2797V33.233V28.6852V4.60504V1.76703V1.72039C20.5642 0.771783 19.7925 0 18.8438 0ZM2.2027 33.9711C1.79569 33.9711 1.46453 33.64 1.46453 33.233V29.1996H11.2329C11.517 29.1996 11.7473 28.9692 11.7473 28.6851C11.7473 28.401 11.517 28.1707 11.2329 28.1707H1.46453V5.11948H3.96597C4.25014 5.11948 4.4804 4.88915 4.4804 4.60504C4.4804 4.32094 4.25014 4.09061 3.96597 4.09061H1.46453V1.76703C1.46453 1.36002 1.79569 1.02886 2.2027 1.02886H18.7973C19.2043 1.02886 19.5354 1.36002 19.5354 1.76703V4.09061H6.02376C5.73958 4.09061 5.50933 4.32094 5.50933 4.60504C5.50933 4.88915 5.73958 5.11948 6.02376 5.11948H19.5354V28.1708H13.2907C13.0065 28.1708 12.7762 28.4011 12.7762 28.6852C12.7762 28.9693 13.0065 29.1996 13.2907 29.1996H19.5354V33.233C19.5354 33.6401 19.2043 33.9712 18.7973 33.9712H2.2027V33.9711Z" fill="url(#paint0_linear)"/>
<path d="M7.15579 3.1502H10.3435C10.6276 3.1502 10.8579 2.91987 10.8579 2.63577C10.8579 2.35167 10.6276 2.12134 10.3435 2.12134H7.15579C6.87162 2.12134 6.64136 2.35167 6.64136 2.63577C6.64136 2.91987 6.87162 3.1502 7.15579 3.1502Z" fill="url(#paint1_linear)"/>
<path d="M12.7371 3.1502H13.8441C14.1283 3.1502 14.3586 2.91987 14.3586 2.63577C14.3586 2.35167 14.1283 2.12134 13.8441 2.12134H12.7371C12.4529 2.12134 12.2227 2.35167 12.2227 2.63577C12.2227 2.91987 12.4529 3.1502 12.7371 3.1502Z" fill="url(#paint2_linear)"/>
<path d="M10.5 29.6821C9.43712 29.6821 8.57233 30.5468 8.57233 31.6098C8.57233 32.6727 9.43705 33.5375 10.5 33.5375C11.563 33.5375 12.4277 32.6727 12.4277 31.6098C12.4277 30.5468 11.5629 29.6821 10.5 29.6821ZM10.5 32.5085C10.0044 32.5085 9.60119 32.1054 9.60119 31.6097C9.60119 31.1141 10.0044 30.7109 10.5 30.7109C10.9956 30.7109 11.3988 31.1141 11.3988 31.6097C11.3988 32.1054 10.9956 32.5085 10.5 32.5085Z" fill="url(#paint3_linear)"/>
<path d="M17.7152 21.6185C17.7612 21.5389 17.7842 21.4501 17.7842 21.3612C17.7842 21.2724 17.7612 21.1836 17.7152 21.104L11.0634 9.58265C10.9715 9.42346 10.8017 9.32544 10.6179 9.32544C10.4341 9.32544 10.2643 9.42346 10.1724 9.58265L3.52053 21.104C3.47458 21.1836 3.4516 21.2724 3.4516 21.3612C3.4516 21.4501 3.47458 21.5389 3.52053 21.6185C3.61244 21.7777 3.78221 21.8757 3.96603 21.8757H17.2698C17.4536 21.8757 17.6233 21.7776 17.7152 21.6185ZM4.85695 20.8468L10.6178 10.8687L16.3787 20.8468H4.85695Z" fill="url(#paint4_linear)"/>
<path d="M10.1034 13.747V17.2636C10.1034 17.5477 10.3337 17.7781 10.6178 17.7781C10.902 17.7781 11.1323 17.5477 11.1323 17.2636V13.747C11.1323 13.4629 10.902 13.2325 10.6178 13.2325C10.3337 13.2325 10.1034 13.4629 10.1034 13.747Z" fill="url(#paint5_linear)"/>
<defs>
<linearGradient id="paint0_linear" x1="0.435669" y1="2.26852" x2="28.722" y2="17.2967" gradientUnits="userSpaceOnUse">
<stop stop-color="#FFF5BA"/>
<stop offset="1" stop-color="#DA6C37"/>
</linearGradient>
<linearGradient id="paint1_linear" x1="6.64136" y1="2.18802" x2="7.13686" y2="4.06399" gradientUnits="userSpaceOnUse">
<stop stop-color="#FFF5BA"/>
<stop offset="1" stop-color="#DA6C37"/>
</linearGradient>
<linearGradient id="paint2_linear" x1="12.2227" y1="2.18802" x2="13.0454" y2="3.76588" gradientUnits="userSpaceOnUse">
<stop stop-color="#FFF5BA"/>
<stop offset="1" stop-color="#DA6C37"/>
</linearGradient>
<linearGradient id="paint3_linear" x1="8.57233" y1="29.932" x2="12.3206" y2="33.3947" gradientUnits="userSpaceOnUse">
<stop stop-color="#FFF5BA"/>
<stop offset="1" stop-color="#DA6C37"/>
</linearGradient>
<linearGradient id="paint4_linear" x1="3.4516" y1="10.1389" x2="15.674" y2="23.0336" gradientUnits="userSpaceOnUse">
<stop stop-color="#FFF5BA"/>
<stop offset="1" stop-color="#DA6C37"/>
</linearGradient>
<linearGradient id="paint5_linear" x1="10.1034" y1="13.5272" x2="11.8797" y2="13.8986" gradientUnits="userSpaceOnUse">
<stop stop-color="#FFF5BA"/>
<stop offset="1" stop-color="#DA6C37"/>
</linearGradient>
</defs>
</svg>
