<svg width="40" height="40" fill="none" xmlns="http://www.w3.org/2000/svg"><g clip-path="url(#clip0)" fill="#fff"><path d="M29.021 3.795a.586.586 0 00-.739-.374l-.208.068v-.227a.586.586 0 00-1.172 0v.227l-.208-.068a.586.586 0 00-.365 1.114l.216.07-.136.19a.586.586 0 00.475.928c.341 0 .474-.242.604-.422l.128.178a.586.586 0 10.951-.685l-.136-.188.216-.071a.586.586 0 00.374-.74zm5.794 6.29a.586.586 0 00-.739-.374l-.208.068V9.55a.586.586 0 00-1.172 0v.228l-.208-.068a.586.586 0 00-.365 1.113l.216.071-.136.189a.586.586 0 00.951.685l.128-.178c.123.17.258.421.604.421a.587.587 0 00.475-.928l-.136-.189.216-.07a.586.586 0 00.374-.74zm-7.823-.769a.586.586 0 100-1.171.586.586 0 000 1.171zm9.375 9.485a.586.586 0 100-1.172.586.586 0 000 1.172zm-6.094-4.485a.586.586 0 100-1.171.586.586 0 000 1.171zm6.329-7.656a.586.586 0 100-1.172.586.586 0 000 1.172zm-10.825 3.456a1.165 1.165 0 00-.738-.415.586.586 0 10-.169 1.16l-1.045 1.019a.586.586 0 00-.168.518l.246 1.44c-1.722-.906-1.42-.9-3.128-.001h-.002l.247-1.439a.588.588 0 00-.168-.518l-1.046-1.02 1.445-.21a.586.586 0 00.44-.32l.648-1.309.254.516a.587.587 0 001.052-.519l-.256-.516c-.43-.881-1.683-.859-2.102 0l-.51 1.033c-1.162.169-1.525.145-1.878.581a1.173 1.173 0 00-.265.748c-.005.608.35.832 1.179 1.64l-.195 1.136a1.162 1.162 0 00.337 1.038c.228.219.52.333.82.333.365 0 .494-.11 1.563-.672l1.02.536c.775.411 1.72-.16 1.717-1.034 0-.068-.005-.136-.017-.201l-.195-1.136.825-.804a1.17 1.17 0 00.089-1.584zm13.637 10.411h-7.799l.278-.27c.783-.764.35-2.095-.731-2.252l-1.505-.218-.673-1.364c-.484-.98-1.883-.98-2.367 0l-.673 1.364-1.505.218c-1.082.158-1.514 1.489-.731 2.252l.278.27H21.89a1.17 1.17 0 00-.337-.947l-3.314-3.315a1.173 1.173 0 00-1.657 0l-2.04 2.04-2.246-2.247a2.126 2.126 0 00-2.075-.556 2.127 2.127 0 00-1.52 1.52l-1.174 4.383a2.91 2.91 0 00-1.55 1.55l-4.383 1.174c-1.597.428-2.133 2.424-.963 3.595l2.246 2.246-2.04 2.04a1.171 1.171 0 000 1.657l3.315 3.314a1.168 1.168 0 001.657 0L21.091 21.7h17.737v13.868a.589.589 0 01-.586.586H18.477a.589.589 0 01-.586-.586v-7.473a.587.587 0 00-1.172-.002v7.475c0 .47.183.91.515 1.243a1.75 1.75 0 001.243.514h19.765c.967 0 1.758-.782 1.758-1.757V21.113a.587.587 0 00-.586-.585zm-29.58-3.202a.976.976 0 011.633-.438l2.246 2.246-2.708 2.709.707-2.639a.586.586 0 00-1.132-.303l-.68 2.54a2.927 2.927 0 00-1.098-.267l1.031-3.848zm-1.656 5.09a1.75 1.75 0 011.773.48L7.468 25.38c-.993-.935-.583-2.588.71-2.965zm-6.719 4.48a.967.967 0 01-.252-.943c.091-.341.35-.6.69-.69l3.849-1.032c.016.377.105.75.266 1.097l-2.54.68a.586.586 0 10.303 1.133l2.639-.707-2.709 2.708-2.246-2.246zm3.522 9.258l-3.315-3.315 2.454-2.454 10.836-10.836 2.454-2.454 3.315 3.314L4.981 36.153zm26.094-16.736l-1.139 1.11h-4.271c-1.225-1.193-1.216-1.14-1.177-1.261.04-.122-.018-.08 1.93-.364a.585.585 0 00.44-.32c.874-1.77.816-1.723.943-1.723.126 0 .068-.048.942 1.723.085.173.25.292.44.32l1.81.263a.147.147 0 01.082.252z"/></g><defs><clipPath id="clip0"><path fill="#fff" d="M0 0h40v40H0z"/></clipPath></defs></svg>