<svg width="42" height="40" fill="none" xmlns="http://www.w3.org/2000/svg"><g clip-path="url(#clip0)" fill="#fff"><path d="M32.442 24.126l8.15 7.908a4.571 4.571 0 010 6.6c-1.879 1.822-4.923 1.82-6.802 0l-8.145-7.904a18.481 18.481 0 003.847-2.867 17.9 17.9 0 002.95-3.737zM5.37 4.456C8.33 1.583 12.27 0 16.457 0c4.188 0 8.125 1.584 11.087 4.457a14.913 14.913 0 010 21.517c-2.962 2.874-6.899 4.457-11.087 4.457s-8.125-1.583-11.086-4.457C2.408 23.101.776 19.281.776 15.216c0-4.064 1.632-7.885 4.594-10.76zm2.922 18.683c2.182 2.117 5.081 3.283 8.165 3.283 3.084 0 5.984-1.166 8.165-3.283a10.984 10.984 0 000-15.847c-2.18-2.116-5.08-3.282-8.165-3.282-3.085 0-5.985 1.165-8.166 3.281-2.182 2.117-3.383 4.932-3.383 7.926 0 2.992 1.201 5.806 3.384 7.922z"/><path d="M11.149 13.211h3.242v-3.143c0-1.108.925-2.005 2.066-2.005 1.14 0 2.066.897 2.066 2.005v3.144h3.24c1.14 0 2.066.898 2.066 2.005 0 1.107-.925 2.004-2.066 2.004h-3.24v3.144c0 1.107-.926 2.004-2.066 2.004-1.14 0-2.066-.897-2.066-2.004V17.22H11.15c-1.14 0-2.066-.899-2.066-2.005 0-1.108.925-2.005 2.066-2.005z"/></g><defs><clipPath id="clip0"><path fill="#fff" transform="matrix(-1 0 0 1 42 0)" d="M0 0h41.224v40H0z"/></clipPath></defs></svg>