<svg version="1" xmlns="http://www.w3.org/2000/svg" width="682.667" height="682.667" viewBox="0 0 512.000000 512.000000"><path d="M20.3 35.8C10.3 39.3 3.2 47.3 1 57.4.2 61 0 119 .2 259l.3 196.5 2.1 4.6c3.1 6.6 7.8 11.4 14.2 14.6l5.7 2.8h467l5.7-2.8c6.4-3.2 11.1-8 14.2-14.6l2.1-4.6v-399l-2.8-5.7c-3.2-6.4-8-11.1-14.6-14.2l-4.6-2.1-232-.2c-220.7-.2-232.3-.2-237.2 1.5zM482.5 79v15.5h-453L29.2 80c-.1-7.9 0-15 .2-15.7.4-1.1 42.1-1.3 226.8-1.1l226.3.3V79zm0 207.5v162h-453l-.3-161c-.1-88.6 0-161.6.3-162.3.3-1 46.2-1.2 226.7-1l226.3.3v162z"/><path d="M272.5 194c-7.5 2.3-6.7-.2-30.1 88.3-20.8 78.4-21.7 81.9-20.5 85.8 2.4 7.9 9.7 12 17.6 9.8 8.2-2.3 7.1.9 30.3-87 11.7-44.2 21.2-82 21.2-83.9 0-4-2.9-9.2-6.2-11.4-3.1-2-8.6-2.7-12.3-1.6zM170.7 223.5c-5.3 1.8-68.3 52.2-70.2 56.1-2 4.2-1.9 9.2.3 13.1 1 2.1 13.9 12.9 34.4 29.2 18 14.2 33.4 26.1 34.3 26.5 3.5 1.3 10.8.6 14-1.4 5.9-3.6 7.9-14.2 3.8-19.8-1.1-1.5-12.5-11.1-25.4-21.3-12.9-10.2-23.4-19.2-23.4-20 0-.7 10.1-9.3 22.5-19.1s23.7-19.1 25.1-20.7c3.6-3.9 4.5-9.6 2.4-14.9-2.7-6.7-10.6-10.2-17.8-7.7zM334 223c-5.2.9-8.6 3.6-10.5 8.3-1.7 4.2-1.4 9.1.7 13 .5 1 12 10.6 25.4 21.3 13.5 10.8 24.3 20.1 24.1 20.7-.2.6-10.4 9.1-22.8 18.9-12.3 9.8-23.6 19.1-25 20.7-5.5 6-4.2 16.9 2.6 21.1 3.7 2.3 11.7 2.7 15.1.7 1.2-.7 16.6-12.6 34.2-26.6 33.1-26.2 35.2-28.3 35.2-35.1 0-6.8-2.1-8.9-35.3-35.2-17.7-14-32.8-25.8-33.5-26.2-2.6-1.5-6.8-2.2-10.2-1.6z"/></svg>