<svg version="1" xmlns="http://www.w3.org/2000/svg" width="109.333" height="109.333" viewBox="0 0 82.000000 82.000000"><path d="M1.4 2.3c.7 4 2.2 6.2 7.3 10.6l4.8 4.2-4.7-2.7c-4-2.1-4.8-2.3-4.8-.9 0 .8 2.1 3.7 4.8 6.3 4.6 4.6 4.7 4.8 3.5 8.2-2.1 6.2-1.1 13.7 2.5 17.7 1.9 2.3 9.2 6.8 19.4 12l6.7 3.4 8.3-4.2c4.6-2.3 10.5-5.6 13.1-7.3 7.7-5 10.4-13 7.4-21.6-1.2-3.5-1.2-3.6 3.5-8.1 2.6-2.5 4.8-5.3 4.8-6.3 0-1.6-.5-1.5-4.7 1l-4.8 2.7 5.2-4.7C78.2 8.5 82.1 1.8 80.8.4c-.5-.5-17.1 3.3-20.6 4.7-1.2.5-3.6 3-5.3 5.6-1.8 2.7-2.8 3.9-2.4 2.8.5-1.1.8-3.1.9-4.5.1-2.2-.5-2.7-4.4-3.7-4.9-1.2-14.4-.9-18.6.7-2.7 1.1-2.8 2.4-.9 7.5.4 1.1-.6-.1-2.3-2.7-3.7-5.7-4.6-6.1-15.1-8.3C7.4 1.6 3 .6 2.3.3c-1-.4-1.3.2-.9 2zm12 3.3c7 1.8 8.1 2.6 13.8 10.5 2.3 3.1 4.6 5.5 5 5.3 1.1-.7 1-5.8-.2-9-1.6-4.2.5-5.6 8.1-5.7 8.6 0 11.3.9 10.5 3.6-.4 1.2-.9 4.1-1.2 6.4-.9 5.9 1.2 5.7 5.5-.6 1.8-2.7 4.3-5.9 5.6-7.1 1.9-1.8 11.3-4.9 15.3-5 2.3 0-2.4 5.6-8.1 9.6-6.2 4.4-7.7 6.1-7.7 8.6 0 1.7.2 1.7 3 .3 6.3-3.3 4.1-1.2-3.9 3.5-4.6 2.7-9.2 5.9-10.2 7.1-2.8 3.2-12.6 3.4-15.4.4-2.2-2.5-9.1-7.1-14.7-10-2.1-1-3.6-2.1-3.4-2.3.2-.2 1.8.4 3.5 1.3 2.9 1.5 3.1 1.4 3.1-.3 0-2.5-1.5-4.2-7.7-8.6C8.8 9.7 3.9 4 6 4c.7 0 4 .7 7.4 1.6zm11 24.4c6.3 4.4 11.1 8.9 10.3 9.6-.2.3-2.3.6-4.6.7-4.9.2-7.3-1.8-7.5-6.2-.2-4.3-2-4-2.4.4-.5 6 6.9 10.9 12 7.9 7.8-4.5 8.7-4.8 11.4-3.6 2.3 1.1 2.9.9 6.1-2.3 4.9-4.9 11.7-9.4 14.5-9.7 2-.3 2.4.3 3.2 4.3 1.7 9-1.4 13.6-13.7 20.3-12 6.6-12.1 6.6-10.5 2.5 2.1-5.1 2.2-11.3.3-13.3-2-2-2.9-2-4.9 0-2 1.9-2 6.9-.1 12.3.8 2.2 1.1 4.1.8 4.1-.8 0-18.5-9.7-20.4-11.3-2.5-1.9-4.9-7.3-4.9-11.1 0-4.1 1.8-8.6 3.5-8.6.6 0 3.7 1.8 6.9 4zm17.8 14.9c.2 1.6 0 3.9-.5 5.2-1 2.4-1 2.4-1.6-.6-.8-3.4-.2-7.5.9-7.5.4 0 1 1.3 1.2 2.9z"/><path d="M60.7 30.7c-.4.3-.7 1.8-.7 3.3 0 4.5-5.3 7.9-9.2 5.9-2.3-1.2-3.6 1.1-1.4 2.6 3.4 2.6 12.4-1.6 12.7-5.9 0-.6.2-1.8.4-2.7.4-2-.9-4.2-1.8-3.2zM22 72.4c0 4.2.5 7.8 1.1 8.1.6.4 2.8.9 5 1.1 3.2.3 3.9.1 3.9-1.5 0-1.2-.7-1.7-2.2-1.6-4.3.4-4.8-.4-4.8-7.1 0-5-.3-6.4-1.5-6.4S22 66.5 22 72.4zM33 71.9c0 3.6.4 7.2.9 8 1.3 2.1 10.6 2.1 10.6.1 0-.9-1.2-1.5-3.5-1.6-5-.3-5-.3-5-1.9 0-1 1-1.5 2.9-1.5 1.6 0 3.6-.3 4.5-.6 2.7-1 .7-2.4-3.5-2.4-3.3 0-4-.3-3.7-1.8.2-1.1 1.3-1.7 3.3-1.8 5-.2 5.5-.4 4.9-1.8-.3-.9-2.3-1.4-6-1.4H33v6.7zM47 65.6c0 .4.9 2.2 2.1 4l2 3.3-2.5 3.8c-1.4 2.1-2.6 4.1-2.6 4.4 0 1.7 3.3 0 4.9-2.5l1.8-2.8 2.2 3.1c1.2 1.7 2.9 3.1 3.7 3.1 1.2 0 .9-1.1-1.2-4.9l-2.7-4.8 2.1-3.1c2.6-3.6 2.7-4.2.7-4.2-.8 0-2.2 1.2-3.2 2.6l-1.6 2.6-1.4-2.6c-1.2-2.3-4.3-3.7-4.3-2z"/></svg>